<?xml version="1.0" encoding="UTF-8"?>
<svg width="37px" height="30px" viewBox="0 0 37 30" version="1.1" xmlns="http://www.w3.org/2000/svg" xmlns:xlink="http://www.w3.org/1999/xlink">
    <!-- Generator: Sketch 47.1 (45422) - http://www.bohemiancoding.com/sketch -->
    <title>chat-icon</title>
    <desc>Created with Sketch.</desc>
    <defs></defs>
    <g id="Website" stroke="none" stroke-width="1" fill="none" fill-rule="evenodd">
        <g id="Landing-Page" transform="translate(-702.000000, -2790.000000)" fill-rule="nonzero" fill="#FFFFFF">
            <g id="chat-icon" transform="translate(702.000000, 2790.000000)">
                <path d="M14.2251336,4.95056418 C6.36848288,4.95056418 0,9.84838709 0,15.8929746 C0,18.8561794 1.53412594,21.5502008 4.02461856,23.5198347 C3.88017874,25.5288613 3.3965242,27.9865266 1.99589566,29.3105583 C4.78402185,29.3105583 7.63342552,27.5641496 9.43454628,26.1985368 C10.931468,26.6099714 12.5421908,26.8353851 14.2251336,26.8353851 C22.0817843,26.8353851 28.4502671,21.9397506 28.4502671,15.8929746 C28.4502671,9.84838709 22.0817843,4.95056418 14.2251336,4.95056418 Z" id="Shape"></path>
                <path d="M34.1336188,16.9587654 C35.3307185,15.358985 36.0157134,13.4987752 36.0157134,11.5160104 C36.0157134,5.47142291 29.6472305,0.5736 21.7905798,0.5736 C18.3327781,0.5736 15.1638561,1.52340123 12.6996252,3.09910833 C13.8595208,2.88026012 15.0719398,2.76208209 16.3193746,2.76208209 C24.7800464,2.76208209 31.6387492,8.15231347 31.6387492,14.7987336 C31.6387492,17.4183466 30.5773354,19.8453733 28.7674607,21.8171956 C30.5642045,23.1828085 33.4179852,24.9335941 36.2061114,24.9335941 C34.2233466,23.0514995 34.0810952,18.8802527 34.1336188,16.9587654 Z" id="Shape"></path>
            </g>
        </g>
    </g>
</svg>