<?xml version="1.0" encoding="UTF-8"?>
<svg width="38px" height="24px" viewBox="0 0 38 24" version="1.1" xmlns="http://www.w3.org/2000/svg" xmlns:xlink="http://www.w3.org/1999/xlink">
    <!-- Generator: Sketch 47.1 (45422) - http://www.bohemiancoding.com/sketch -->
    <title>chat-icon</title>
    <desc>Created with Sketch.</desc>
    <defs>
        <filter x="-0.7%" y="-0.7%" width="101.4%" height="101.8%" filterUnits="objectBoundingBox" id="filter-1">
            <feOffset dx="0" dy="2" in="SourceAlpha" result="shadowOffsetOuter1"></feOffset>
            <feGaussianBlur stdDeviation="2" in="shadowOffsetOuter1" result="shadowBlurOuter1"></feGaussianBlur>
            <feColorMatrix values="0 0 0 0 0   0 0 0 0 0   0 0 0 0 0  0 0 0 0.1 0" type="matrix" in="shadowBlurOuter1" result="shadowMatrixOuter1"></feColorMatrix>
            <feMerge>
                <feMergeNode in="shadowMatrixOuter1"></feMergeNode>
                <feMergeNode in="SourceGraphic"></feMergeNode>
            </feMerge>
        </filter>
    </defs>
    <g id="Order-Manager" stroke="none" stroke-width="1" fill="none" fill-rule="evenodd">
        <g id="tablet_screen" transform="translate(-598.000000, -654.000000)" fill="#FFFFFF">
            <g filter="url(#filter-1)" id="Group-2">
                <g transform="translate(98.000000, 75.000000)">
                    <g id="chat-icon" transform="translate(494.000000, 564.000000)">
                        <path d="M18,17 L31.44,17 L31.44,17 C35.858278,17 39.44,20.581722 39.44,25 L39.44,25 C39.44,29.418278 35.858278,33 31.44,33 L18,33 C13.581722,33 10,29.418278 10,25 C10,20.581722 13.581722,17 18,17 L18,17 Z M18.0339927,26.8758621 C19.0166954,26.8758621 19.8133333,26.0607115 19.8133333,25.0551724 C19.8133333,24.0496333 19.0166954,23.2344828 18.0339927,23.2344828 C17.05129,23.2344828 16.254652,24.0496333 16.254652,25.0551724 C16.254652,26.0607115 17.05129,26.8758621 18.0339927,26.8758621 Z M31.4060073,26.8758621 C32.38871,26.8758621 33.185348,26.0607115 33.185348,25.0551724 C33.185348,24.0496333 32.38871,23.2344828 31.4060073,23.2344828 C30.4233046,23.2344828 29.6266667,24.0496333 29.6266667,25.0551724 C29.6266667,26.0607115 30.4233046,26.8758621 31.4060073,26.8758621 Z M24.72,26.9310345 C25.7027027,26.9310345 26.4993407,26.115884 26.4993407,25.1103448 C25.2447077,25.1103448 23.93207,25.1103448 22.9406593,25.1103448 C22.9406593,26.115884 23.7372973,26.9310345 24.72,26.9310345 Z"></path>
                    </g>
                </g>
            </g>
        </g>
    </g>
</svg>