<?xml version="1.0" encoding="UTF-8"?>
<svg width="50px" height="50px" viewBox="0 0 50 50" version="1.1" xmlns="http://www.w3.org/2000/svg" xmlns:xlink="http://www.w3.org/1999/xlink">
    <!-- Generator: Sketch 47.1 (45422) - http://www.bohemiancoding.com/sketch -->
    <title>eat</title>
    <desc>Created with Sketch.</desc>
    <defs></defs>
    <g id="Logo/Brand" stroke="none" stroke-width="1" fill="none" fill-rule="evenodd">
        <g id="Landing-Page" transform="translate(-1078.000000, -631.000000)" fill-rule="nonzero" fill="#434E5D">
            <g id="Group-2" transform="translate(118.000000, 582.000000)">
                <g id="eat" transform="translate(960.000000, 49.000000)">
                    <path d="M33,0 C31.90625,0 31,0.90625 31,2 L31,5 C31,5.945313 31.671875,6.769531 32.5625,6.96875 C32.027344,7.828125 31.507813,8.902344 31,10.125 C29.886719,12.800781 28.863281,16.078125 28.34375,18.75 C28.238281,19.292969 28.597656,19.816406 29.140625,19.921875 C29.683594,20.027344 30.207031,19.667969 30.3125,19.125 C30.796875,16.632813 31.792969,13.40625 32.84375,10.875 C33.371094,9.609375 33.902344,8.527344 34.375,7.8125 C34.609375,7.453125 34.828125,7.1875 34.96875,7.0625 C35.023438,7.015625 35.019531,7.003906 35.03125,7 L42.84375,7 C42.871094,7.015625 42.953125,7.066406 43.0625,7.1875 C43.28125,7.429688 43.566406,7.882813 43.875,8.4375 C44.492188,9.546875 45.164063,11.105469 45.78125,12.8125 C47.015625,16.226563 48,20.269531 48,21.8125 L48,44 C48,45.667969 46.667969,47 45,47 L33,47 C32.246094,47 31.558594,46.734375 31.03125,46.28125 C30.777344,45.976563 30.363281,45.851563 29.984375,45.964844 C29.601563,46.074219 29.324219,46.402344 29.273438,46.796875 C29.222656,47.191406 29.410156,47.578125 29.75,47.78125 C30.625,48.535156 31.757813,49 33,49 L45,49 C47.75,49 50,46.75 50,44 L50,21.8125 C50,19.558594 48.941406,15.703125 47.65625,12.15625 C47.015625,10.382813 46.328125,8.703125 45.625,7.4375 C45.53125,7.269531 45.4375,7.125 45.34375,6.96875 C46.277344,6.804688 47,5.976563 47,5 L47,2 C47,0.90625 46.09375,0 45,0 L33,0 Z M33,2 L45,2 L45,5 L33,5 L33,2 Z M19.21875,14.96875 C18.683594,14.957031 18.21875,15.03125 18.21875,15.03125 C18.21875,15.03125 16.808594,17.328125 16.65625,20 C14.101563,16.109375 10.886719,19.464844 9.6875,16.375 C9.6875,21.304688 13.59375,20.378906 15.03125,21 C10.644531,21 12.191406,24.773438 8.6875,24.875 C11.804688,26.253906 14.597656,25.972656 16.65625,21.96875 C15.703125,24.753906 15.011719,27.003906 18.90625,29.34375 C19.933594,27.507813 19.4375,24.171875 18.40625,21.5 C20.273438,24.589844 22.855469,26.710938 26.25,24.5625 C23.527344,23.851563 24.746094,21.855469 19.9375,21.09375 C23.027344,21.515625 25.136719,21.953125 26,18.6875 C23.511719,19.632813 22.519531,15.890625 18.4375,20.125 C18.421875,20.132813 18.460938,17.445313 20.71875,15.4375 C20.375,15.101563 19.753906,14.980469 19.21875,14.96875 Z M8.375,20.5625 C8.289063,20.582031 8.203125,20.613281 8.125,20.65625 C2.3125,22.824219 0,28.105469 0,33.84375 C0,42.367188 7.613281,50 17,50 C21.136719,50 25.363281,48.597656 28.59375,45.65625 C31.824219,42.714844 34,38.222656 34,32.25 C34,29.941406 33.605469,27.601563 32.5625,25.59375 C31.519531,23.585938 29.785156,21.917969 27.28125,21.0625 C26.753906,20.882813 26.179688,21.160156 26,21.6875 C25.820313,22.214844 26.097656,22.789063 26.625,22.96875 C28.660156,23.664063 29.9375,24.90625 30.78125,26.53125 C31.625,28.15625 32,30.167969 32,32.25 C32,37.746094 30.0625,41.621094 27.25,44.1875 C24.4375,46.753906 20.6875,48 17,48 C8.707031,48 2,41.164063 2,33.84375 C2,28.609375 3.8125,24.363281 8.8125,22.5 C9.289063,22.332031 9.566406,21.832031 9.453125,21.335938 C9.34375,20.84375 8.878906,20.511719 8.375,20.5625 Z" id="Shape"></path>
                </g>
            </g>
        </g>
    </g>
</svg>