<?xml version="1.0" encoding="UTF-8"?>
<svg width="30px" height="32px" viewBox="0 0 30 32" version="1.1" xmlns="http://www.w3.org/2000/svg" xmlns:xlink="http://www.w3.org/1999/xlink">
    <!-- Generator: Sketch 47.1 (45422) - http://www.bohemiancoding.com/sketch -->
    <title>food-icon</title>
    <desc>Created with Sketch.</desc>
    <defs></defs>
    <g id="Website" stroke="none" stroke-width="1" fill="none" fill-rule="evenodd">
        <g id="Landing-Page" transform="translate(-890.000000, -1557.000000)" fill-rule="nonzero" fill="#3D5AFE">
            <g id="food_icon" transform="translate(875.000000, 1543.000000)">
                <g id="food-icon" transform="translate(15.000000, 14.000000)">
                    <path d="M14.9999888,9.56179202 L14.9999888,1.68506991 C15.0034506,0.757628329 14.2037766,0.00326563935 13.2171659,0.00326563935 C12.7221297,0.00326563935 12.2755585,0.189407082 11.95015,0.496377181 C11.6282034,0.800081641 11.4274195,1.22134912 11.4308812,1.68833554 L11.4239577,8.54944382 C11.4239577,8.82702317 11.3027949,9.0784774 11.1089346,9.2613532 C10.9150742,9.444229 10.6485163,9.55852638 10.3542639,9.55852638 C9.75883571,9.56179202 9.28110841,9.11113379 9.28457021,8.54944382 L9.28110841,1.68506991 C9.28457021,0.757628329 8.48489625,0.00326563935 7.49828553,0.00326563935 C7.00324928,0.00326563935 6.55667811,0.192672722 6.23473145,0.496377181 C5.9127848,0.800081641 5.71200086,1.22134912 5.71546265,1.68506991 L5.71200086,8.54944382 C5.71546265,8.8302888 5.59429993,9.08174304 5.40043958,9.26461884 C5.20657923,9.44749464 4.94002124,9.55852638 4.64230713,9.55852638 C4.05380249,9.55852638 3.5726134,9.10460251 3.5726134,8.54944382 L3.56915161,1.68506991 C3.5726134,0.75436269 2.77293945,0 1.78286694,0 C1.28783068,0 0.841259513,0.189407082 0.519312857,0.493111542 C0.197366201,0.796816002 -0.00341773547,1.21808348 4.40565286e-05,1.68180427 L4.40565286e-05,9.55852638 C4.40565286e-05,12.350648 3.31644079,13.8397796 4.6976958,16.0702112 L4.6976958,25.8573324 L4.69423401,29.3515665 C4.69423401,30.8113073 5.9543263,32 7.50174733,32 C8.27718873,32 8.97647072,31.7028268 9.48535414,31.2227778 C9.99423757,30.7427288 10.3057988,30.0830697 10.3057988,29.3548321 L10.2988753,25.8867231 L10.2988753,16.1126646 C11.6732067,13.8365139 14.9999888,12.350648 14.9999888,9.56179202 Z" id="Shape"></path>
                    <path d="M30,8 C30,3.58204082 26.8666667,0 23,0 C19.1333333,0 16,3.58204082 16,8 C16,11.4220408 17.88,14.3412245 20.5233333,15.4840816 L20.5233333,25.8579592 L20.52,29.3518367 C20.52,30.8114286 21.7333333,32 23.2233333,32 C23.97,32 24.6433333,31.7028571 25.1333333,31.2228571 C25.6233333,30.7428571 25.9233333,30.0832653 25.9233333,29.355102 L25.92,25.8840816 L25.92,15.275102 C28.3266667,14.0081633 30,11.2293878 30,8 Z" id="Shape"></path>
                </g>
            </g>
        </g>
    </g>
</svg>