<?xml version="1.0" encoding="UTF-8"?>
<svg width="60px" height="60px" viewBox="0 0 60 60" version="1.1" xmlns="http://www.w3.org/2000/svg" xmlns:xlink="http://www.w3.org/1999/xlink">
    <!-- Generator: Sketch 47.1 (45422) - http://www.bohemiancoding.com/sketch -->
    <title>logo-icon</title>
    <desc>Created with Sketch.</desc>
    <defs></defs>
    <g id="Website" stroke="none" stroke-width="1" fill="none" fill-rule="evenodd">
        <g id="Landing-Page" transform="translate(-112.000000, -884.000000)">
            <g id="What-is-Foodi" transform="translate(112.000000, 884.000000)">
                <g id="logo-icon">
                    <rect id="Rectangle-11" fill="#3D5AFE" x="0" y="0" width="60" height="60" rx="30"></rect>
                    <g id="logo" transform="translate(7.000000, 18.000000)" fill="#FFFFFF">
                        <path d="M12.5,0 L33.5,0 L33.5,-3.55271368e-15 C40.4035594,-4.82087696e-15 46,5.59644063 46,12.5 L46,12.5 L46,12.5 C46,19.4035594 40.4035594,25 33.5,25 L12.5,25 L12.5,25 C5.59644063,25 8.45442189e-16,19.4035594 0,12.5 L0,12.5 L0,12.5 C-8.45442189e-16,5.59644063 5.59644063,-5.08193556e-16 12.5,-1.77635684e-15 L12.5,0 Z M12.5531136,15.4310345 C14.0885865,15.4310345 15.3333333,14.1573618 15.3333333,12.5862069 C15.3333333,11.015052 14.0885865,9.74137931 12.5531136,9.74137931 C11.0176406,9.74137931 9.77289377,11.015052 9.77289377,12.5862069 C9.77289377,14.1573618 11.0176406,15.4310345 12.5531136,15.4310345 Z M33.4468864,15.4310345 C34.9823594,15.4310345 36.2271062,14.1573618 36.2271062,12.5862069 C36.2271062,11.015052 34.9823594,9.74137931 33.4468864,9.74137931 C31.9114135,9.74137931 30.6666667,11.015052 30.6666667,12.5862069 C30.6666667,14.1573618 31.9114135,15.4310345 33.4468864,15.4310345 Z M23,15.5172414 C24.535473,15.5172414 25.7802198,14.2435687 25.7802198,12.6724138 C23.8198557,12.6724138 21.7688594,12.6724138 20.2197802,12.6724138 C20.2197802,14.2435687 21.464527,15.5172414 23,15.5172414 Z" id="Combined-Shape"></path>
                    </g>
                </g>
            </g>
        </g>
    </g>
</svg>