<?xml version="1.0" encoding="UTF-8"?>
<svg width="349px" height="333px" viewBox="0 0 349 333" version="1.1" xmlns="http://www.w3.org/2000/svg" xmlns:xlink="http://www.w3.org/1999/xlink">
    <!-- Generator: Sketch 47.1 (45422) - http://www.bohemiancoding.com/sketch -->
    <title>parking-ill</title>
    <desc>Created with Sketch.</desc>
    <defs>
        <path d="M0.937922837,0.700612133 L0.937922837,129.890194 C4.32456469,135.441598 10.0412737,138.242829 18.0880498,138.293885 C26.1348259,138.344942 31.8515348,135.543712 35.2381767,129.890194 L35.2381767,0.247510782" id="path-1"></path>
        <path d="M0.941382584,1.67531768 C2.93561437,26.8685749 4.72963704,40.2081282 6.32345058,41.6939778 C8.7141709,43.9227521 17.9917451,48.4278994 29.5630142,48.0737821 C41.1342833,47.7196649 49.4525911,43.9854208 52.2466252,40.2885842 C54.1093146,37.8240264 55.217497,24.5742362 55.5711722,0.539213631 C44.6849346,6.08549809 36.4072801,8.91758852 30.7382087,9.03548491 C25.0691372,9.1533813 15.1368618,6.69999223 0.941382584,1.67531768 Z" id="path-3"></path>
    </defs>
    <g id="Illustration" stroke="none" stroke-width="1" fill="none" fill-rule="evenodd">
        <g id="Parking" transform="translate(-54.000000, -46.000000)">
            <g id="parking-ill" transform="translate(47.000000, 39.000000)">
                <g id="Foodi-Illust-Back" fill="#F6F9FC">
                    <rect id="Rectangle-6" transform="translate(162.000000, 71.000000) rotate(-21.000000) translate(-162.000000, -71.000000) " x="30" y="46" width="264" height="50" rx="25"></rect>
                    <rect id="Rectangle-6" transform="translate(181.500000, 112.000000) rotate(-21.000000) translate(-181.500000, -112.000000) " x="-3" y="87" width="369" height="50" rx="25"></rect>
                    <rect id="Rectangle-6" transform="translate(207.000000, 148.000000) rotate(-21.000000) translate(-207.000000, -148.000000) " x="57" y="123" width="300" height="50" rx="25"></rect>
                    <rect id="Rectangle-6" transform="translate(197.000000, 204.000000) rotate(-21.000000) translate(-197.000000, -204.000000) " x="47" y="179" width="300" height="50" rx="25"></rect>
                    <rect id="Rectangle-6" transform="translate(221.000000, 245.000000) rotate(-21.000000) translate(-221.000000, -245.000000) " x="97" y="220" width="248" height="50" rx="25"></rect>
                    <rect id="Rectangle-6" transform="translate(232.000000, 292.000000) rotate(-21.000000) translate(-232.000000, -292.000000) " x="145" y="267" width="174" height="50" rx="25"></rect>
                </g>
                <g id="Parking-Illust" transform="translate(134.000000, 17.000000)">
                    <path d="M15.2758831,90.0307489 C9.48610136,76.8056172 3.67558348,60.5633211 0.893930402,45.9632336 C-1.25057806,34.7073328 1.39521632,27.3910567 6.83347515,22.6677239 C18.1865881,8.25757038 42.0587299,0.544259737 58.6551429,0.761850468 C66.9888081,0.871110722 98.9735674,3.56628958 109.911972,18.6127317 C120.74332,33.511911 110.585417,60.7231716 107.445812,68.9702641 C95.9987691,99.0392801 86.7734644,113.742398 82.7826838,115.995277 C80.278453,117.408968 70.3489305,122.956573 60.9847198,123.428343 C47.1996278,124.122837 32.7475069,119.01014 29.5334191,115.995277 C26.8347105,113.463848 21.0656649,103.255881 15.2758831,90.0307489 Z M15.2758831,90.0307489 C9.48610136,76.8056172 3.67558348,60.5633211 0.893930402,45.9632336 C-0.827619412,36.9273196 1.74597151,29.1251342 6.83347515,22.6677239 C15.503204,15.1377376 31.2700003,14.1977343 46.0392292,14.3913693 C70.0727489,14.7064658 92.2802311,20.9403616 96.3581205,41.7076011 C100.43601,62.4748406 76.1705806,116.534801 69.9798617,120.029591 C63.7891429,123.524382 34.9308362,121.058136 29.5334191,115.995277 C26.8347105,113.463848 21.0656649,103.255881 15.2758831,90.0307489 Z" id="Combined-Shape" fill="#B2C9DC"></path>
                    <path d="M36.5884588,276.599687 C40.5243901,275.329133 103.512045,284.262504 105.345235,286.610401 C107.178424,288.958298 86.8009908,309.857668 82.7045117,311.544579 C78.6080326,313.231489 7.36305551,302.699515 6.06927214,299.912669 C4.77548877,297.125823 32.6525276,277.870241 36.5884588,276.599687 Z" id="Path-10" fill="#93AABC"></path>
                    <path d="M29.5334191,115.995277 C34.9308362,121.058136 63.7891429,123.524382 69.9798617,120.029591 C76.1705806,116.534801 100.43601,62.4748406 96.3581205,41.7076011 C92.2802311,20.9403616 70.0727489,14.7064658 46.0392292,14.3913693 C22.0057095,14.0762728 -4.66937576,16.7630586 0.893930402,45.9632336 C6.45723657,75.1634086 24.1360019,110.932418 29.5334191,115.995277 Z" id="Path-2" fill="#CCDEEC" style="mix-blend-mode: darken;"></path>
                    <g id="Path-4" transform="translate(40.000000, 158.000000)">
                        <g id="Path-5">
                            <mask id="mask-2" fill="white">
                                <use xlink:href="#path-1"></use>
                            </mask>
                            <use id="Mask" fill="#CCDEEC" xlink:href="#path-1"></use>
                            <polygon fill-opacity="0.05" fill="#000000" mask="url(#mask-2)" points="18.6127003 -1.92769264 18.6127003 140.56674 42.2004824 131.453279 42.2004824 -1.92769264"></polygon>
                            <polygon id="Path-4" fill-opacity="0.05" fill="#000000" mask="url(#mask-2)" points="5.95507434 0.364807474 5.95507434 137.80054 -4.21294794 127.589479 -4.21294794 -3.32224162"></polygon>
                        </g>
                    </g>
                    <g id="Path-11" transform="translate(29.000000, 114.000000)">
                        <mask id="mask-4" fill="white">
                            <use xlink:href="#path-3"></use>
                        </mask>
                        <use id="Mask" fill="#B2C9DC" xlink:href="#path-3"></use>
                        <polygon fill-opacity="0.05" fill="#000000" mask="url(#mask-4)" points="40.6207148 6.95554159 40.6207148 47.4858913 54.3428076 39.7491138 58.623806 -0.27079928"></polygon>
                    </g>
                    <g id="Group" transform="translate(21.000000, 34.000000)" fill-rule="nonzero" fill="#3D5AFE">
                        <path d="M26.0136169,52 C28.8207031,52 31.5577572,51.4428906 34.1199109,50.3704398 C34.6292495,50.157244 34.8815065,49.5401927 34.6833428,48.9922172 C34.4851791,48.4442416 33.9116351,48.1728491 33.4022965,48.3860449 C31.068018,49.3631131 28.5742273,49.8707079 26.0136169,49.8707079 C25.4670873,49.8707079 25.0240375,50.3473661 25.0240375,50.9353539 C25.0240375,51.5233417 25.4670873,52 26.0136169,52 Z M37.8184422,48.3787752 C37.9354549,48.3003953 38.051791,48.2208542 38.1674358,48.1401634 C38.6259736,47.8202199 38.756614,47.1609386 38.4592293,46.6676174 C38.1618445,46.1742962 37.5490481,46.0337459 37.0905103,46.3536894 C36.9850897,46.4272463 36.8790409,46.4997537 36.7723774,46.5712013 C36.3084238,46.8819765 36.1664847,47.5385487 36.4553475,48.0376964 C36.7442104,48.5368441 37.3544886,48.6895503 37.8184422,48.3787752 Z M44.1614993,42.0033676 C43.8417065,42.4801886 43.2231777,42.5878197 42.7799766,42.2437683 C42.3367755,41.899717 42.2367333,41.2342684 42.5565261,40.7574474 C43.294306,39.6573946 43.9360774,38.4861358 44.4726102,37.2583018 C44.7051323,36.726184 45.2945804,36.4976126 45.7891794,36.7477732 C46.2837783,36.9979339 46.4962335,37.6320958 46.2637113,38.1642135 C45.6749361,39.5116022 44.9708126,40.7966562 44.1614993,42.0033676 Z M46.4225587,37.7924827 C46.1985213,38.3287971 45.6127894,38.5681706 45.1142897,38.3271385 C44.61579,38.0861063 44.3932944,37.4559424 44.6173317,36.919628 C45.6462834,34.4564602 46.2449651,31.8009768 46.3729391,29.057203 C46.4003293,28.4699541 46.8650265,28.0177833 47.4108694,28.0472513 C47.9567123,28.0767192 48.3770012,28.576667 48.349611,29.1639159 C48.2092364,32.1735605 47.5520046,35.0887458 46.4225587,37.7924827 Z M48.1763135,24.6937877 C48.1578498,24.5465098 48.1381293,24.3995098 48.1171565,24.2528014 C48.034077,23.6716469 47.5288269,23.2729862 46.9886487,23.3623678 C46.4484706,23.4517494 46.0779188,23.9953263 46.1609983,24.5764809 C46.1801125,24.7101876 46.1980859,24.8441654 46.2149148,24.9784023 C46.2879674,25.5611138 46.7862623,25.9697816 47.3278876,25.8911874 C47.8695129,25.8125932 48.2493661,25.2764992 48.1763135,24.6937877 Z M45.3696109,15.878156 C45.6439448,16.3867026 45.4831456,17.0382226 45.0104559,17.3333666 C44.5377662,17.6285107 43.9321839,17.4555137 43.65785,16.9469671 C43.0250231,15.7738639 42.2920017,14.6659613 41.469211,13.6377214 C41.1126395,13.1921146 41.1593467,12.5198936 41.5735343,12.1362736 C41.987722,11.7526536 42.6125457,11.8029038 42.9691172,12.2485106 C43.8714342,13.3761344 44.6754046,14.5912707 45.3696109,15.878156 Z M42.6978037,11.9156594 C43.0618945,12.3541718 43.0266286,13.0271999 42.619035,13.4189095 C42.2114414,13.8106192 41.5858676,13.7726781 41.2217768,13.3341657 C39.5382961,11.3065748 37.5185679,9.62799042 35.2685714,8.39232357 C34.7817948,8.12499263 34.5886188,7.48373371 34.8371006,6.96003169 C35.0855825,6.43632967 35.6816272,6.22849986 36.1684038,6.4958308 C38.636808,7.85144418 40.8517624,9.6922799 42.6978037,11.9156594 Z M32.3291466,4.85103652 C32.1966553,4.80915197 32.0637639,4.76858604 31.9304863,4.72934536 C31.4033404,4.57413873 30.8590558,4.90807154 30.7147925,5.47520516 C30.5705293,6.04233878 30.880917,6.62791124 31.4080629,6.78311787 C31.5294581,6.81886006 31.6505009,6.85580913 31.7711788,6.89395908 C32.2955398,7.05972558 32.8455237,6.73678209 32.9996023,6.1726446 C33.1536808,5.60850711 32.8535076,5.01680302 32.3291466,4.85103652 Z M23.6962465,4.00568638 C24.2399,3.94544204 24.7260124,4.37075411 24.782009,4.95564749 C24.8380056,5.54054086 24.4426816,6.06352831 23.8990282,6.12377265 C22.6377017,6.26354512 21.3995726,6.52823333 20.1963789,6.91293192 C19.6724947,7.08043407 19.1215894,6.75931339 18.9658976,6.19568881 C18.8102058,5.63206423 19.1086847,5.03936891 19.632569,4.87186676 C20.9533701,4.4495654 22.3123528,4.159041 23.6962465,4.00568638 Z M19.2374062,5.0025338 C19.7582997,4.82456301 20.3146687,5.13458884 20.480091,5.69499586 C20.6455134,6.25540289 20.357347,6.85397638 19.8364534,7.03194717 C17.4247553,7.8559386 15.1822875,9.158636 13.2173362,10.8654835 C12.7921074,11.2348569 12.1690678,11.1634279 11.8257383,10.7059425 C11.4824089,10.248457 11.5488015,9.57815552 11.9740303,9.20878212 C14.129446,7.33648854 16.5901752,5.90699841 19.2374062,5.0025338 Z M8.99847191,12.3233564 C8.90880548,12.4363405 8.8201088,12.5502106 8.73239431,12.6649515 C8.38523397,13.1190784 8.44599027,13.7899984 8.8680973,14.1634933 C9.29020434,14.5369882 9.91381877,14.4716231 10.2609791,14.0174963 C10.3409696,13.9128592 10.4218566,13.8090153 10.5036287,13.7059785 C10.858509,13.2588119 10.8092556,12.5868012 10.393618,12.2050007 C9.97798048,11.8232001 9.35335228,11.8761898 8.99847191,12.3233564 Z M4.76301226,20.4202062 C4.93366572,19.8616177 5.4929051,19.5576284 6.01210839,19.7412271 C6.53131168,19.9248258 6.81386715,20.5264875 6.64321369,21.085076 C6.2510881,22.3685945 5.96979013,23.692439 5.8042276,25.0436847 C5.7328018,25.6266295 5.23564982,26.0369053 4.69380758,25.9600614 C4.15196534,25.8832174 3.77061748,25.348353 3.84204328,24.7654082 C4.02373423,23.2825296 4.33252997,21.8292751 4.76301226,20.4202062 Z M3.79055386,25.2187859 C3.85169351,24.6344889 4.34152577,24.2141459 4.88462484,24.2799234 C5.42772391,24.3457009 5.81842922,24.8726904 5.75728957,25.4569874 C5.67182455,26.2737562 5.62859124,27.0989214 5.62828166,27.92958 C5.62828001,29.8489914 5.85501121,31.7270044 6.2990246,33.5407888 C6.43821717,34.1093873 6.12261513,34.6917248 5.59410772,34.8414761 C5.06560031,34.9912274 4.52432253,34.6516847 4.38512995,34.0830863 C3.89785598,32.0925834 3.64912092,30.0323126 3.64912281,27.9291522 C3.64946203,27.0187248 3.69684695,26.1143204 3.79055386,25.2187859 Z M5.80876226,38.2671072 C5.86804915,38.4011252 5.92848787,38.5345372 5.99006954,38.6673274 C6.23406647,39.1934646 6.82831035,39.40718 7.31735038,39.1446742 C7.80639041,38.8821684 8.00503708,38.2428469 7.76104015,37.7167097 C7.704929,37.5957157 7.64986028,37.4741574 7.59584202,37.3520491 C7.36097225,36.8211261 6.77052125,36.5955707 6.2770328,36.848257 C5.78354436,37.1009433 5.57389249,37.7361841 5.80876226,38.2671072 Z M10.9690455,45.7423449 C10.5647598,45.3466873 10.5351501,44.6733438 10.9029105,44.2383901 C11.2706709,43.8034364 11.8965379,43.7715807 12.3008237,44.1672383 C13.2337738,45.0802777 14.2432194,45.8990267 15.3158254,46.6118809 C15.7807924,46.9208981 15.9248776,47.576929 15.6376488,48.0771669 C15.35042,48.5774049 14.7406448,48.73242 14.2756779,48.4234029 C13.0991569,47.6414867 11.9921047,46.7435703 10.9690455,45.7423449 Z M14.6411945,48.6611671 C14.170826,48.3617614 14.0151197,47.7088111 14.2934147,47.2027619 C14.5717098,46.6967126 15.1786215,46.5291949 15.64899,46.8286006 C17.8168775,48.2085354 20.2064752,49.1461652 22.7140771,49.585061 C23.2535149,49.6794767 23.6196732,50.2264888 23.5319146,50.8068467 C23.444156,51.3872046 22.9357129,51.7811386 22.3962752,51.6867229 C19.6437836,51.204965 17.0203562,50.1755852 14.6411945,48.6611671 Z" id="Oval"></path>
                        <path d="M25.9994902,57 C25.4596287,57 25.0219846,56.520305 25.0219846,55.9285712 C25.0219846,55.3368374 25.4596287,54.8571424 25.9994902,54.8571424 C27.9039871,54.8571424 29.7788019,54.6146725 31.5977572,54.1393514 C32.1229007,54.0021233 32.650107,54.3574953 32.7753055,54.933097 C32.900504,55.5086987 32.5762845,56.0865614 32.0511409,56.2237896 C30.0839311,56.7378518 28.0569611,57 25.9994902,57 Z M33.6129933,55.7584864 C33.0967285,55.9315188 32.5502391,55.6130611 32.392375,55.0471913 C32.2345109,54.4813215 32.5250521,53.8823229 33.0413168,53.7092905 C35.6896029,52.8216853 38.1709458,51.4369406 40.3835555,49.6237951 C40.8159371,49.2694756 41.428505,49.3664365 41.7517643,49.8403633 C42.0750235,50.31429 41.9865624,50.9857163 41.5541808,51.3400357 C39.1617611,53.3005284 36.4779571,54.798259 33.6129933,55.7584864 Z M45.9846533,46.7329864 C46.3314009,46.2768501 46.6651321,45.8089988 46.9853107,45.3301374 C47.3044337,44.8528547 47.2101375,44.1823832 46.7746942,43.8325974 C46.3392509,43.4828116 45.727554,43.5861682 45.408431,44.0634509 C45.1122352,44.5064434 44.80349,44.9392673 44.4826929,45.3612665 C44.1371083,45.815873 44.1931819,46.4914743 44.6079368,46.8702643 C45.0226917,47.2490542 45.6390687,47.1875928 45.9846533,46.7329864 Z M50.9340608,36.6061206 C50.7807572,37.1734948 50.2368521,37.4972242 49.7192148,37.3291905 C49.2015775,37.1611567 48.9062267,36.5649907 49.0595304,35.9976165 C49.5914096,34.0291406 49.9124194,31.9896941 50.0123561,29.9094927 C50.0407448,29.3185776 50.500797,28.8647711 51.0399115,28.8958874 C51.579026,28.9270038 51.9930511,29.4312599 51.9646625,30.022175 C51.8566325,32.2708376 51.5094313,34.4766843 50.9340608,36.6061206 Z M51.9999554,28.2252698 C52.0050571,28.8169772 51.5715682,29.3011839 51.0317309,29.3067758 C50.4918935,29.3123676 50.0501332,28.8372271 50.0450315,28.2455198 C50.0185763,25.1771708 49.5136009,22.1853104 48.563184,19.3657519 C48.3760842,18.8106914 48.6349306,18.194478 49.1413336,17.9894007 C49.6477366,17.7843235 50.2099318,18.068041 50.3970316,18.6231016 C51.4251532,21.6731831 51.9713658,24.909364 51.9999554,28.2252698 Z M47.6328548,12.6836504 C47.3319342,12.1901051 47.0170271,11.7069418 46.6886432,11.2348754 C46.3613104,10.7643198 45.7479334,10.6737115 45.3186275,11.032496 C44.8893216,11.3912805 44.8066562,12.0635935 45.1339891,12.5341491 C45.437766,12.970842 45.729064,13.4177818 46.0074109,13.8743033 C46.3073784,14.3662852 46.9144181,14.4985786 47.363272,14.1697889 C47.812126,13.8409991 47.9328223,13.1756323 47.6328548,12.6836504 Z M40.1495062,4.58585384 C40.6021837,4.90828433 40.7306828,5.57189341 40.4365171,6.06806622 C40.1423514,6.56423903 39.5369154,6.70508501 39.0842379,6.38265452 C37.5047827,5.25764934 35.8096737,4.33915175 34.0312795,3.64860763 C33.522406,3.45101387 33.2560222,2.83867185 33.4362945,2.28090346 C33.6165669,1.72313507 34.17523,1.43115585 34.6841035,1.62874961 C36.607979,2.37578358 38.4414696,3.36926351 40.1495062,4.58585384 Z M33.1545696,1.09293065 C33.6736702,1.25545061 33.9742852,1.848447 33.826012,2.41742515 C33.6777388,2.9864033 33.1367255,3.31590277 32.6176249,3.15338281 C30.4911269,2.48761904 28.2778278,2.14511901 26.0228673,2.14285716 C25.4701835,2.14284596 24.940054,2.16157955 24.4099441,2.19947412 C23.8712271,2.23798397 23.406029,1.79052427 23.370895,1.20004492 C23.335761,0.609565566 23.7439956,0.0996690747 24.2827126,0.0611592295 C24.8554022,0.020220869 25.4279729,-1.24988429e-05 26.0237798,5.7924972e-09 C28.461074,0.00244428204 30.854457,0.372811663 33.1545696,1.09293065 Z M18.2952041,1.27212882 C17.777245,1.44801701 17.2649015,1.64161204 16.7588121,1.85257111 C16.2542089,2.06291068 16.0007135,2.68179086 16.1926144,3.23487869 C16.3845152,3.78796651 16.9491434,4.06581887 17.4537466,3.85547929 C17.9215086,3.66049669 18.3950405,3.48156707 18.8737589,3.31900421 C19.389439,3.14388991 19.6779665,2.54372306 19.518203,1.97849403 C19.3584395,1.413265 18.8108842,1.09701453 18.2952041,1.27212882 Z M9.09848211,6.84113607 C9.50859043,6.45631587 10.1256605,6.50876007 10.4767468,6.95827346 C10.827833,7.40778685 10.7799861,8.08414786 10.3698778,8.46896806 C8.9379741,9.81257767 7.65315653,11.3361241 6.5440855,13.006267 C6.22638572,13.484689 5.61499995,13.5902339 5.17851716,13.2420081 C4.74203437,12.8937823 4.64574172,12.2236518 4.9634415,11.7452297 C6.16224448,9.93996008 7.55086254,8.29332624 9.09848211,6.84113607 Z M4.05851401,13.2001653 C4.34870988,12.7011919 4.95299907,12.5545481 5.40823168,12.8726273 C5.86346428,13.1907066 5.99725299,13.8530586 5.70705711,14.352032 C4.2238053,16.9023896 3.15010101,19.7154687 2.54045469,22.6818549 C2.42181553,23.2591234 1.89869384,23.6216748 1.37202969,23.4916363 C0.845365544,23.3615977 0.514595939,22.7882121 0.633235102,22.2109437 C1.29279646,19.0016833 2.45436959,15.95839 4.05851401,13.2001653 Z M8.44849081e-05,28.8781244 C0.00715578056,29.4737411 0.0309333189,30.0670806 0.0712800339,30.6575797 C0.111598204,31.247661 0.580704527,31.6901916 1.11905833,31.6459995 C1.65741214,31.6018074 2.06114979,31.0876272 2.02083162,30.4975459 C1.98348923,29.9510169 1.96147781,29.4017487 1.95493019,28.8502419 C1.94790559,28.2585582 1.50460391,27.7851455 0.964788171,27.7928451 C0.424972435,27.8005446 -0.00694011756,28.2864407 8.44849081e-05,28.8781244 Z M2.25517536,40.1317381 C2.03462411,39.591637 2.25528888,38.9578272 2.74804391,38.7160843 C3.24079894,38.4743415 3.81904793,38.7162088 4.03959918,39.25631 C4.80984962,41.1425526 5.78091892,42.9221932 6.93046042,44.5595197 C7.25970392,45.0284711 7.17977373,45.7011814 6.75193136,46.0620601 C6.32408898,46.4229388 5.71034962,46.3353286 5.38110613,45.8663771 C4.13829685,44.0962065 3.08824645,42.1718204 2.25517536,40.1317381 Z M6.4050788,47.2351327 C6.05003214,46.7893722 6.09189284,46.1125344 6.49857729,45.7233732 C6.90526174,45.334212 7.52276681,45.3800949 7.87781347,45.8258555 C9.69636165,48.1090399 11.8611469,50.0368398 14.2732708,51.5165413 C14.7443699,51.8055338 14.9125332,52.4584046 14.6488742,52.974769 C14.3852152,53.4911334 13.7895761,53.6754547 13.3184771,53.3864621 C10.7105403,51.7866406 8.37065135,49.702906 6.4050788,47.2351327 Z M18.9360323,55.9355417 C19.4570879,56.0963965 19.9832202,56.2394236 20.5138195,56.3643453 C21.0416421,56.4886131 21.5614349,56.1203543 21.6748092,55.5418162 C21.7881835,54.9632781 21.4522069,54.3935412 20.9243844,54.2692733 C20.4339319,54.1538037 19.9476317,54.0216048 19.4660361,53.8729317 C18.9463919,53.7125126 18.4064916,54.0441982 18.2601351,54.6137722 C18.1137786,55.1833463 18.4163881,55.7751226 18.9360323,55.9355417 Z" id="Oval"></path>
                    </g>
                    <g id="logo-icon" transform="translate(46.962438, 61.871477) rotate(5.000000) translate(-46.962438, -61.871477) translate(30.462438, 44.371477)">
                        <rect id="Rectangle-11" fill="#3D5AFE" x="0" y="0" width="33" height="35" rx="16.5"></rect>
                        <g transform="translate(3.666667, 10.000000)" id="Combined-Shape" fill="#FFFFFF">
                            <path d="M7.5,0 L18.1666667,0 L18.1666667,8.8817842e-16 C22.3088023,1.2728045e-16 25.6666667,3.35786438 25.6666667,7.5 L25.6666667,7.5 C25.6666667,11.6421356 22.3088023,15 18.1666667,15 L7.5,15 L7.5,15 C3.35786438,15 5.07265313e-16,11.6421356 0,7.5 L0,7.5 L0,7.5 C-5.07265313e-16,3.35786438 3.35786438,1.64907639e-15 7.5,8.8817842e-16 L7.5,0 Z M7.0042735,9.25862069 C7.86102292,9.25862069 8.55555556,8.49441707 8.55555556,7.55172414 C8.55555556,6.6090312 7.86102292,5.84482759 7.0042735,5.84482759 C6.14752408,5.84482759 5.45299145,6.6090312 5.45299145,7.55172414 C5.45299145,8.49441707 6.14752408,9.25862069 7.0042735,9.25862069 Z M18.6623932,9.25862069 C19.5191426,9.25862069 20.2136752,8.49441707 20.2136752,7.55172414 C20.2136752,6.6090312 19.5191426,5.84482759 18.6623932,5.84482759 C17.8056437,5.84482759 17.1111111,6.6090312 17.1111111,7.55172414 C17.1111111,8.49441707 17.8056437,9.25862069 18.6623932,9.25862069 Z M12.8333333,9.31034483 C13.6900828,9.31034483 14.3846154,8.54614121 14.3846154,7.60344828 C13.2907891,7.60344828 12.1463926,7.60344828 11.2820513,7.60344828 C11.2820513,8.54614121 11.9765839,9.31034483 12.8333333,9.31034483 Z"></path>
                        </g>
                    </g>
                </g>
            </g>
        </g>
    </g>
</svg>