<?xml version="1.0" encoding="UTF-8"?>
<svg width="35px" height="25px" viewBox="0 0 35 25" version="1.1" xmlns="http://www.w3.org/2000/svg" xmlns:xlink="http://www.w3.org/1999/xlink">
    <!-- Generator: Sketch 47.1 (45422) - http://www.bohemiancoding.com/sketch -->
    <title>pay-icon</title>
    <desc>Created with Sketch.</desc>
    <defs></defs>
    <g id="Website" stroke="none" stroke-width="1" fill="none" fill-rule="evenodd">
        <g id="Landing-Page" transform="translate(-1168.000000, -2793.000000)" fill-rule="nonzero" fill="#FFFFFF">
            <g id="pay-icon" transform="translate(1168.000000, 2793.000000)">
                <path d="M31.9238281,0 L3.07617188,0 C1.3799707,0 0,1.37772831 0,3.07117322 L0,21.6347091 C0,23.328154 1.3799707,24.7058824 3.07617188,24.7058824 L31.9238281,24.7058824 C33.6200293,24.7058824 35,23.328154 35,21.6347091 L35,3.07117322 C35,1.37772831 33.6200293,0 31.9238281,0 Z M5.46875,6.48358791 C5.46875,5.91821904 5.92785156,5.4598635 6.49414062,5.4598635 L11.9628906,5.4598635 C12.5291797,5.4598635 12.9882812,5.91821904 12.9882812,6.48358791 L12.9882812,11.9434514 C12.9882812,12.5088203 12.5291797,12.9671758 11.9628906,12.9671758 L6.49414062,12.9671758 C5.92785156,12.9671758 5.46875,12.5088203 5.46875,11.9434514 L5.46875,6.48358791 Z M9.22851562,18.4270393 L6.49414062,18.4270393 C5.92785156,18.4270393 5.46875,17.9686838 5.46875,17.4033149 C5.46875,16.8379461 5.92785156,16.3795905 6.49414062,16.3795905 L9.22851562,16.3795905 C9.79480469,16.3795905 10.2539062,16.8379461 10.2539062,17.4033149 C10.2539062,17.9686838 9.79480469,18.4270393 9.22851562,18.4270393 Z M15.6542969,18.4270393 L12.9199219,18.4270393 C12.3536328,18.4270393 11.8945313,17.9686838 11.8945313,17.4033149 C11.8945313,16.8379461 12.3536328,16.3795905 12.9199219,16.3795905 L15.6542969,16.3795905 C16.2205859,16.3795905 16.6796875,16.8379461 16.6796875,17.4033149 C16.6796875,17.9686838 16.2205859,18.4270393 15.6542969,18.4270393 Z M22.0800781,18.4270393 L19.3457031,18.4270393 C18.7794141,18.4270393 18.3203125,17.9686838 18.3203125,17.4033149 C18.3203125,16.8379461 18.7794141,16.3795905 19.3457031,16.3795905 L22.0800781,16.3795905 C22.6463672,16.3795905 23.1054688,16.8379461 23.1054688,17.4033149 C23.1054688,17.9686838 22.6463672,18.4270393 22.0800781,18.4270393 Z M28.5058594,18.4270393 L25.7714844,18.4270393 C25.2051953,18.4270393 24.7460937,17.9686838 24.7460937,17.4033149 C24.7460937,16.8379461 25.2051953,16.3795905 25.7714844,16.3795905 L28.5058594,16.3795905 C29.0721484,16.3795905 29.53125,16.8379461 29.53125,17.4033149 C29.53125,17.9686838 29.0721484,18.4270393 28.5058594,18.4270393 Z" id="Shape"></path>
            </g>
        </g>
    </g>
</svg>