<?xml version="1.0" encoding="UTF-8"?>
<svg width="29px" height="29px" viewBox="0 0 29 29" version="1.1" xmlns="http://www.w3.org/2000/svg" xmlns:xlink="http://www.w3.org/1999/xlink">
    <!-- Generator: Sketch 47.1 (45422) - http://www.bohemiancoding.com/sketch -->
    <title>scan-icon</title>
    <desc>Created with Sketch.</desc>
    <defs></defs>
    <g id="Website" stroke="none" stroke-width="1" fill="none" fill-rule="evenodd">
        <g id="Landing-Page" transform="translate(-244.000000, -2792.000000)" fill-rule="nonzero" fill="#FFFFFF">
            <g id="scan-icon" transform="translate(244.000000, 2792.000000)">
                <path d="M3.2222474,19.3333333 L0,19.3333333 L0,25.7777526 C0,27.5580807 1.44191927,29 3.2222474,29 L9.66666667,29 L9.66666667,25.7777526 L3.2222474,25.7777526 L3.2222474,19.3333333 Z" id="Shape"></path>
                <path d="M3.2222474,3.2222474 L9.66666667,3.2222474 L9.66666667,0 L3.2222474,0 C1.44191927,0 0,1.44191927 0,3.2222474 L0,9.66666667 L3.2222474,9.66666667 L3.2222474,3.2222474 Z" id="Shape"></path>
                <path d="M25.7777526,0 L19.3333333,0 L19.3333333,3.2222474 L25.7777526,3.2222474 L25.7777526,9.66666667 L29,9.66666667 L29,3.2222474 C29,1.44191927 27.5580807,0 25.7777526,0 Z" id="Shape"></path>
                <path d="M14.5,7.51851852 C10.9394054,7.51851852 8.05555556,10.4024438 8.05555556,13.962963 C8.05555556,17.5234821 10.9394809,20.4074074 14.5,20.4074074 C18.0605191,20.4074074 20.9444444,17.5234821 20.9444444,13.962963 C20.9444444,10.4024438 18.0605946,7.51851852 14.5,7.51851852 Z M14.5,17.1852229 C12.7197404,17.1852229 11.27774,15.743298 11.27774,13.962963 C11.27774,12.1826279 12.7196649,10.740703 14.5,10.740703 C16.2803351,10.740703 17.72226,12.1826279 17.72226,13.962963 C17.72226,15.743298 16.2802596,17.1852229 14.5,17.1852229 Z" id="Shape"></path>
                <path d="M25.7777526,25.7777526 L19.3333333,25.7777526 L19.3333333,29 L25.7777526,29 C27.5580807,29 29,27.5580807 29,25.7777526 L29,19.3333333 L25.7777526,19.3333333 L25.7777526,25.7777526 L25.7777526,25.7777526 Z" id="Shape"></path>
            </g>
        </g>
    </g>
</svg>