<?xml version="1.0" encoding="UTF-8"?>
<svg width="18px" height="18px" viewBox="0 0 18 18" version="1.1" xmlns="http://www.w3.org/2000/svg" xmlns:xlink="http://www.w3.org/1999/xlink">
    <!-- Generator: Sketch 47.1 (45422) - http://www.bohemiancoding.com/sketch -->
    <title>variety</title>
    <desc>Created with Sketch.</desc>
    <defs></defs>
    <g id="Website" stroke="none" stroke-width="1" fill="none" fill-rule="evenodd">
        <g id="variety" fill-rule="nonzero" fill="#FFFFFF">
            <path d="M6.92301378,0 L1.38467853,0 C1.00959118,0 0.685121675,0.162044131 0.411080583,0.485998066 C0.13703949,0.809459465 0,1.19327883 0,1.63633677 L0,6.54539186 C0,6.98853935 0.13703949,7.37213484 0.411080583,7.69582012 C0.685083788,8.01981883 1.00955329,8.18181818 1.38467853,8.18181818 L6.92301378,8.18181818 C7.29810113,8.18181818 7.62257063,8.0196845 7.89661172,7.69582012 C8.17065282,7.37213484 8.30769231,6.98853935 8.30769231,6.54539186 L8.30769231,1.63633677 C8.30769231,1.19327883 8.17065282,0.809593793 7.89661172,0.48595329 C7.62257063,0.161909803 7.29798747,0 6.92301378,0 Z" id="Shape"></path>
            <path d="M6.92301378,9.81818182 L1.38467853,9.81818182 C1.00959118,9.81818182 0.685121675,9.98031639 0.411080583,10.304093 C0.13703949,10.6278696 0,11.0114224 0,11.4545275 L0,16.3636095 C0,16.8067594 0.13703949,17.1904913 0.411080583,17.5140888 C0.685083788,17.8379998 1.00955329,18 1.38467853,18 L6.92301378,18 C7.29810113,18 7.62257063,17.8380445 7.89661172,17.5140888 C8.17065282,17.1904466 8.30769231,16.8067594 8.30769231,16.3636095 L8.30769231,11.4545275 C8.30769231,11.0114224 8.17065282,10.6278696 7.89661172,10.304093 C7.62257063,9.98004773 7.29798747,9.81818182 6.92301378,9.81818182 Z" id="Shape"></path>
            <path d="M17.5888436,0.485995406 C17.3151057,0.161908917 16.990333,0 16.6153594,0 L11.0769104,0 C10.7019746,0 10.3773915,0.162043244 10.1034641,0.485995406 C9.82938507,0.809455035 9.69230769,1.19331708 9.69230769,1.63637259 L9.69230769,6.54540081 C9.69230769,6.98854588 9.82934718,7.37213927 10.1034641,7.69582278 C10.3773915,8.01981971 10.7019746,8.18181818 11.0769104,8.18181818 L16.6153594,8.18181818 C16.990333,8.18181818 17.3151435,8.01968539 17.5888436,7.69582278 C17.8629226,7.37213927 18,6.98854588 18,6.54540081 L18,1.63632782 C18,1.1932723 17.8630363,0.809723689 17.5888436,0.485995406 Z" id="Shape"></path>
            <path d="M16.6153594,9.81818182 L11.0769104,9.81818182 C10.7019746,9.81818182 10.3773915,9.98031639 10.1034641,10.304093 C9.82938507,10.6278696 9.69230769,11.0114224 9.69230769,11.4545275 L9.69230769,16.3636095 C9.69230769,16.8067594 9.82934718,17.1904913 10.1034641,17.5140888 C10.3773915,17.8379998 10.7019746,18 11.0769104,18 L16.6153594,18 C16.990333,18 17.3151435,17.8380445 17.5888436,17.5140888 C17.8629226,17.1904466 18,16.8067594 18,16.3636095 L18,11.4545275 C18,11.0114224 17.8630742,10.6278696 17.5888436,10.304093 C17.3151057,9.98004773 16.9905983,9.81818182 16.6153594,9.81818182 Z" id="Shape"></path>
        </g>
    </g>
</svg>