<?xml version="1.0" encoding="UTF-8"?>
<svg width="420px" height="348px" viewBox="0 0 420 348" version="1.1" xmlns="http://www.w3.org/2000/svg" xmlns:xlink="http://www.w3.org/1999/xlink">
    <!-- Generator: Sketch 47.1 (45422) - http://www.bohemiancoding.com/sketch -->
    <title>what-foodi</title>
    <desc>Created with Sketch.</desc>
    <defs>
        <path d="M0.186791246,0 C-0.302640608,13.2827918 0.169737358,21.6148247 1.60392514,24.9960986 C3.33627653,29.0803298 6.14774352,31.5224718 8.62880927,33.1327358 C12.8632507,35.8809776 17.9765619,35.9011612 23.6763709,35.9130399 C27.70716,35.9214402 31.2747229,35.706432 34.3422725,34.6635643 C38.1540269,33.3676911 41.2158841,30.8578604 43.6949934,26.6643658 C46.0337624,22.7082613 46.7520691,13.8201394 45.8499135,0" id="path-1"></path>
        <path d="M35,0 L103,0 L103,-2.13162821e-14 C122.329966,-2.48671393e-14 138,15.6700338 138,35 L138,35 C138,54.3299662 122.329966,70 103,70 L35,70 C15.6700338,70 2.36723813e-15,54.3299662 0,35 C-2.36723813e-15,15.6700338 15.6700338,-3.55457016e-15 35,-7.10542736e-15 L35,0 Z M36.7258065,42.4242424 C41.0282828,42.4242424 44.516129,39.1002959 44.516129,35 C44.516129,30.8997041 41.0282828,27.5757576 36.7258065,27.5757576 C32.4233301,27.5757576 28.9354839,30.8997041 28.9354839,35 C28.9354839,39.1002959 32.4233301,42.4242424 36.7258065,42.4242424 Z M99.7903226,42.4242424 C104.092799,42.4242424 107.580645,39.1002959 107.580645,35 C107.580645,30.8997041 104.092799,27.5757576 99.7903226,27.5757576 C95.4878462,27.5757576 92,30.8997041 92,35 C92,39.1002959 95.4878462,42.4242424 99.7903226,42.4242424 Z M68.6290323,42.4242424 C72.9315086,42.4242424 76.4193548,38.9420127 76.4193548,34.6464646 C70.9263113,34.6464646 65.1793114,34.6464646 60.8387097,34.6464646 C60.8387097,38.9420127 64.3265559,42.4242424 68.6290323,42.4242424 Z" id="path-3"></path>
        <path d="M10,0 L63.9326841,0 L63.9326841,1.0658141e-14 C69.4555316,9.64361041e-15 73.9326841,4.4771525 73.9326841,10 L73.9326841,40.8971267 L73.9326841,40.8971267 C73.9326841,46.4199742 69.4555316,50.8971267 63.9326841,50.8971267 L10,50.8971267 L10,50.8971267 C4.4771525,50.8971267 -5.08379946e-14,46.4199742 -5.15143483e-14,40.8971267 L-5.68434189e-14,10 L-5.5067062e-14,10 C-5.57434158e-14,4.4771525 4.4771525,4.56724431e-15 10,3.55271368e-15 Z" id="path-5"></path>
    </defs>
    <g id="Website" stroke="none" stroke-width="1" fill="none" fill-rule="evenodd">
        <g id="Landing-Page" transform="translate(-833.000000, -921.000000)">
            <g id="what-foodi" transform="translate(826.000000, 914.000000)">
                <g id="Foodi-Illust-Back" fill="#F6F9FC">
                    <rect id="Rectangle-6" transform="translate(192.865277, 80.499199) rotate(-21.000000) translate(-192.865277, -80.499199) " x="33.3652768" y="55.4991986" width="319" height="50" rx="25"></rect>
                    <rect id="Rectangle-6" transform="translate(216.977126, 120.808286) rotate(-21.000000) translate(-216.977126, -120.808286) " x="-5.84023539" y="95.8082856" width="445.634723" height="50" rx="25"></rect>
                    <rect id="Rectangle-6" transform="translate(248.404046, 156.996930) rotate(-21.000000) translate(-248.404046, -156.996930) " x="66.9040461" y="131.99693" width="363" height="50" rx="25"></rect>
                    <rect id="Rectangle-6" transform="translate(235.404046, 213.191579) rotate(-21.000000) translate(-235.404046, -213.191579) " x="53.9040461" y="188.191579" width="363" height="50" rx="25"></rect>
                    <rect id="Rectangle-6" transform="translate(264.951472, 254.077510) rotate(-21.000000) translate(-264.951472, -254.077510) " x="114.999449" y="229.07751" width="299.904046" height="50" rx="25"></rect>
                    <rect id="Rectangle-6" transform="translate(277.985144, 300.968145) rotate(-21.000000) translate(-277.985144, -300.968145) " x="172.985144" y="275.968145" width="210" height="50" rx="25"></rect>
                </g>
                <g id="Foodi-Connect" transform="translate(112.000000, 50.000000)">
                    <g id="Path-9" transform="translate(92.000000, 221.000000)">
                        <mask id="mask-2" fill="white">
                            <use xlink:href="#path-1"></use>
                        </mask>
                        <use id="Mask" fill="#93AABC" xlink:href="#path-1"></use>
                        <path d="M41.5227648,0.824178034 C41.7710974,10.8866148 41.5797219,17.9885897 40.9486381,22.1301026 C40.3175543,26.2716155 38.6680083,31.2507634 36,37.0675462 L50.5789174,28.2843294 L49.0900897,0.824178034 L41.5227648,0.824178034 Z" fill="#000000" opacity="0.05" mask="url(#mask-2)"></path>
                    </g>
                    <rect id="Rectangle-7" fill="#B2C9DC" x="71" y="116" width="88" height="28"></rect>
                    <g id="Path-8" transform="translate(46.000000, 95.000000)">
                        <g id="Path-7">
                            <mask id="mask-4" fill="white">
                                <use xlink:href="#path-3"></use>
                            </mask>
                            <use id="Mask" fill="#CCDEEC" xlink:href="#path-3"></use>
                            <path d="M89,13 L89,13 L89,13 C89,16.7400266 92.0318906,19.7719172 95.7719172,19.7719172 L128.343085,19.7719172 C131.629553,24.6402769 133.174487,30.3135883 132.977889,36.7918511 C132.682991,46.5092455 131.023104,52.1497021 125.834727,57.9615647 C117.97961,66.7606275 106.517949,70.7741775 106.888909,70.7741775 C107.440682,70.7741775 130.838438,64.1329636 134.504897,55.5247196 C135.524657,53.1304931 136.837981,45.9555866 138.444871,34 C138.369806,29.1275107 137.890226,25.5704092 137.00613,23.3286955 C136.122034,21.0869818 134.019706,17.6440833 130.699147,13 L89,13 Z" fill-opacity="0.05" fill="#000000" mask="url(#mask-4)"></path>
                        </g>
                        <path d="M68.6339216,-2 L68.6339216,9.28074982 L68.6339216,9.28074982 C68.6339216,14.8035973 64.1567691,19.2807498 58.6339216,19.2807498 C58.6275143,19.2807498 58.621107,19.2807437 58.6146997,19.2807313 L18.5748936,19.203767 L18.5748936,19.203767 C14.3890422,19.195721 11,15.8001581 11,11.6142989 L11,11.6142989 L53.3851355,11.6142989 L61.2078739,-2 L68.6339216,-2 Z" fill-opacity="0.05" fill="#000000"></path>
                    </g>
                    <path d="M61,47 L97.2282276,47 L97.2282276,47 C104.051088,47 109.582108,52.5310208 109.582108,59.3538807 L109.582108,68.5106452 L109.582098,68.5106452 C109.582098,70.1674937 108.238957,71.5106348 106.582108,71.5106348 C106.567082,71.5106348 106.552055,71.5105219 106.53703,71.5102962 C100.130529,71.4140212 96.8419561,73.6793381 96.6713103,78.3062469 C96.4996723,82.9600597 99.7831377,85.2191168 106.521707,85.0834182 L106.521707,85.083417 C108.178226,85.0500587 109.548142,86.3658905 109.5815,88.0224095 C109.581906,88.0425405 109.582108,88.062675 109.582108,88.0828101 L109.582108,96.6600716 L109.582108,96.6600716 C109.582108,103.164493 104.309233,108.437368 97.8048123,108.437368 L61,108.437368 L61,108.437368 C52.7157288,108.437368 46,101.721639 46,93.4373676 L46,62 L46,62 C46,53.7157288 52.7157288,47 61,47 Z" id="Rectangle-3" fill="#3D5AFE"></path>
                    <rect id="Rectangle" fill="#75899A" x="103" y="243" width="23" height="3" rx="1.5"></rect>
                    <rect id="Rectangle" fill="#75899A" x="103" y="230" width="23" height="3" rx="1.5"></rect>
                    <path d="M134.040541,47 L171.055619,47 L171.055619,47 C179.339891,47 186.055619,53.7157288 186.055619,62 L186.055619,93.4373676 L186.055619,93.4373676 C186.055619,101.721639 179.339891,108.437368 171.055619,108.437368 L133.61347,108.437368 L133.61347,108.437368 C127.461041,108.437368 122.473511,103.449838 122.473511,97.2974085 L122.473511,87.1854646 L122.473494,87.1854646 C122.473494,86.6331895 122.025786,86.1854821 121.473511,86.1854821 C121.470176,86.1854821 121.466842,86.1854988 121.463507,86.1855321 C114.487836,86.2553225 111,83.594821 111,78.2040276 C111,72.8107036 114.491111,70.1147733 121.473333,70.1162365 L121.473333,70.1162049 C122.0256,70.1163207 122.473395,69.6687134 122.473511,69.1164461 C122.473511,69.1163763 122.473511,69.1163064 122.473511,69.1162365 L122.473511,58.5670297 L122.473511,58.5670297 C122.473511,52.1787356 127.652247,47 134.040541,47 Z" id="Rectangle-3" fill="#47D6DF"></path>
                    <rect id="Rectangle-4" fill="#B2C9DC" x="100" y="164" width="29" height="8"></rect>
                    <g id="Group-2" transform="translate(138.000000, 73.000000)">
                        <path d="M3.55271368e-14,127.780116 C98.9021456,103.838571 116.843818,69.4956592 53.8250172,24.7513812" id="Path-3" stroke="#B2C9DC" stroke-width="8"></path>
                        <rect id="Rectangle-2" fill="#CCDEEC" transform="translate(43.431951, 18.501271) rotate(29.000000) translate(-43.431951, -18.501271) " x="25.8190478" y="7.18635392" width="35.2258065" height="22.6298343" rx="11.3149171"></rect>
                    </g>
                    <g id="Group-2" transform="translate(45.500000, 137.000000) scale(-1, 1) translate(-45.500000, -137.000000) translate(0.000000, 73.000000)">
                        <path d="M3.55271368e-14,127.780116 C98.9021456,103.838571 116.843818,69.4956592 53.8250172,24.7513812" id="Path-3" stroke="#B2C9DC" stroke-width="8"></path>
                        <rect id="Rectangle-2" fill="#CCDEEC" transform="translate(43.431951, 18.501271) rotate(29.000000) translate(-43.431951, -18.501271) " x="25.8190478" y="7.18635392" width="35.2258065" height="22.6298343" rx="11.3149171"></rect>
                    </g>
                    <path d="M135.5,0 L163.5,0 C171.508129,-1.47106941e-15 178,6.49187113 178,14.5 L178,14.5 C178,22.5081289 171.508129,29 163.5,29 L135.5,29 C127.491871,29 121,22.5081289 121,14.5 L121,14.5 L121,14.5 C121,6.49187113 127.491871,1.47106941e-15 135.5,0 L135.5,0 Z M136.175325,17.6829268 C138.015078,17.6829268 139.506494,16.2578819 139.506494,14.5 C139.506494,12.7421181 138.015078,11.3170732 136.175325,11.3170732 C134.335571,11.3170732 132.844156,12.7421181 132.844156,14.5 C132.844156,16.2578819 134.335571,17.6829268 136.175325,17.6829268 Z M162.084416,17.6829268 C163.924169,17.6829268 165.415584,16.2578819 165.415584,14.5 C165.415584,12.7421181 163.924169,11.3170732 162.084416,11.3170732 C160.244662,11.3170732 158.753247,12.7421181 158.753247,14.5 C158.753247,16.2578819 160.244662,17.6829268 162.084416,17.6829268 Z M149.12987,17.6829268 C150.969624,17.6829268 152.461039,16.2578819 152.461039,14.5 C152.461039,12.7421181 150.969624,11.3170732 149.12987,11.3170732 C147.290116,11.3170732 145.798701,12.7421181 145.798701,14.5 C145.798701,16.2578819 147.290116,17.6829268 149.12987,17.6829268 Z" id="Combined-Shape" fill="#3D5AFE"></path>
                    <circle id="Oval-9" fill="#93AABC" cx="81" cy="196" r="11"></circle>
                    <circle id="Oval-9" fill="#93AABC" cx="149" cy="196" r="11"></circle>
                    <ellipse id="Oval-2" fill="#3D5AFE" cx="120.5" cy="36" rx="4.5" ry="4"></ellipse>
                    <g id="Path-6" transform="translate(78.000000, 171.000000)">
                        <mask id="mask-6" fill="white">
                            <use xlink:href="#path-5"></use>
                        </mask>
                        <use id="Mask" fill="#CCDEEC" xlink:href="#path-5"></use>
                        <path d="M66.0753992,0.350097876 C66.8220134,2.00552974 67.6353733,4.06226842 68.5154792,6.52031391 C70.0704191,10.8631021 69.2826401,17.9318781 69.2826401,25.620697 C69.2826401,31.4710523 69.5167969,40.4218999 68.5154792,44.3350521 C67.5608513,48.0657402 64.8600913,50.3245556 60.4131993,51.1114982 L69.2826401,49.7163649 L74.1452721,44.3350521 L74.1452721,1.1271775 L66.0753992,0.350097876 Z" fill="#000000" opacity="0.05" mask="url(#mask-6)"></path>
                    </g>
                    <g id="Group" transform="translate(89.000000, 183.000000)">
                        <circle id="Oval" fill="#3D5AFE" cx="5" cy="5" r="5"></circle>
                        <circle id="Oval" fill="#47D6DF" cx="5" cy="24.097561" r="5"></circle>
                    </g>
                    <circle id="Oval-7" fill="#93AABC" cx="82.9714271" cy="129.971427" r="7.97142712"></circle>
                    <circle id="Oval-7" fill="#93AABC" cx="146" cy="130" r="8"></circle>
                </g>
            </g>
        </g>
    </g>
</svg>