<?xml version="1.0" encoding="UTF-8"?>
<svg width="165px" height="60px" viewBox="0 0 165 60" version="1.1" xmlns="http://www.w3.org/2000/svg" xmlns:xlink="http://www.w3.org/1999/xlink">
    <!-- Generator: Sketch 47.1 (45422) - http://www.bohemiancoding.com/sketch -->
    <title>Pickles_Logo</title>
    <desc>Created with Sketch.</desc>
    <defs></defs>
    <g id="Website" stroke="none" stroke-width="1" fill="none" fill-rule="evenodd">
        <g id="Desktop-HD" transform="translate(-1054.000000, -763.000000)" fill-rule="nonzero" fill="#FFFFFF">
            <g id="Pickles_Logo" transform="translate(1136.083333, 793.000000) scale(1, -1) translate(-1136.083333, -793.000000) translate(1054.000000, 763.000000)">
                <g id="g20" transform="translate(16.666667, 27.500000)">
                    <path d="M7.98771101,6.95473234 C10.9753812,6.95473234 12.0207063,7.74997923 12.0207063,8.4730039 C12.0207063,10.353189 6.56909354,8.61771583 6.56909354,14.7632918 C6.56909354,24.4517689 16.0537016,30.0190322 24.1196922,30.0190322 C29.2725646,30.0190322 36.8904445,26.3316866 36.8904445,18.667839 C36.29323,6.66504099 26.5093491,2.39965015 21.878873,2.39965015 C21.2068402,2.39965015 20.6841777,2.6165843 20.2358008,2.6165843 C19.7876902,2.6165843 19.4143979,2.39965015 19.4143979,1.82106991 C19.4143979,1.24302466 20.7587296,0.013641975 24.5675365,0.013641975 C33.2310079,0.013641975 43.313363,8.61771583 43.313363,18.306193 C43.313363,27.633024 35.546379,32.4050403 24.8662769,32.4050403 C12.6927391,32.4050403 0.145908855,25.3917278 0.145908855,14.7632918 C0.145908855,9.62989688 3.95498198,6.95473234 7.98771101,6.95473234" id="path22"></path>
                </g>
                <g id="g24" transform="translate(60.833333, 36.666667)">
                    <path d="M2.71604931,0 C4.79728383,0 6.56320971,2.11727593 6.56320971,4.02322571 C6.56320971,5.7169891 5.4279011,6.63455181 4.04024681,6.63455181 C2.08518513,6.63455181 0.130123454,4.65835114 0.130123454,2.61161284 C0.130123454,1.1291756 1.26543207,0 2.71604931,0" id="path26"></path>
                </g>
                <g id="g28">
                    <path d="M142.076343,14.7282171 C140.978675,14.7282171 140.361489,15.3213625 140.361489,15.9153114 C140.361489,16.3767062 140.841433,16.9034408 142.076343,16.9034408 C143.174279,16.9034408 144.203459,16.6402074 145.300858,16.3767062 C144.409457,15.4531131 143.243034,14.7282171 142.076343,14.7282171 L142.076343,14.7282171 Z M143.722978,32.3273653 C143.722978,33.5136562 144.957887,34.6340719 145.643829,34.6340719 C145.986531,34.6340719 146.123773,34.3705707 146.123773,33.9091758 C146.055555,32.9866539 145.300858,31.6683445 144.340701,30.3497674 C143.86022,31.2069497 143.722978,31.6024692 143.722978,32.3273653 L143.722978,32.3273653 Z M93.0264326,34.1070695 C94.8103098,42.4121772 97.3483466,48.6738117 98.4460139,48.6738117 C98.7202293,48.6738117 98.9262266,48.1465416 98.9262266,46.9602506 C98.9262266,42.6098031 96.1821926,36.4799192 92.3402226,30.9429129 L93.0264326,34.1070695 Z M111.00003,30.0862662 C112.372181,38.3913739 115.870912,48.4761858 117.174308,48.4761858 C117.448792,48.4761858 117.585765,48.014791 117.585765,46.9602506 C117.585765,45.9057103 115.322213,33.3819056 110.520086,25.0765301 C110.520086,26.5271256 110.726083,28.306562 111.00003,30.0862662 L111.00003,30.0862662 Z M160.667126,24.7474214 C159.021297,24.7474214 156.963473,23.6931489 154.768138,21.1224055 C153.052479,19.2104152 151.95508,18.6836806 150.171471,18.6172697 C150.308445,19.0789324 150.377469,19.9358468 150.377469,20.2652233 C150.377469,23.3632368 147.770677,26.1316061 145.780534,28.5041879 C147.358682,30.4159105 149.622503,33.3160303 149.622503,35.3597713 C149.622503,36.8098312 148.730565,37.4029767 147.496461,37.4029767 C144.546161,37.4029767 139.949763,34.0411942 139.949763,30.1524093 C139.949763,28.7676891 140.567218,27.4496476 141.321915,26.3951073 C139.881277,24.6154031 138.166155,22.5060546 136.931514,21.1224055 C136.929634,21.1207988 136.928828,21.1191921 136.927217,21.1170498 C133.703776,17.4952474 130.070489,15.9153114 127.190824,15.9153114 C124.240525,15.9153114 122.182432,17.5629972 122.182432,20.5948676 C122.182432,25.0765301 125.543652,30.1524093 128.493952,30.1524093 C129.454109,30.1524093 130.071832,29.5592638 130.071832,28.306562 C130.071832,26.5271256 128.630925,23.5603271 124.309011,20.2652233 C123.62307,19.7379531 123.348317,19.2768261 123.348317,18.8810387 C123.348317,18.419376 123.760312,18.0899995 124.309011,18.0899995 C124.515008,18.0899995 124.789492,18.1561426 125.063171,18.2878932 C129.865566,20.3969739 135.010932,24.879172 135.010932,28.4385804 C135.010932,30.4823214 133.364297,32.4593837 129.93459,32.4593837 C122.319405,32.4593837 117.174308,25.6699434 117.174308,19.6720778 C117.174308,19.504444 117.181828,19.3400235 117.19284,19.176942 C115.382642,17.3752793 113.765819,16.1788125 112.57791,16.1788125 C111.548998,16.1788125 110.726083,17.5629972 110.520086,21.451782 C116.282369,28.9002431 122.593889,44.4553826 122.593889,52.4969891 C122.593889,54.6719451 121.976435,55.6606101 121.015741,55.6606101 C116.899555,55.6606101 105.648935,37.0730646 105.648935,20.9903872 C105.648935,20.8350714 105.651621,20.6802912 105.655381,20.5265822 C102.330687,16.929416 100.180473,15.9153114 99.2689287,15.9153114 C97.9655327,15.9153114 97.2793227,16.8378333 96.7988415,18.8151634 C96.7308919,19.1442721 96.5939185,19.6720778 96.5939185,19.8699715 C96.5939185,20.0678652 96.7308919,20.1334727 97.1423493,20.3969739 C97.1423493,20.3969739 105.099699,25.0109226 105.099699,30.2844277 C105.099699,31.272825 104.139811,32.3935084 102.21896,32.3935084 C99.8861147,32.3935084 95.9761953,30.5476611 90.7620741,24.2860266 L91.1058505,25.6699434 C97.6222934,32.9205108 103.933813,43.4667175 103.933813,52.4969891 C103.933813,54.6719451 103.316359,55.6606101 102.355933,55.6606101 C99.337684,55.5950026 92.3402226,45.7078166 88.978734,34.0411942 L85.1885991,21.0297517 C81.986107,17.4722178 78.3890778,15.9153114 75.5333164,15.9153114 C72.5832852,15.9153114 70.5254611,17.5629972 70.5254611,20.5948676 C70.5254611,24.7474214 73.5437105,30.0862662 77.0424412,30.0862662 C78.414861,30.0862662 78.8260498,29.0319937 78.8260498,28.1086684 C78.8260498,26.1972136 77.5911405,26.065463 77.2484384,26.065463 L76.9054677,26.065463 C76.2195264,26.065463 75.8078004,25.4723175 75.8078004,25.0109226 C75.8078004,24.154276 76.7682258,23.1653431 78.414861,23.1653431 C81.0901398,23.1653431 83.5594212,25.6699434 83.5594212,28.3729729 C83.5594212,30.745287 81.2955999,32.4593837 78.2773505,32.4593837 C71.0056738,32.4593837 65.5173371,26.0001233 65.5173371,19.6720778 C65.5173371,19.5122097 65.5240515,19.3547517 65.5334517,19.1989004 C63.102845,16.833281 61.2021375,15.7171499 60.372777,15.7171499 C59.8922957,15.7171499 59.6862984,16.0465264 59.6862984,16.5743321 C59.6862984,16.9034408 59.823809,17.4304432 59.9607824,17.8926414 C61.0587183,21.451782 62.7048164,24.9450473 64.0082124,27.6475413 C64.7631777,29.2298874 65.5173371,30.6138042 65.5173371,31.4704509 C65.5173371,32.0635963 65.1058798,32.4593837 64.145723,32.4593837 C60.6467238,32.4593837 57.0110197,30.0206587 57.0110197,28.7023494 C57.0110197,28.2406867 57.4915009,28.0433286 57.971445,28.0433286 C58.1771737,28.0433286 58.383171,28.1086684 58.5888997,28.1086684 C58.794897,28.1086684 58.9316018,28.0433286 58.9316018,27.8451672 C58.9316018,27.6475413 58.794897,27.3837723 58.5888997,26.922913 C57.8342031,25.4064422 56.1193497,22.2425534 55.090169,18.8151634 C54.8156851,17.958249 54.6784431,17.1010667 54.6784431,16.3767062 C54.6784431,14.1350716 55.8445971,12.6852795 58.383171,12.6852795 C60.3077817,12.6852795 63.1138566,14.0866024 66.0947741,16.846938 C67.2284305,14.2874417 69.9340582,12.6852795 73.3379818,12.6852795 C77.002692,12.6852795 80.882531,14.3642962 84.0095535,16.9810987 L83.353424,14.7282171 C83.2849372,14.3991084 83.216182,14.1350716 83.216182,13.8718382 C83.216182,13.0143882 83.7651499,12.6852795 84.5193094,12.6852795 C85.8917293,12.6852795 88.0870639,14.003321 88.6354947,16.0465264 L89.3214361,18.5511266 C89.9394279,20.726886 94.1235627,26.2633567 97.8282907,28.1086684 C98.1027746,28.2406867 98.3772586,28.306562 98.5829873,28.306562 C99.0632,28.306562 99.2689287,27.97665 99.2689287,27.5160585 C99.2689287,25.8022296 96.6621366,23.4949874 93.9181026,21.3859067 C92.75168,20.5289923 92.2032492,20.0678652 92.2032492,18.8810387 C92.2032492,17.4968541 93.3003794,12.6852795 97.1423493,12.6852795 C99.3371468,12.6852795 102.668018,14.5619221 105.934431,17.8468501 C106.514822,14.8808549 107.994135,12.6852795 110.520086,12.6852795 C112.414348,12.6852795 114.760353,13.8592523 117.780214,16.8070379 C118.940191,14.2703034 121.66059,12.6852795 124.995221,12.6852795 C129.543007,12.6852795 134.355877,15.2678054 137.779675,19.0251074 C137.800624,19.0446558 137.819155,19.0663464 137.838761,19.0875015 C137.856219,19.1070499 137.874482,19.1249915 137.892208,19.1442721 C137.897579,19.1515023 137.901877,19.156858 137.907517,19.1632849 L142.625579,24.6812784 C144.271677,22.7700914 145.986531,20.9903872 146.123773,18.9471818 C145.4381,19.0130571 144.477137,19.0789324 143.722978,19.0789324 C139.058093,19.0789324 136.520057,17.4304432 136.520057,15.6510068 C136.520057,14.003321 138.783341,12.6852795 141.253697,12.6852795 C143.997193,12.6852795 146.809983,13.4765864 148.662347,15.5851315 C148.662347,15.5851315 149.074341,15.5197918 149.28007,15.5197918 C151.200383,15.5197918 153.190258,16.2441523 155.728832,19.1442721 C157.168664,20.8583688 158.129089,21.5840682 158.815568,21.5840682 C159.227294,21.5840682 159.501778,21.1882808 159.501778,20.7927613 C159.501778,20.3313664 159.296049,19.7379531 158.952541,19.0789324 C156.963473,14.7282171 152.984529,8.00518765 133.227055,8.00518765 C131.92339,8.00518765 130.551239,8.07133073 129.111138,8.13693825 C105.786177,9.05972799 37.59571,10.312162 28.197454,10.312162 C26.8344342,10.312162 25.5388269,10.2856512 24.3049919,10.237182 C27.0962952,12.1786288 29.7925228,15.4881931 31.6773843,20.7670538 C35.3689521,31.117777 42.6763493,51.6015135 42.6763493,51.6015135 C42.8272886,51.9635599 42.9024897,52.3256062 42.9024897,52.6148148 C42.9024897,53.4835119 42.2246056,53.9178604 41.3205811,53.9178604 C39.5874646,53.9178604 36.9511293,52.3979084 36.1225744,50.2264336 C36.1225744,50.2264336 25.1988105,19.8255191 23.9182434,16.1343601 C22.6376763,12.5880732 19.6997309,10.7781092 18.1172852,10.1265865 C17.5916833,9.91610687 16.8635756,9.77846498 16.3449566,9.51469601 C4.9562889,7.79658254 1.61010903,3.80898472 0.756308093,2.73248594 C0.276095426,2.13934047 0.0016114519,1.47978414 0.0016114519,1.01865705 C0.0016114519,0.490851307 0.276095426,0.161742602 0.688089962,0.161742602 C1.03079207,0.161742602 1.37376275,0.293760984 1.85397541,0.622869689 C4.11752819,2.2046802 10.5665587,4.24842116 25.4531514,4.24842116 C49.258056,4.24842116 102.492907,4.18201029 124.583227,3.78702628 L126.709806,3.78702628 C147.496461,3.78702628 159.569996,10.2468223 163.206237,18.3540363 C163.754937,19.5400595 164.029152,20.5948676 164.029152,21.5840682 C164.029152,23.4949874 162.931753,24.7474214 160.667126,24.7474214 L160.667126,24.7474214 Z" id="path30"></path>
                </g>
                <g id="g32" transform="translate(150.833333, 31.666667)">
                    <polygon id="path34" points="1.66666667 2.5 1.66666667 2.21694444 0.98047619 2.21694444 0.98047619 0.124722222 0.701904762 0.124722222 0.701904762 2.21694444 0.015952381 2.21694444 0.015952381 2.5"></polygon>
                </g>
                <g id="g36" transform="translate(153.333333, 31.666667)">
                    <path d="M0,2.5 L0.460833333,2.5 L1.14388889,0.491666667 L1.82222222,2.5 L2.28,2.5 L2.28,0.124722222 L1.97277778,0.124722222 L1.97277778,1.52666667 C1.97277778,1.575 1.97361111,1.65527778 1.97583333,1.7675 C1.97805556,1.87972222 1.97916667,1.99972222 1.97916667,2.12805556 L1.30111111,0.124722222 L0.982222222,0.124722222 L0.2975,2.12805556 L0.2975,2.05527778 C0.2975,1.99694444 0.299166667,1.90833333 0.3025,1.78916667 C0.305833333,1.67027778 0.307222222,1.5825 0.307222222,1.52666667 L0.307222222,0.124722222 L0,0.124722222 L0,2.5 Z" id="path38"></path>
                </g>
            </g>
        </g>
    </g>
</svg>