<?xml version="1.0" encoding="UTF-8"?>
<svg width="354px" height="350px" viewBox="0 0 354 350" version="1.1" xmlns="http://www.w3.org/2000/svg" xmlns:xlink="http://www.w3.org/1999/xlink">
    <!-- Generator: Sketch 47.1 (45422) - http://www.bohemiancoding.com/sketch -->
    <title>salesChannel</title>
    <desc>Created with Sketch.</desc>
    <defs>
        <linearGradient x1="180.39724%" y1="193.470388%" x2="34.0829741%" y2="42.4805277%" id="linearGradient-1">
            <stop stop-color="#7093FF" offset="0%"></stop>
            <stop stop-color="#3D5AFE" offset="100%"></stop>
        </linearGradient>
        <linearGradient x1="109.036314%" y1="-21.9509922%" x2="53.0622583%" y2="96.5482259%" id="linearGradient-2">
            <stop stop-color="#7093FF" offset="0%"></stop>
            <stop stop-color="#3D5AFE" offset="100%"></stop>
        </linearGradient>
        <linearGradient x1="110.809344%" y1="109.396245%" x2="-19.8475796%" y2="-11.6417221%" id="linearGradient-3">
            <stop stop-color="#7093FF" offset="0%"></stop>
            <stop stop-color="#3D5AFE" offset="100%"></stop>
        </linearGradient>
    </defs>
    <g id="Website" stroke="none" stroke-width="1" fill="none" fill-rule="evenodd">
        <g id="salesChannel" fill-rule="nonzero">
            <g id="layers">
                <g id="Group" transform="translate(177.000000, 240.000000)" fill="#E2E7EC">
                    <polygon id="Shape" points="177 0.796521173 176.982023 7.0605342 0.567644531 109.455153 0.585621094 103.19114"></polygon>
                </g>
                <polygon id="Shape" fill="#EBF2FA" points="178 343.716188 177.981981 350 0 247.283812 0.0180185091 241"></polygon>
                <polygon id="Shape" fill="#F6F9FC" points="354 240.498963 177.576662 343 0 240.501037 176.422646 138"></polygon>
                <g id="Group" transform="translate(177.000000, 171.000000)" fill="#C4D5E6">
                    <polygon id="Shape" points="177 0.371545752 176.982023 6.62638562 0.567644531 108.871056 0.585621094 102.615526"></polygon>
                </g>
                <polygon id="Shape" fill="#D0E1F2" points="178 273.715535 177.981981 280 0 177.284465 0.0180185091 171"></polygon>
                <polygon id="Shape" fill="#E2E7EC" points="354 171.499309 177.576662 274 0 171.500691 176.422646 69"></polygon>
                <polygon id="Shape" fill="url(#linearGradient-1)" points="354 102 353.982067 108.283732 178 211 178.017933 204.716268"></polygon>
                <polygon id="Shape" fill="url(#linearGradient-2)" points="178 204.716188 177.981981 211 0 108.283812 0.0180185091 102"></polygon>
                <polygon id="Shape" fill="url(#linearGradient-3)" points="354 102.499309 177.576662 205 0 102.500691 176.422646 0"></polygon>
            </g>
            <g id="money" transform="translate(135.000000, 78.000000)">
                <path d="M14,30 L14.084,18.122334 C14.084,18.0764588 14.092,18.0354125 14.11,18 L14.026,29.8768612 C14.01,29.9130785 14.002,29.9541247 14,30 Z" id="Shape" fill="#D2EDDA"></path>
                <path d="M59.684993,35.6734397 C58.6830497,37.1449631 56.9217388,38.5921185 54.3880797,40.0180499 C51.4422852,41.6774442 48.4169843,42.795236 45.3113656,43.3785002 C42.2008792,43.9594061 39.1228444,44.1323415 36.0553564,43.9004508 C32.9984152,43.667774 30.0039432,43.1104502 27.0719407,42.2214048 C24.1399381,41.3323593 21.3701936,40.2216421 18.7683861,38.8845366 L9.77848006,43.9468289 L4.39232482,40.9338217 L13.4649825,35.8259373 C10.186559,33.6461645 7.36326931,31.2557249 4.98781178,28.6522603 C2.61235425,26.0495817 0.955699785,23.4358982 0,20.8167121 L16.7020301,17.7219536 C16.6509188,17.9805707 16.7888382,18.5347502 17.1028074,19.3782036 C17.417588,20.2208709 17.9546621,21.2207522 18.7091619,22.3676287 C19.4693408,23.5184355 20.4339648,24.7509937 21.6111467,26.0763081 C22.7867062,27.4008364 24.17888,28.6561906 25.7933474,29.8533756 L36.1056564,24.0474608 L33.4438134,21.3425931 C31.6687106,19.4803927 30.2976303,17.7722621 29.3305724,16.2182012 C28.3635146,14.6578518 27.8588921,13.205194 27.8337421,11.8507949 C27.7964228,10.4963959 28.2564243,9.21824571 29.2080676,8.01162789 C30.1588997,6.80501007 31.6719558,5.61804401 33.7383118,4.45387398 C36.4228708,2.94226091 39.2794234,1.85984219 42.3071582,1.20111533 C45.334893,0.548677028 48.3885891,0.243681775 51.4796045,0.286129568 C54.5584506,0.328577361 57.6105241,0.715323919 60.6171654,1.44322496 C63.630297,2.16798172 66.5095657,3.15843023 69.2687634,4.40670977 L77.0952794,0 L82.4814347,3.01300723 L74.6549187,7.419717 C77.7167277,9.48550959 80.1473529,11.6817898 81.9257009,14.0093438 C83.6918796,16.3368978 85.0597147,18.4616457 86,20.3796571 L69.8455907,23.1733507 C69.891023,22.9705446 69.7774424,22.527987 69.4870005,21.8417477 C69.1973699,21.1570805 68.7357458,20.3372093 68.1110524,19.3789896 C67.486359,18.4144815 66.697785,17.3988787 65.7623675,16.3203903 C64.8212709,15.2450462 63.7284631,14.2412345 62.4733972,13.3105274 L51.933927,19.2445716 L53.8136863,20.9888615 C55.7405004,22.8840768 57.3460435,24.6645259 58.6295045,26.3357113 C59.9072865,28.011613 60.6520509,29.6175545 60.8719105,31.1590383 C61.0869024,32.6997359 60.6926154,34.2050604 59.684993,35.6734397 Z M29.3029886,31.9851981 C33.4632844,34.1421748 36.8301385,34.4904039 39.4157202,33.0338158 C40.7608392,32.2768301 41.2581601,31.3846404 40.9190408,30.3517441 C40.5742425,29.3157036 39.8018943,28.1193046 38.6019962,26.7483981 L29.3029886,31.9851981 L29.3029886,31.9851981 Z M49.355647,16.5821517 L58.8874948,11.2140781 C54.934078,9.35502193 51.6142787,9.17815613 48.9297196,10.6889831 C47.6373344,11.4168842 47.0686201,12.2493326 47.2325007,13.1776815 C47.3907022,14.1099608 48.0981472,15.2442602 49.355647,16.5821517 L49.355647,16.5821517 Z" id="Shape" fill="#FFFFFF"></path>
            </g>
        </g>
    </g>
</svg>