<?xml version="1.0" encoding="UTF-8"?>
<svg width="288px" height="401px" viewBox="0 0 288 401" version="1.1" xmlns="http://www.w3.org/2000/svg" xmlns:xlink="http://www.w3.org/1999/xlink">
    <!-- Generator: Sketch 47.1 (45422) - http://www.bohemiancoding.com/sketch -->
    <title>fanExperience</title>
    <desc>Created with Sketch.</desc>
    <defs>
        <linearGradient x1="110.809344%" y1="109.396245%" x2="-19.8475796%" y2="-11.6417221%" id="linearGradient-1">
            <stop stop-color="#7093FF" offset="0%"></stop>
            <stop stop-color="#3D5AFE" offset="100%"></stop>
        </linearGradient>
    </defs>
    <g id="Website" stroke="none" stroke-width="1" fill="none" fill-rule="evenodd">
        <g id="fanExperience" fill-rule="nonzero">
            <path d="M106.969413,153.730419 C107.305869,145.547842 102.073946,137.292347 91.2532524,131.047212 C70.354578,118.984263 36.5835375,118.984263 15.8205434,131.047212 C5.47355456,137.058693 0.313000758,144.932346 0.323196381,152.811487 C0.323196381,152.786396 0.320059266,152.761306 0.320059266,152.736216 L7.35590216e-05,265.960152 C-0.0226705231,273.916132 5.22885961,281.883089 15.7452526,287.953376 C36.643927,300.016325 70.4165361,300.014757 91.1779616,287.953376 C101.492795,281.960712 106.656486,274.118423 106.678446,266.265156 L107,153.042004 C106.998431,153.270953 106.978824,153.50147 106.969413,153.730419 Z" id="Shape" fill="#F6F9FC"></path>
            <path d="M90.3538572,131.079461 C111.119411,143.186197 111.22929,162.813508 90.5977728,174.920244 C69.9693728,187.026192 36.4111096,187.026979 15.6455559,174.920244 C-5.11999788,162.813508 -5.22831821,143.18541 15.4016403,131.079461 C36.0323781,118.973513 69.5883035,118.973513 90.3538572,131.079461 Z" id="Shape" fill="#FFFFFF"></path>
            <path d="M196.970982,92.6845486 C197.305869,84.5133723 192.073946,76.270938 181.254821,70.035473 C160.356147,57.9881757 126.585106,57.9881757 105.822112,70.035473 C95.4751231,76.0391538 90.3145693,83.9025896 90.3247649,91.7715067 C90.3247649,91.746449 90.3216278,91.7213912 90.3216278,91.6963335 L90.0000736,318.000722 C89.9773295,325.946379 95.2288596,333.902998 105.745253,339.965408 C126.642358,352.011922 160.416536,352.011139 181.178746,339.965408 C191.493579,333.98052 196.656486,326.148407 196.678446,318.305331 L197,92.0009418 C196.999216,92.2280277 196.979609,92.4566796 196.970982,92.6845486 Z" id="Shape" fill="#E2E7EC"></path>
            <path d="M181.354468,70.0800082 C202.118425,82.185899 202.229862,101.813904 181.598383,113.920582 C160.970022,126.026473 127.410263,126.026473 106.645527,113.920582 C85.8800117,101.813904 85.7716915,82.185899 106.401612,70.0800082 C127.03309,57.9733306 160.588953,57.9733306 181.354468,70.0800082 Z" id="Shape" fill="#F6F9FC"></path>
            <path d="M287.970959,31.6876771 C288.305065,23.5157198 283.07232,15.273274 272.254687,9.03661532 C251.357432,-3.01142189 217.584582,-3.0129883 196.82144,9.03661532 C186.474378,15.0414454 181.314572,22.9063865 181.324767,30.7768101 C181.324767,30.7517476 181.32163,30.7259018 181.32163,30.7008393 C181.304376,48.9197459 181.287122,67.1386526 181.269867,85.3575593 C181.179675,180.236538 181.090266,275.115516 181.000074,369.994494 C180.977329,377.941672 186.228897,385.900597 196.74458,391.963385 C217.643404,404.012988 251.416253,404.011422 272.177827,391.963385 C282.492734,385.977352 287.656461,378.143739 287.678421,370.299161 C287.768614,275.420182 287.858023,180.541204 287.948215,85.6622259 C287.965469,67.4433192 287.982724,49.2244126 287.999978,31.0055059 C288.000762,31.2326352 287.980371,31.4589814 287.970959,31.6876771 Z" id="Shape" fill="url(#linearGradient-1)"></path>
            <path d="M272.353771,9.07870563 C293.119439,21.1856138 293.229319,40.8132058 272.597688,52.920114 C251.969175,65.0262352 218.410728,65.0270221 197.64506,52.920114 C176.880951,40.8139927 176.771071,21.1848269 197.401143,9.07870563 C218.031215,-3.02662867 251.589662,-3.02584174 272.353771,9.07870563 Z" id="Shape" fill="#8294FB"></path>
        </g>
    </g>
</svg>