<?xml version="1.0" encoding="UTF-8"?>
<svg width="133px" height="132px" viewBox="0 0 133 132" version="1.1" xmlns="http://www.w3.org/2000/svg" xmlns:xlink="http://www.w3.org/1999/xlink">
    <!-- Generator: Sketch 47.1 (45422) - http://www.bohemiancoding.com/sketch -->
    <title>logo-icon</title>
    <desc>Created with Sketch.</desc>
    <defs></defs>
    <g id="Brand" stroke="none" stroke-width="1" fill="none" fill-rule="evenodd">
        <g id="logo-icon">
            <rect id="Rectangle-11" fill="#3D5AFE" x="0" y="0" width="133" height="132" rx="66"></rect>
            <g transform="translate(16.000000, 40.000000)" id="Combined-Shape" fill="#FFFFFF">
                <path d="M27.5,0 L74.5,0 L74.5,3.55271368e-15 C89.6878306,7.62754456e-16 102,12.3121694 102,27.5 L102,27.5 C102,42.6878306 89.6878306,55 74.5,55 L27.5,55 L27.5,55 C12.3121694,55 1.85997282e-15,42.6878306 0,27.5 L0,27.5 L0,27.5 C-1.85997282e-15,12.3121694 12.3121694,2.78995922e-15 27.5,0 L27.5,0 Z M27.8351648,33.9482759 C31.2399093,33.9482759 34,31.1461959 34,27.6896552 C34,24.2331144 31.2399093,21.4310345 27.8351648,21.4310345 C24.4304204,21.4310345 21.6703297,24.2331144 21.6703297,27.6896552 C21.6703297,31.1461959 24.4304204,33.9482759 27.8351648,33.9482759 Z M74.1648352,33.9482759 C77.5695796,33.9482759 80.3296703,31.1461959 80.3296703,27.6896552 C80.3296703,24.2331144 77.5695796,21.4310345 74.1648352,21.4310345 C70.7600907,21.4310345 68,24.2331144 68,27.6896552 C68,31.1461959 70.7600907,33.9482759 74.1648352,33.9482759 Z M51,34.137931 C54.4047444,34.137931 57.1648352,31.3358511 57.1648352,27.8793103 C52.817941,27.8793103 48.2700796,27.8793103 44.8351648,27.8793103 C44.8351648,31.3358511 47.5952556,34.137931 51,34.137931 Z"></path>
            </g>
            <g transform="translate(16.000000, 40.000000)" id="Combined-Shape" fill="#FFFFFF">
                <path d="M27.5,0 L74.5,0 L74.5,3.55271368e-15 C89.6878306,7.62754456e-16 102,12.3121694 102,27.5 L102,27.5 C102,42.6878306 89.6878306,55 74.5,55 L27.5,55 L27.5,55 C12.3121694,55 1.85997282e-15,42.6878306 0,27.5 L0,27.5 L0,27.5 C-1.85997282e-15,12.3121694 12.3121694,2.78995922e-15 27.5,0 L27.5,0 Z M27.8351648,33.9482759 C31.2399093,33.9482759 34,31.1461959 34,27.6896552 C34,24.2331144 31.2399093,21.4310345 27.8351648,21.4310345 C24.4304204,21.4310345 21.6703297,24.2331144 21.6703297,27.6896552 C21.6703297,31.1461959 24.4304204,33.9482759 27.8351648,33.9482759 Z M74.1648352,33.9482759 C77.5695796,33.9482759 80.3296703,31.1461959 80.3296703,27.6896552 C80.3296703,24.2331144 77.5695796,21.4310345 74.1648352,21.4310345 C70.7600907,21.4310345 68,24.2331144 68,27.6896552 C68,31.1461959 70.7600907,33.9482759 74.1648352,33.9482759 Z M51,34.137931 C54.4047444,34.137931 57.1648352,31.3358511 57.1648352,27.8793103 C52.817941,27.8793103 48.2700796,27.8793103 44.8351648,27.8793103 C44.8351648,31.3358511 47.5952556,34.137931 51,34.137931 Z"></path>
            </g>
        </g>
    </g>
</svg>