<?xml version="1.0" encoding="UTF-8"?>
<svg width="47.5px" height="25px" viewBox="0 0 57 30" version="1.1" xmlns="http://www.w3.org/2000/svg" xmlns:xlink="http://www.w3.org/1999/xlink">
    <!-- Generator: Sketch 47.1 (45422) - http://www.bohemiancoding.com/sketch -->
    <title>foodi</title>
    <desc>Created with Sketch.</desc>
    <defs></defs>
    <g id="Website" stroke="none" stroke-width="1" fill="none" fill-rule="evenodd">
        <g id="Landing-Page" transform="translate(-112.000000, -29.000000)" fill="#FFFFFF">
            <g id="foodi" transform="translate(112.000000, 29.000000)">
                <path d="M15,0 L41.4827586,0 L41.4827586,-7.10542736e-15 C49.7670299,-8.6272233e-15 56.4827586,6.71572875 56.4827586,15 L56.4827586,15 C56.4827586,23.2842712 49.7670299,30 41.4827586,30 L15,30 L15,30 C6.71572875,30 1.01453063e-15,23.2842712 0,15 L0,15 L0,15 C-1.01453063e-15,6.71572875 6.71572875,3.29815278e-15 15,1.77635684e-15 L15,0 Z M15.4137931,18.5172414 C17.299179,18.5172414 18.8275862,16.9888341 18.8275862,15.1034483 C18.8275862,13.2180624 17.299179,11.6896552 15.4137931,11.6896552 C13.5284072,11.6896552 12,13.2180624 12,15.1034483 C12,16.9888341 13.5284072,18.5172414 15.4137931,18.5172414 Z M41.0689655,18.5172414 C42.9543514,18.5172414 44.4827586,16.9888341 44.4827586,15.1034483 C44.4827586,13.2180624 42.9543514,11.6896552 41.0689655,11.6896552 C39.1835796,11.6896552 37.6551724,13.2180624 37.6551724,15.1034483 C37.6551724,16.9888341 39.1835796,18.5172414 41.0689655,18.5172414 Z M28.2413793,18.6206897 C30.1267652,18.6206897 31.6551724,17.0922824 31.6551724,15.2068966 C29.2480687,15.2068966 26.729679,15.2068966 24.8275862,15.2068966 C24.8275862,17.0922824 26.3559934,18.6206897 28.2413793,18.6206897 Z" id="Combined-Shape"></path>
            </g>
        </g>
    </g>
</svg>
