<?xml version="1.0" encoding="UTF-8"?>
<svg width="162px" height="60px" viewBox="0 0 162 60" version="1.1" xmlns="http://www.w3.org/2000/svg" xmlns:xlink="http://www.w3.org/1999/xlink">
    <!-- Generator: Sketch 47.1 (45422) - http://www.bohemiancoding.com/sketch -->
    <title>Pickles_Blue_Logo</title>
    <desc>Created with Sketch.</desc>
    <defs></defs>
    <g id="Website" stroke="none" stroke-width="1" fill="none" fill-rule="evenodd">
        <g id="Pickles_Blue_Logo" transform="translate(81.500000, 30.000000) scale(1, -1) translate(-81.500000, -30.000000) " fill-rule="nonzero">
            <g id="g20" transform="translate(16.982887, 27.507893)" fill="#002D62">
                <path d="M7.94701967,6.88741705 C10.9194699,6.88741705 11.9594699,7.6749667 11.9594699,8.39099317 C11.9594699,10.2529799 6.53562898,8.53430442 6.53562898,14.620397 C6.53562898,24.2150987 15.9719201,29.7284761 23.9968206,29.7284761 C29.123443,29.7284761 36.7025156,26.0768205 36.7025156,18.4871519 C36.1083435,6.60052964 26.374304,2.37642378 21.7674167,2.37642378 C21.0988074,2.37642378 20.5788074,2.59125821 20.1327147,2.59125821 C19.6868869,2.59125821 19.3154962,2.37642378 19.3154962,1.80344366 C19.3154962,1.23099335 20.6529796,0.0135099334 24.4423835,0.0135099334 C33.061721,0.0135099334 43.0927142,8.53430442 43.0927142,18.1290062 C43.0927142,27.3655622 35.3652971,32.0913899 24.739602,32.0913899 C12.6280792,32.0913899 0.145165559,25.1459596 0.145165559,14.620397 C0.145165559,9.5366885 3.93483434,6.88741705 7.94701967,6.88741705" id="path22"></path>
            </g>
            <g id="g24" transform="translate(60.152634, 35.858860)" fill="#002D62">
                <path d="M2.91390721,0 C5.14675484,0 7.04132433,1.95602644 7.04132433,3.7168211 C7.04132433,5.28158927 5.82331111,6.12927137 4.33456943,6.12927137 C2.23708604,6.12927137 0.139602646,4.30357605 0.139602646,2.41271517 C0.139602646,1.04317878 1.35761586,0 2.91390721,0" id="path26"></path>
            </g>
            <g id="g28" transform="translate(0.001563, 0.032848)" fill="#002D62">
                <path d="M140.132447,14.5695361 C139.049798,14.5695361 138.441056,15.156291 138.441056,15.7438407 C138.441056,16.2002645 138.914434,16.7213241 140.132447,16.7213241 C141.215361,16.7213241 142.23046,16.4609267 143.312844,16.2002645 C142.433639,15.2866221 141.283175,14.5695361 140.132447,14.5695361 L140.132447,14.5695361 Z M141.756553,31.979072 C141.756553,33.152582 142.974566,34.2609263 143.651122,34.2609263 C143.989135,34.2609263 144.1245,34.0002641 144.1245,33.5438402 C144.057215,32.6312575 143.312844,31.3271515 142.365824,30.0227807 C141.891917,30.8707277 141.756553,31.261986 141.756553,31.979072 L141.756553,31.979072 Z M91.7536401,33.7396018 C93.5131102,41.9552307 96.0164214,48.1494028 97.0990704,48.1494028 C97.369534,48.1494028 97.5727128,47.6278134 97.5727128,46.4543035 C97.5727128,42.1507274 94.8662228,36.0868865 91.0768189,30.6095357 L91.7536401,33.7396018 Z M109.481322,29.7621185 C110.834699,37.9777474 114.28556,47.9539061 115.571123,47.9539061 C115.841851,47.9539061 115.976951,47.4974823 115.976951,46.4543035 C115.976951,45.4111247 113.744368,33.0222508 109.007944,24.806357 C109.007944,26.2413238 109.211123,28.0015887 109.481322,29.7621185 L109.481322,29.7621185 Z M158.46887,24.4807941 C156.845559,24.4807941 154.81589,23.4378802 152.650592,20.8948339 C150.958407,19.0034432 149.876023,18.4823836 148.116817,18.4166883 C148.251917,18.873377 148.319996,19.7210591 148.319996,20.0468869 C148.319996,23.1115226 145.748871,25.8500656 143.785957,28.1970854 C145.342513,30.0882112 147.575361,32.9570853 147.575361,34.9788071 C147.575361,36.4132441 146.695625,36.9999991 145.478407,36.9999991 C142.568473,36.9999991 138.034963,33.6744362 138.034963,29.8275489 C138.034963,28.4577476 138.64397,27.1539066 139.388341,26.1107278 C137.967414,24.3501981 136.275758,22.2635756 135.05801,20.8948339 C135.056156,20.8932445 135.055361,20.8916551 135.053771,20.8895359 C131.874434,17.3067545 128.290858,15.7438407 125.450593,15.7438407 C122.540659,15.7438407 120.510725,17.3737744 120.510725,20.3729796 C120.510725,24.806357 123.825957,29.8275489 126.735891,29.8275489 C127.682911,29.8275489 128.292182,29.240794 128.292182,28.0015887 C128.292182,26.2413238 126.87099,23.3064895 122.608209,20.0468869 C121.931653,19.5252975 121.660659,19.0691386 121.660659,18.6776154 C121.660659,18.2209267 122.067017,17.8950989 122.608209,17.8950989 C122.811388,17.8950989 123.082116,17.9605294 123.35205,18.0908605 C128.088739,20.177218 133.163705,24.6111252 133.163705,28.1321847 C133.163705,30.1539065 131.539599,32.1096681 128.156818,32.1096681 C120.645825,32.1096681 115.571123,25.3933768 115.571123,19.460132 C115.571123,19.2943042 115.57854,19.1316552 115.589401,18.9703307 C113.803971,17.188079 112.209269,16.0045029 111.037613,16.0045029 C110.022779,16.0045029 109.211123,17.3737744 109.007944,21.2206617 C114.691388,28.5888735 120.916553,43.9764227 120.916553,51.9313894 C120.916553,54.0829126 120.307547,55.0609258 119.359997,55.0609258 C115.30013,55.0609258 104.203441,36.6736415 104.203441,20.7642379 C104.203441,20.6105955 104.20609,20.4574829 104.209799,20.30543 C100.930594,16.7470194 98.8097989,15.7438407 97.910726,15.7438407 C96.6251631,15.7438407 95.948342,16.6564234 95.4744347,18.6124499 C95.4074148,18.9380128 95.2723155,19.460132 95.2723155,19.6558935 C95.2723155,19.8516551 95.4074148,19.9165558 95.8132426,20.177218 C95.8132426,20.177218 103.661719,24.7414563 103.661719,29.9581449 C103.661719,30.9358933 102.714964,32.0445025 100.820395,32.0445025 C98.5194677,32.0445025 94.663044,30.2185423 89.5202627,24.0243703 L89.8593355,25.3933768 C96.2866201,32.565827 102.511786,42.9984095 102.511786,51.9313894 C102.511786,54.0829126 101.902779,55.0609258 100.955494,55.0609258 C97.9785406,54.9960251 91.0768189,45.2153631 87.7613223,33.6744362 L84.0230443,20.8031783 C80.8643688,17.2839731 77.3165544,15.7438407 74.4998657,15.7438407 C71.5901969,15.7438407 69.5605281,17.3737744 69.5605281,20.3729796 C69.5605281,24.4807941 72.5374816,29.7621185 75.9883425,29.7621185 C77.3419848,29.7621185 77.7475477,28.7192046 77.7475477,27.8058271 C77.7475477,25.9149662 76.5295345,25.7846351 76.1915213,25.7846351 L75.8532431,25.7846351 C75.1766869,25.7846351 74.7705942,25.1978802 74.7705942,24.7414563 C74.7705942,23.8940391 75.7178789,22.915761 77.3419848,22.915761 C79.9806603,22.915761 82.4161569,25.3933768 82.4161569,28.0672841 C82.4161569,30.414039 80.1833093,32.1096681 77.2063557,32.1096681 C70.0341704,32.1096681 64.6209255,25.7199994 64.6209255,19.460132 C64.6209255,19.3019863 64.6275481,19.1462247 64.6368196,18.9920525 C62.2394686,16.6519201 60.3647667,15.5478142 59.5467535,15.5478142 C59.0728462,15.5478142 58.8696674,15.873642 58.8696674,16.3957612 C58.8696674,16.7213241 59.0052965,17.2426486 59.1403959,17.6998671 C60.2233098,21.2206617 61.8468859,24.6762908 63.1324488,27.3496682 C63.8770845,28.9149662 64.6209255,30.2839728 64.6209255,31.13139 C64.6209255,31.7181449 64.2150977,32.1096681 63.2680779,32.1096681 C59.8169521,32.1096681 56.230992,29.6972178 56.230992,28.3931119 C56.230992,27.9364231 56.7048992,27.7411914 57.1782767,27.7411914 C57.3811906,27.7411914 57.5843694,27.8058271 57.7872833,27.8058271 C57.9904621,27.8058271 58.1252966,27.7411914 58.1252966,27.5451649 C58.1252966,27.3496682 57.9904621,27.088741 57.7872833,26.632847 C57.0429125,25.1327146 55.3515218,22.0029134 54.3364225,18.6124499 C54.065694,17.7647678 53.9303298,16.9168208 53.9303298,16.2002645 C53.9303298,13.9827811 55.0805284,12.548609 57.5843694,12.548609 C59.4826475,12.548609 62.2503296,13.9348341 65.1904619,16.66543 C66.3086076,14.1335096 68.9772168,12.548609 72.3345677,12.548609 C75.9491372,12.548609 79.775892,14.2095361 82.8601304,16.7981453 L82.2129781,14.5695361 C82.1454284,14.2439732 82.0776138,13.9827811 82.0776138,13.7223838 C82.0776138,12.8741719 82.6190708,12.548609 83.3629118,12.548609 C84.7165542,12.548609 86.8818521,13.85245 87.4227793,15.873642 L88.0993355,18.3512578 C88.708872,20.5035756 92.8357593,25.9803967 96.4897989,27.8058271 C96.7605274,27.9364231 97.0312559,28.0015887 97.2341698,28.0015887 C97.7078121,28.0015887 97.910726,27.6752311 97.910726,27.219602 C97.910726,25.5242378 95.3396003,23.2418537 92.6331103,21.1554962 C91.4826467,20.3078141 90.9417196,19.8516551 90.9417196,18.6776154 C90.9417196,17.3083439 92.0238388,12.548609 95.8132426,12.548609 C97.9780108,12.548609 101.263309,14.4050328 104.485031,17.6545691 C105.057481,14.7205294 106.516554,12.548609 109.007944,12.548609 C110.876289,12.548609 113.190196,13.7099334 116.168739,16.6259598 C117.312845,14.1165559 119.996023,12.548609 123.28503,12.548609 C127.770593,12.548609 132.517613,15.1033109 135.894566,18.820132 C135.915228,18.8394697 135.933507,18.8609267 135.952844,18.8818538 C135.970063,18.9011916 135.988076,18.9189399 136.00556,18.9380128 C136.010858,18.9451651 136.015096,18.9504631 136.020659,18.9568207 L140.674169,24.4153636 C142.297745,22.5247676 143.989135,20.7642379 144.1245,18.7430459 C143.448208,18.8082115 142.500394,18.873377 141.756553,18.873377 C137.155493,18.873377 134.652182,17.2426486 134.652182,15.4823837 C134.652182,13.85245 136.8845,12.548609 139.321056,12.548609 C142.027016,12.548609 144.801321,13.3313904 146.628341,15.4172182 C146.628341,15.4172182 147.034698,15.3525824 147.237612,15.3525824 C149.131652,15.3525824 151.094301,16.0691387 153.598142,18.9380128 C155.018274,20.6336419 155.965559,21.3515226 156.642645,21.3515226 C157.048738,21.3515226 157.319466,20.9599995 157.319466,20.5687412 C157.319466,20.1123174 157.116552,19.5252975 156.777744,18.873377 C154.81589,14.5695361 150.891387,7.9189402 131.404235,7.9189402 C130.118407,7.9189402 128.76503,7.98437066 127.344633,8.04927132 C104.338805,8.96211898 37.0813236,10.2010593 27.8116549,10.2010593 C26.4672841,10.2010593 25.1894033,10.1748342 23.9724497,10.1268872 C26.7255622,12.0474169 29.3848999,15.3213241 31.2439727,20.5433107 C34.8850322,30.7825158 42.0924493,51.0455616 42.0924493,51.0455616 C42.2413234,51.4037073 42.3154956,51.761853 42.3154956,52.0479457 C42.3154956,52.9072834 41.6468864,53.3369523 40.7552308,53.3369523 C39.0458268,53.3369523 36.445562,51.8333762 35.6283435,49.6852968 C35.6283435,49.6852968 24.8540391,19.61192 23.5909928,15.9605294 C22.3279465,12.45245 19.4301982,10.6619865 17.8694035,10.0174832 C17.3509929,9.80927128 16.6328473,9.67311234 16.1213241,9.4121852 C4.8884767,7.71258259 1.58807943,3.76794693 0.745960246,2.70304629 C0.272317874,2.11629134 0.00158940393,1.46384102 0.00158940393,1.00768209 C0.00158940393,0.485562902 0.272317874,0.159999996 0.67867548,0.159999996 C1.01668872,0.159999996 1.35496685,0.290596019 1.82860923,0.616158925 C4.06119195,2.1809271 10.4219865,4.2026489 25.1049,4.2026489 C48.5841047,4.2026489 101.090593,4.13695354 122.878672,3.74622507 L124.976156,3.74622507 C145.478407,3.74622507 157.386751,10.1364236 160.973241,18.1562909 C161.514433,19.3295359 161.784897,20.3729796 161.784897,21.3515226 C161.784897,23.2418537 160.702513,24.4807941 158.46887,24.4807941 L158.46887,24.4807941 Z" id="path30"></path>
            </g>
            <g id="g32" transform="translate(148.663069, 31.251046)" fill="#9FA1A4">
                <polygon id="path34" points="1.85430459 2.3841059 1.85430459 2.11417213 1.0908609 2.11417213 1.0908609 0.118940394 0.780927133 0.118940394 0.780927133 2.11417213 0.0177483439 2.11417213 0.0177483439 2.3841059"></polygon>
            </g>
            <g id="g36" transform="translate(150.791864, 31.251046)" fill="#9FA1A4">
                <path d="M0,2.3841059 L0.439470188,2.3841059 L1.0908609,0.46887416 L1.7377483,2.3841059 L2.17430458,2.3841059 L2.17430458,0.118940394 L1.88132446,0.118940394 L1.88132446,1.455894 C1.88132446,1.50198672 1.88211916,1.57854301 1.88423836,1.68556287 C1.88635757,1.79258274 1.88741717,1.90701982 1.88741717,2.02940392 L1.24079467,0.118940394 L0.936688718,0.118940394 L0.283708602,2.02940392 L0.283708602,1.95999995 C0.283708602,1.90437081 0.285298006,1.8198675 0.288476814,1.70622512 C0.291655622,1.59284764 0.292980125,1.50913904 0.292980125,1.455894 L0.292980125,0.118940394 L0,0.118940394 L0,2.3841059 Z" id="path38"></path>
            </g>
        </g>
    </g>
</svg>