<?xml version="1.0" encoding="UTF-8"?>
<svg width="225px" height="382px" viewBox="0 0 225 382" version="1.1" xmlns="http://www.w3.org/2000/svg" xmlns:xlink="http://www.w3.org/1999/xlink">
    <!-- Generator: Sketch 47.1 (45422) - http://www.bohemiancoding.com/sketch -->
    <title>screen</title>
    <desc>Created with Sketch.</desc>
    <defs>
        <rect id="path-1" x="0" y="0" width="217" height="374" rx="5"></rect>
        <filter x="-3.2%" y="-1.3%" width="106.5%" height="103.7%" filterUnits="objectBoundingBox" id="filter-3">
            <feOffset dx="0" dy="2" in="SourceAlpha" result="shadowOffsetOuter1"></feOffset>
            <feGaussianBlur stdDeviation="2" in="shadowOffsetOuter1" result="shadowBlurOuter1"></feGaussianBlur>
            <feColorMatrix values="0 0 0 0 0   0 0 0 0 0   0 0 0 0 0  0 0 0 0.1 0" type="matrix" in="shadowBlurOuter1"></feColorMatrix>
        </filter>
        <path d="M5,0 L141,0 L141,0 C143.761424,-5.07265313e-16 146,2.23857625 146,5 L146,56 L0,56 L0,5 L0,5 C-3.38176876e-16,2.23857625 2.23857625,5.07265313e-16 5,0 Z" id="path-4"></path>
        <rect id="path-6" x="0" y="0" width="146" height="25"></rect>
        <path d="M0,0 L146,0 L146,15 L146,15 C146,20.5228475 141.522847,25 136,25 L10,25 L10,25 C4.4771525,25 6.76353751e-16,20.5228475 0,15 L0,0 Z" id="path-7"></path>
        <path d="M5,0 L141,0 L141,0 C143.761424,-5.07265313e-16 146,2.23857625 146,5 L146,56 L0,56 L0,5 L0,5 C-3.38176876e-16,2.23857625 2.23857625,5.07265313e-16 5,0 Z" id="path-8"></path>
        <rect id="path-10" x="0" y="0" width="146" height="25"></rect>
        <path d="M0,0 L146,0 L146,15 L146,15 C146,20.5228475 141.522847,25 136,25 L10,25 L10,25 C4.4771525,25 6.76353751e-16,20.5228475 0,15 L0,0 Z" id="path-11"></path>
        <path d="M0,0 L128,0 L128,15 L128,15 C128,20.5228475 123.522847,25 118,25 L10,25 L10,25 C4.4771525,25 6.76353751e-16,20.5228475 0,15 L0,0 Z" id="path-12"></path>
    </defs>
    <g id="Website" stroke="none" stroke-width="1" fill="none" fill-rule="evenodd">
        <g id="screen" transform="translate(2.000000, 1.000000)">
            <g id="Group-10">
                <g id="Rectangle-5">
                    <g id="Group-10" transform="translate(2.000000, 1.000000)">
                        <mask id="mask-2" fill="white">
                            <use xlink:href="#path-1"></use>
                        </mask>
                        <g id="Mask">
                            <use fill="black" fill-opacity="1" filter="url(#filter-3)" xlink:href="#path-1"></use>
                            <use fill="#FFFFFF" fill-rule="evenodd" xlink:href="#path-1"></use>
                        </g>
                        <g mask="url(#mask-2)">
                            <g transform="translate(183.000000, 213.000000)">
                                <g id="ivan-torres-478678">
                                    <g id="salty">
                                        <mask id="mask-5" fill="white">
                                            <use xlink:href="#path-4"></use>
                                        </mask>
                                        <use id="Mask" fill="#F6F9FC" xlink:href="#path-4"></use>
                                        <g mask="url(#mask-5)">
                                            <g transform="translate(-93.000000, -20.000000)">
                                                <path d="M120.697514,44.7121696 C119.553185,39.7661045 115.698949,36.123799 111.032397,34.9546879 C113.018569,30.6278115 112.534985,25.3865556 109.326731,21.4166919 C106.118476,17.4503885 101.046095,15.818747 96.3280349,16.7619336 C96.2099276,12.0123387 93.4704937,7.49611296 88.8337967,5.2960996 C86.3049876,4.09429739 83.5767083,3.75541053 81,4.16712408 L99.5251347,54 L121,46.7157127 C120.952101,46.0525043 120.852366,45.3821751 120.697514,44.7121696 Z" id="Shape" fill="#FFE2AA" fill-rule="nonzero"></path>
                                                <path d="M109.75773,45.620416 C108.834425,40.6251412 105.732656,36.9465973 101.972737,35.7658544 C103.569558,31.3959287 103.183104,26.102526 100.600531,22.0931649 C99.2172076,19.948737 97.4032921,18.4809807 95.4350565,17.7232392 C93.7241301,17.0684695 91.8958289,16.9507875 90.129975,17.3920951 C90.0381022,12.5952452 87.8305396,8.03408618 84.0964501,5.81218425 C83.1473159,5.24567608 82.1648328,4.87040119 81.1751569,4.67197623 C79.260214,4.97827637 77.4325667,5.71019316 75.8262641,6.80300149 C73.5559272,2.75670134 68.8919935,0.0120950966 63.9344592,0.00163447251 C63.9465563,0.000326894502 63.9459024,0 63.9053607,0 C58.7768319,0 53.9497504,2.92439822 51.7644204,7.19494799 C47.9456509,4.29637444 42.6732643,3.58635958 38.0560844,5.81185736 C33.435308,8.03375929 30.7052802,12.5949183 30.5875784,17.3917682 C25.8857186,16.4391976 20.8307534,18.0870728 17.6335148,22.092838 C14.4362763,26.1021991 13.9543528,31.3956018 15.9337047,35.7655275 C11.2835029,36.9462704 7.44250091,40.6248143 6.30177433,45.6200892 C6.14712725,46.2967608 6.04806157,46.9737593 6,47.6432392 L58,55 L110,47.6432392 C109.959785,46.9740862 109.882625,46.2970877 109.75773,45.620416 Z M63.9053607,0.00751857355 C63.8409517,0.00555720654 63.8729927,0.00392273403 63.9053607,0.00228826152 L63.9053607,0.00751857355 Z" id="Shape" fill="#FFEFCF" fill-rule="nonzero"></path>
                                                <g id="Group" stroke-width="1" fill="none" fill-rule="evenodd" transform="translate(31.000000, 24.000000)">
                                                    <path d="M44.0474861,13.0845647 C43.046125,13.0845647 42.0806667,12.5318118 41.5930417,11.5702588 C39.7992083,8.03204706 36.2432014,5.83388235 32.3125,5.83388235 C30.7912014,5.83388235 29.5577778,4.58903529 29.5577778,3.05364706 C29.5577778,1.51825882 30.7912014,0.273411765 32.3125,0.273411765 C38.3213194,0.273411765 43.757,3.63143529 46.4973611,9.03741176 C47.1902847,10.4044706 46.6540278,12.0792 45.3001667,12.7785412 C44.8983819,12.9860706 44.4698333,13.0845647 44.0474861,13.0845647 Z" id="Shape" fill="#FFE2AA" fill-rule="nonzero"></path>
                                                    <path d="M2.92803472,27.8968941 C2.5056875,27.8968941 2.07713889,27.7987294 1.67535417,27.5912 C0.320840278,26.8918588 -0.215090278,25.2164706 0.478159722,23.8500706 C3.21884722,18.4444235 8.65452778,15.0860706 14.6630208,15.0860706 C16.1843194,15.0860706 17.4177431,16.3309176 17.4177431,17.8663059 C17.4177431,19.4016941 16.1843194,20.6465412 14.6630208,20.6465412 C10.7323194,20.6465412 7.1763125,22.8447059 5.38215278,26.3832471 C4.89518056,27.3444706 3.92939583,27.8968941 2.92803472,27.8968941 Z" id="Shape" fill="#FFE2AA" fill-rule="nonzero"></path>
                                                </g>
                                                <polygon id="Shape" fill="#CB5956" fill-rule="nonzero" points="120 59 108.65009 167 99.9683439 167 97 113 109.138808 59"></polygon>
                                                <polygon id="Shape" fill="#FF5A52" fill-rule="nonzero" points="110 59 100.56616 167 86.2235987 167 82 113 92.0597177 59"></polygon>
                                                <polygon id="Shape" fill="#FFEFCF" fill-rule="nonzero" points="92 59 86.2536481 167 63.3340696 167 56 113 63.3340696 59"></polygon>
                                                <polygon id="Shape" fill="#FF5A52" fill-rule="nonzero" points="63 59 63 167 40.1356655 167 30 113 34.4031643 59"></polygon>
                                                <polygon id="Shape" fill="#FFEFCF" fill-rule="nonzero" points="34.3224395 59 40 167 17.3586628 167 6 59"></polygon>
                                                <path d="M120.333333,48 L109,48 L109,59 L120.333333,59 C123.461264,59 126,56.5359322 126,53.5 C126.000336,50.4637419 123.461599,48 120.333333,48 Z" id="Shape" fill="#FFCA62" fill-rule="nonzero"></path>
                                                <path d="M109.483203,48 C112.528407,48 115,50.4640678 115,53.5 C115,56.5359322 112.528407,59 109.483203,59 L5.51679693,59 C2.47159301,59 0,56.5359322 0,53.5 C0,50.4640678 2.47159301,48 5.51679693,48 L109.483203,48 Z" id="Shape" fill="#FFD686" fill-rule="nonzero"></path>
                                            </g>
                                        </g>
                                    </g>
                                </g>
                                <g id="Group-9" transform="translate(0.000000, 56.000000)">
                                    <g id="Rectangle-10">
                                        <use fill="#FFFFFF" fill-rule="evenodd" xlink:href="#path-6"></use>
                                        <rect stroke="#EFF2F5" stroke-width="1" x="0.5" y="0.5" width="145" height="24"></rect>
                                    </g>
                                    <text id="Popcorn" font-family="JosefinSans-Regular, Josefin Sans" font-size="8" font-weight="normal" fill="#434E5D">
                                        <tspan x="7" y="15">Popcorn</tspan>
                                    </text>
                                </g>
                                <g id="Group-9" transform="translate(0.000000, 80.000000)">
                                    <g id="Rectangle-10">
                                        <use fill="#FFFFFF" fill-rule="evenodd" xlink:href="#path-7"></use>
                                        <path stroke="#EFF2F5" stroke-width="1" d="M0.5,0.5 L0.5,15 C0.5,20.2467051 4.75329488,24.5 10,24.5 L136,24.5 C141.246705,24.5 145.5,20.2467051 145.5,15 L145.5,0.5 L0.5,0.5 Z"></path>
                                    </g>
                                </g>
                            </g>
                        </g>
                    </g>
                    <rect x="0" y="0" width="221" height="41"></rect>
                    <path d="M2.5,40.5 L217.5,40.5" id="Line-2" stroke="#E2E7EC" stroke-linecap="square"></path>
                </g>
                <g id="Group-11" transform="translate(29.000000, 49.000000)">
                    <text id="THU-2:55PM" font-family="AvenirNext-Medium, Avenir Next" font-size="6" font-weight="400" fill="#CBD1DB">
                        <tspan x="64" y="6">THU 2:55PM</tspan>
                    </text>
                    <text id="THU-2:56PM" font-family="AvenirNext-Medium, Avenir Next" font-size="6" font-weight="400" fill="#CBD1DB">
                        <tspan x="64" y="130">THU 2:56PM</tspan>
                    </text>
                    <g id="Group-10" transform="translate(0.000000, 164.000000)">
                        <g id="georgia-vagim-381292">
                            <g id="pizza">
                                <mask id="mask-9" fill="white">
                                    <use xlink:href="#path-8"></use>
                                </mask>
                                <use id="Mask" fill="#F6F9FC" xlink:href="#path-8"></use>
                                <g mask="url(#mask-9)" fill-rule="nonzero">
                                    <g transform="translate(15.000000, -11.000000)">
                                        <path d="M116.805403,32.8273057 C108.729734,-6.04724949 47.9159447,-1.45063689 20.8552233,2.6457739 C16.3573294,3.32750056 12.9556138,6.90354012 12.6244548,11.2742551 L9.39251049,51.0221465 C6.22134857,52.7668021 -2.3112358,58.4949196 0.593741339,68.3718884 C1.52853196,71.5465563 2.853168,73.0108568 4.33080789,73.3678556 C5.99498672,73.7692272 7.20434589,75.1064603 6.93816111,76.738167 C6.09559198,81.8813711 4.77724377,90.6954111 4.6766385,96.0503942 C4.52782654,103.966895 14.2488107,102.958423 14.2488107,102.958423 C14.2488107,102.958423 27.7403964,102.095172 19.9644475,91.4436968 C15.6698601,85.5622917 16.042938,81.2662036 23.185912,78.5917374 L53.9396852,66.2863695 C53.5204966,69.196818 53.8684231,75.5239675 59.4792628,75.8890341 C63.3504697,76.141152 69.9484986,74.5457502 67.3118022,63.3315483 C67.1210714,62.5227543 67.1273592,61.6998416 67.3264738,60.9293695 L110.964009,43.4707128 C115.304707,41.734125 117.727618,37.2665968 116.805403,32.8273057 Z" id="Shape" fill="#FFD77F"></path>
                                        <path d="M18.5640754,86.3085853 C18.1981048,86.4533 17.9287669,86.7085606 17.7108294,87 C15.965273,82.8897002 17.3407467,79.7662743 22.881706,77.6598712 L53.0496075,65.3973092 C52.8028857,67.1298659 52.835782,70.0703884 54.0652787,72.2390992 L18.5640754,86.3085853 Z M112.676085,45.4005497 C110.328117,50.1680955 105.572555,51.8303048 105.42041,51.8865827 L66.7426644,67.2162927 C66.7570565,65.8595923 66.5966874,64.2978793 66.1690363,62.4527667 C65.981939,61.6467862 65.9881071,60.8267361 66.1834284,60.0609541 L108.989651,42.6630297 C111.253323,41.7424833 112.961872,40.0440953 113.952871,38 C114.148192,40.7616391 113.739045,43.2459084 112.676085,45.4005497 Z" id="Shape" fill="#FFF0CD"></path>
                                        <path d="M117.007291,34.6479969 C114.252371,-3.8356892 48.7994086,-1.54018419 22.0842722,2.80890432 C17.730725,3.51769226 14.4365962,7.18797178 14,11.7040859 C84.6271978,-0.647239873 102.987,17.1302751 112.294155,38.1883432 C113.630843,41.2119341 111.573124,46.6397579 110.077109,48.7382841 C114.178217,46.8067834 117.337779,39.2646073 117.007291,34.6479969 Z" id="Shape" fill="#FFE3A6"></path>
                                        <path d="M26,3.56377953 L26,9 C27.023,8.85826772 28.0115,8.73700787 29,8.61574803 L29,3.56377953 C29,3.36377953 28.9565,3.17637795 28.892,3 C27.899,3.12598425 26.954,3.25984252 26.033,3.39370079 C26.027,3.4519685 26,3.5023622 26,3.56377953 Z" id="Shape" fill="#E0AB36"></path>
                                        <path d="M88.5425361,5 C88.4674157,5.1279422 88.3749599,5.2391051 88.3248796,5.38802144 L86,12.3724074 C87.2481541,12.8799814 88.4250401,13.4274062 89.5537721,14 L91.9441413,6.81845724 C91.988443,6.68632021 91.9807384,6.55208576 92,6.41994873 C90.8731942,5.90817991 89.717496,5.43835936 88.5425361,5 Z" id="Shape" fill-opacity="0.05" fill="#000000"></path>
                                        <path d="M100.388132,21 L105.16401,13.4079451 C105.169356,13.3987628 104.23192,12.7024491 102.3517,11.3190041 L97.5972757,18.5320793 C98.4505235,19.3899718 99.6439455,20.0732401 100.388132,21 Z" id="Shape" fill-opacity="0.05" fill="#000000"></path>
                                        <path d="M114.661837,25.0584424 L108.782838,31.1586557 C109.420021,32.4356675 110.228732,33.6733517 110.779718,35 L116.348474,30.2108289 C115.94453,28.7578332 114.81733,24.8802023 114.661837,25.0584424 Z" id="Shape" fill-opacity="0.05" fill="#000000"></path>
                                        <path d="M42,0.466431095 L42,6 C43.0245,5.92661049 44.0175,5.87279152 45,5.82549606 L45,0.466431095 C45,0.300081544 44.955,0.150040772 44.913,0 C43.947,0.0456645828 42.996,0.104376189 42.054,0.169611307 C42.0375,0.270725741 42,0.362054906 42,0.466431095 Z" id="Shape" fill="#E0AB36"></path>
                                        <path d="M54,0.592735278 L54,5.8893781 C55.0275,5.90919097 56.025,5.94716566 57,6 L57,0.592735278 C57,0.414419373 56.955,0.249312053 56.907,0.0891579527 C55.9725,0.0462300495 55.038,0.0181618052 54.108,0 C54.0435,0.184920198 54,0.383048982 54,0.592735278 Z" id="Shape" fill="#E0AB36"></path>
                                        <path d="M73.3363627,3 C73.3229683,3.0283539 73.2942661,3.0472565 73.2827852,3.0756104 L71,8.46757679 C72.3203032,8.62509845 73.5985099,8.80152271 74.8269659,9 L76.8973545,4.11210291 C76.9815477,3.91205041 77.01025,3.70727225 76.9968556,3.50879496 C75.7856209,3.31976897 74.5667322,3.14964558 73.3363627,3 Z" id="Shape" fill="#E0AB36"></path>
                                        <path d="M68.2417204,31 C67.2258356,31 66.2301876,30.7226576 65.3620311,30.1880701 C64.1316368,29.4304029 63.2958591,28.2506929 63.0084973,26.8659907 C62.8749347,26.2208682 62.1626012,25.8209324 61.4097942,25.9696522 C60.0154822,26.2630724 58.5827204,26.0118565 57.3847049,25.2722768 C56.1543106,24.5146096 55.3185329,23.3348996 55.0311711,21.9501973 C54.9482004,21.554281 54.6669096,21.3271818 54.5070393,21.2307149 C54.1953934,21.0377811 53.8149425,20.9694504 53.4344917,21.0558686 C52.3336126,21.2709095 51.2691596,20.581573 51.042508,19.4963201 C50.8158564,18.4090576 51.5180716,17.3459118 52.6128797,17.1188126 C54.0071916,16.8274021 55.4419771,17.0766083 56.6399926,17.816188 C57.8703869,18.5718455 58.7061646,19.7535653 58.9955501,21.1382675 C59.0785208,21.5341838 59.3577879,21.761283 59.5176582,21.8577499 C59.8272804,22.048674 60.2077313,22.114995 60.5902058,22.0325962 C63.5245343,21.4477655 66.3839869,23.2364229 66.9708526,26.0540608 C67.0538232,26.4499771 67.3330904,26.6770763 67.4929607,26.7735432 C67.8025829,26.9644673 68.1830338,27.0307883 68.5655083,26.9483895 C69.6643638,26.7253097 70.7288167,27.4226852 70.957492,28.507938 C71.1841436,29.5952005 70.4819284,30.6583463 69.3871203,30.8854455 C69.0066694,30.9638249 68.6221712,31 68.2417204,31 Z" id="Shape" fill="#88C057"></path>
                                        <path d="M51.2005669,60 C50.0073114,60 49.027609,59.1138982 49.00119,58.0032084 C48.9725695,56.7945166 49.4613199,55.6123669 50.3463545,54.7548491 C51.2005669,53.9299985 52.338783,53.4604054 53.5540543,53.4359049 C53.6553269,53.4338632 53.8028327,53.2786933 53.7962279,53.041855 C53.769809,51.8719557 54.2101247,50.7571824 55.0379182,49.9017063 C55.9031385,49.0074377 57.0787814,48.5010938 58.3512938,48.478635 C58.4525664,48.4765933 58.6000722,48.3214234 58.5934674,48.0845851 C58.5670485,46.9575616 59.5313399,46.0224588 60.7488128,46 C60.7642238,46 60.7818364,46 60.7972475,46 C61.990503,46 62.972407,46.8861018 62.998826,47.9988333 C63.056067,50.4631763 61.0130022,52.5110106 58.4459617,52.5640951 C58.2808433,52.5661368 58.1971833,52.8050168 58.2015865,52.9561033 C58.2588275,55.4204463 56.2157627,57.4682806 53.6487222,57.521365 C53.488007,57.6193671 53.3977422,57.7275777 53.4021454,57.9113315 C53.4307659,59.0403967 52.4664745,59.9734578 51.2512032,59.9979583 C51.2335906,60 51.2181795,60 51.2005669,60 Z" id="Shape" fill="#659C35"></path>
                                        <path d="M24.0834264,47 C23.8041792,47 23.5186803,46.9420074 23.245685,46.8174307 C22.1912144,46.3406028 21.7139936,45.0712094 22.1766269,43.9886811 C22.770548,42.5990068 23.8312704,41.5143306 25.1691559,40.9365525 C26.5403843,40.3437394 28.0366488,40.3523309 29.3828701,40.9601791 C29.7704817,41.1341569 30.1247505,41.031059 30.3039688,40.9537355 C30.6519858,40.8055322 30.9312329,40.5134214 31.0916958,40.1353956 C32.3358043,37.2271746 35.5638178,35.8632748 38.2979389,37.1068937 C38.9210352,37.3882652 39.6920907,37.0209788 40.0088486,36.2799623 C40.4735659,35.1952861 41.7093386,34.7077188 42.7554734,35.180251 C43.80786,35.6592268 44.2871647,36.9264723 43.8224475,38.0111485 C42.5825069,40.9172217 39.3524095,42.2789736 36.6182883,41.0353547 C35.9910242,40.7475396 35.2241366,41.1212697 34.9073786,41.864434 C34.3155414,43.2519604 33.2527352,44.3366366 31.9148497,44.9144146 C30.5436212,45.5050799 29.0473567,45.4964884 27.7032194,44.8886401 C27.3176916,44.7168102 26.961339,44.8177603 26.7821206,44.8950838 C26.4341037,45.0454349 26.1548566,45.3375458 25.9943937,45.7155715 C25.6484607,46.523172 24.8857409,47 24.0834264,47 Z" id="Shape" fill="#659C35"></path>
                                        <path d="M43,58.0424404 C43,64.0934698 36.5874818,69 28.9460029,69 C19.898492,69 17,68.3880258 17,62.3369964 C17,56.285967 32.16491,52.0000001 35.2699854,52.0000001 C38.3750608,52.0000001 43,51.991411 43,58.0424404 Z" id="Shape" fill="#CD6E61"></path>
                                        <path d="M46,23.0424404 C46,29.0934698 39.5874818,34 31.9460029,34 C22.898492,34 20,33.3880258 20,27.3369964 C20,21.285967 35.16491,17.0000001 38.2699854,17.0000001 C41.3750608,17.0000001 46,16.991411 46,23.0424404 Z" id="Shape" fill="#CD6E61"></path>
                                        <path d="M94,35.0424404 C94,41.0934698 87.5874818,46 79.9460029,46 C70.898492,46 68,45.3880258 68,39.3369964 C68,33.285967 83.16491,29.0000001 86.2699854,29.0000001 C89.3750608,29.0000001 94,28.9892637 94,35.0424404 Z" id="Shape" fill="#CD6E61"></path>
                                        <circle id="Oval" fill="#D79C8C" cx="72.5" cy="36.5" r="1.5"></circle>
                                        <circle id="Oval" fill="#D79C8C" cx="86.5" cy="30.5" r="1.5"></circle>
                                        <circle id="Oval" fill="#D79C8C" cx="81.5" cy="36.5" r="1.5"></circle>
                                        <circle id="Oval" fill="#D79C8C" cx="27.5" cy="27.5" r="1.5"></circle>
                                        <circle id="Oval" fill="#D79C8C" cx="40.5" cy="23.5" r="1.5"></circle>
                                        <circle id="Oval" fill="#D79C8C" cx="33.5" cy="23.5" r="1.5"></circle>
                                        <circle id="Oval" fill="#D79C8C" cx="21.5" cy="58.5" r="1.5"></circle>
                                        <circle id="Oval" fill="#D79C8C" cx="30.5" cy="55.5" r="1.5"></circle>
                                        <circle id="Oval" fill="#D79C8C" cx="33.5" cy="58.5" r="1.5"></circle>
                                    </g>
                                </g>
                            </g>
                        </g>
                        <g id="Group-9" transform="translate(0.000000, 56.000000)">
                            <g id="Rectangle-10">
                                <use fill="#FFFFFF" fill-rule="evenodd" xlink:href="#path-10"></use>
                                <rect stroke="#EFF2F5" stroke-width="1" x="0.5" y="0.5" width="145" height="24"></rect>
                            </g>
                            <text id="Pizza" font-family="JosefinSans-Regular, Josefin Sans" font-size="8" font-weight="normal" fill="#434E5D">
                                <tspan x="7" y="16">Pizza</tspan>
                            </text>
                            <text id="$-5.00" font-family="JosefinSans-Regular, Josefin Sans" font-size="8" font-weight="normal" fill="#434E5D">
                                <tspan x="116" y="16">$ 5.00</tspan>
                            </text>
                        </g>
                        <g id="Group-9" transform="translate(0.000000, 80.000000)">
                            <g id="Rectangle-10">
                                <use fill="#FFFFFF" fill-rule="evenodd" xlink:href="#path-11"></use>
                                <path stroke="#EFF2F5" stroke-width="1" d="M0.5,0.5 L0.5,15 C0.5,20.2467051 4.75329488,24.5 10,24.5 L136,24.5 C141.246705,24.5 145.5,20.2467051 145.5,15 L145.5,0.5 L0.5,0.5 Z"></path>
                            </g>
                            <text id="ORDER" font-family="JosefinSans-Regular, Josefin Sans" font-size="8" font-weight="normal" fill="#3D5AFE">
                                <tspan x="59" y="15">ORDER</tspan>
                            </text>
                        </g>
                    </g>
                    <g id="Group-4" transform="translate(0.000000, 15.000000)">
                        <path d="M10,0 L112,0 L112,0 C117.522847,-1.01453063e-15 122,4.4771525 122,10 L122,23 L122,23 C122,28.5228475 117.522847,33 112,33 L0,33 L0,10 L0,10 C-6.76353751e-16,4.4771525 4.4771525,1.01453063e-15 10,0 Z" id="Rectangle-3" fill="#EFF2F5"></path>
                        <text id="Welcome!-This-is-Cha" font-family="JosefinSans-Regular, Josefin Sans" font-size="8" font-weight="normal" line-spacing="12" fill="#6F7785">
                            <tspan x="7" y="13">Welcome! This is Chatler, </tspan>
                            <tspan x="7" y="25">you’re personal butler.</tspan>
                        </text>
                        <rect id="Rectangle-3" fill="#EFF2F5" x="0" y="261" width="122" height="33" rx="10"></rect>
                        <text id="You-have-added-one-p" font-family="JosefinSans-Regular, Josefin Sans" font-size="8" font-weight="normal" line-spacing="12" fill="#6F7785">
                            <tspan x="7" y="274">You have added one pizza </tspan>
                            <tspan x="7" y="286">to your order!</tspan>
                        </text>
                    </g>
                    <g id="Group-4" transform="translate(0.000000, 50.000000)">
                        <path d="M0,0 L118,0 L118,0 C123.522847,-1.01453063e-15 128,4.4771525 128,10 L128,43 L0,43 L0,0 Z" id="Rectangle-3" fill="#EFF2F5"></path>
                        <text id="I-see-that-you-are-c" font-family="JosefinSans-Regular, Josefin Sans" font-size="8" font-weight="normal" line-spacing="12" fill="#6F7785">
                            <tspan x="7" y="12">I see that you are currently</tspan>
                            <tspan x="7" y="24">ordering from Seat 15 Row F</tspan>
                            <tspan x="7" y="36">in the Section 123.</tspan>
                        </text>
                    </g>
                    <g id="Group-5" transform="translate(0.000000, 93.000000)">
                        <g id="Rectangle-8">
                            <use fill="#FFFFFF" fill-rule="evenodd" xlink:href="#path-12"></use>
                            <path stroke="#EFF2F5" stroke-width="1" d="M0.5,0.5 L0.5,15 C0.5,20.2467051 4.75329488,24.5 10,24.5 L118,24.5 C123.246705,24.5 127.5,20.2467051 127.5,15 L127.5,0.5 L0.5,0.5 Z"></path>
                        </g>
                        <text id="ORDER" font-family="JosefinSans-Regular, Josefin Sans" font-size="8" font-weight="normal" fill="#3D5AFE">
                            <tspan x="50" y="15">ORDER</tspan>
                        </text>
                    </g>
                    <g id="Group-7" transform="translate(128.000000, 138.000000)">
                        <rect id="Rectangle-9" fill="#3D5AFE" x="0" y="0" width="50" height="20" rx="10"></rect>
                        <text id="ORDER" font-family="JosefinSans-Regular, Josefin Sans" font-size="8" font-weight="normal" fill="#FFFFFF">
                            <tspan x="11" y="13">ORDER</tspan>
                        </text>
                    </g>
                </g>
                <text id="Chatler" font-family="JosefinSans-Regular, Josefin Sans" font-size="12" font-weight="normal" fill="#434E5D">
                    <tspan x="90" y="22">Chatler</tspan>
                </text>
                <text id="Active-now" font-family="JosefinSans-Regular, Josefin Sans" font-size="8" font-weight="normal" fill="#6F7785">
                    <tspan x="91" y="33">Active now</tspan>
                </text>
            </g>
            <polygon id="Left-Arrow" fill="#434E5D" fill-rule="nonzero" transform="translate(13.656250, 25.500000) rotate(-270.000000) translate(-13.656250, -25.500000) " points="7.86213239 21.84375 7.15625 22.5883543 13.6582107 29.15625 20.15625 22.5883543 19.4582112 21.84375 13.6582107 27.7075085"></polygon>
            <g id="logo-icon" transform="translate(7.000000, 150.000000)">
                <rect id="Rectangle-11" fill="#3D5AFE" x="0" y="0" width="17" height="17" rx="8.5"></rect>
                <g transform="translate(2.000000, 5.000000)" id="Combined-Shape" fill="#FFFFFF">
                    <path d="M3.5,0 L9.5,0 L9.5,-4.4408921e-16 C11.4329966,-7.99174929e-16 13,1.56700338 13,3.5 L13,3.5 C13,5.43299662 11.4329966,7 9.5,7 L3.5,7 C1.56700338,7 2.36723813e-16,5.43299662 0,3.5 C-2.36723813e-16,1.56700338 1.56700338,-8.90034905e-17 3.5,-4.4408921e-16 L3.5,0 Z M3.54761905,4.32068966 C3.98155707,4.32068966 4.33333333,3.9640613 4.33333333,3.52413793 C4.33333333,3.08421456 3.98155707,2.72758621 3.54761905,2.72758621 C3.11368103,2.72758621 2.76190476,3.08421456 2.76190476,3.52413793 C2.76190476,3.9640613 3.11368103,4.32068966 3.54761905,4.32068966 Z M9.45238095,4.32068966 C9.88631897,4.32068966 10.2380952,3.9640613 10.2380952,3.52413793 C10.2380952,3.08421456 9.88631897,2.72758621 9.45238095,2.72758621 C9.01844293,2.72758621 8.66666667,3.08421456 8.66666667,3.52413793 C8.66666667,3.9640613 9.01844293,4.32068966 9.45238095,4.32068966 Z M6.5,4.34482759 C6.93393802,4.34482759 7.28571429,3.98819923 7.28571429,3.54827586 C6.73169836,3.54827586 6.15206897,3.54827586 5.71428571,3.54827586 C5.71428571,3.98819923 6.06606198,4.34482759 6.5,4.34482759 Z"></path>
                </g>
            </g>
            <g id="logo-icon" transform="translate(7.000000, 341.000000)">
                <rect id="Rectangle-11" fill="#3D5AFE" x="0" y="0" width="17" height="17" rx="8.5"></rect>
                <g transform="translate(2.000000, 5.000000)" id="Combined-Shape" fill="#FFFFFF">
                    <path d="M3.5,0 L9.5,0 L9.5,-4.4408921e-16 C11.4329966,-7.99174929e-16 13,1.56700338 13,3.5 L13,3.5 C13,5.43299662 11.4329966,7 9.5,7 L3.5,7 C1.56700338,7 2.36723813e-16,5.43299662 0,3.5 C-2.36723813e-16,1.56700338 1.56700338,-8.90034905e-17 3.5,-4.4408921e-16 L3.5,0 Z M3.54761905,4.32068966 C3.98155707,4.32068966 4.33333333,3.9640613 4.33333333,3.52413793 C4.33333333,3.08421456 3.98155707,2.72758621 3.54761905,2.72758621 C3.11368103,2.72758621 2.76190476,3.08421456 2.76190476,3.52413793 C2.76190476,3.9640613 3.11368103,4.32068966 3.54761905,4.32068966 Z M9.45238095,4.32068966 C9.88631897,4.32068966 10.2380952,3.9640613 10.2380952,3.52413793 C10.2380952,3.08421456 9.88631897,2.72758621 9.45238095,2.72758621 C9.01844293,2.72758621 8.66666667,3.08421456 8.66666667,3.52413793 C8.66666667,3.9640613 9.01844293,4.32068966 9.45238095,4.32068966 Z M6.5,4.34482759 C6.93393802,4.34482759 7.28571429,3.98819923 7.28571429,3.54827586 C6.73169836,3.54827586 6.15206897,3.54827586 5.71428571,3.54827586 C5.71428571,3.98819923 6.06606198,4.34482759 6.5,4.34482759 Z"></path>
                </g>
            </g>
        </g>
    </g>
</svg>