<?xml version="1.0" encoding="UTF-8"?>
<svg width="594px" height="426px" viewBox="0 0 594 426" version="1.1" xmlns="http://www.w3.org/2000/svg" xmlns:xlink="http://www.w3.org/1999/xlink">
    <!-- Generator: Sketch 47.1 (45422) - http://www.bohemiancoding.com/sketch -->
    <title>stadium</title>
    <desc>Created with Sketch.</desc>
    <defs>
        <filter x="0.0%" y="0.0%" width="100.0%" height="100.0%" filterUnits="objectBoundingBox" id="filter-1">
            <feGaussianBlur stdDeviation="0" in="SourceGraphic"></feGaussianBlur>
        </filter>
        <path d="M1.13686838e-13,90.8075525 C4.70769957,105.917186 11.3190903,120.363453 19.8341722,134.146353 C32.606795,154.820703 56.7063682,167.693058 90.6001077,180.082572 C124.493847,192.472087 174.331139,184.42575 191.269195,177.684396 C208.207252,170.943042 324.960938,101.535569 347.955872,86.3085488 C358.026025,79.6401923 367.767347,66.507597 375.682879,42.4370623 C378.275634,34.5526921 383.896309,20.4070047 392.544905,0" id="path-2"></path>
        <polygon id="path-4" points="0 83.3339315 138.102013 0 205 41.6669657 72.038422 128"></polygon>
        <path d="M75.2552867,100.436112 C121.102121,72.7042467 186.633815,34.8901911 212.004544,19.1608673 C231.333826,7.17711449 269.988712,-0.628879466 307.064329,0.829516014 C349.849641,2.51250636 394.789945,15.9459502 420.789333,35.2518699 C452.467919,58.7748933 459.639025,72.9304219 461.187137,94.2193848 C462.597187,113.609786 458.219036,135.79531 429.493998,154.073301 C400.768959,172.351292 264.994274,253.609218 246.205016,262.53494 C227.415757,271.460661 213.955155,278.828797 165.115931,279.571126 C113.300425,280.358693 71.2084963,262.615727 56.9822585,253.809211 C25.1454781,234.101181 6.50250664,216.665115 1.62258421,195.740272 C-0.338420277,187.331591 -0.931138671,167.649942 6.29678784,154.073301 C18.4859279,131.17772 47.7491975,117.074015 75.2552867,100.436112 Z M218.792759,31.9254921 C210.906571,36.0640441 173.374578,59.2129337 134.698442,82.6327814 C105.585779,100.261589 75.4287695,114.801885 62.0979144,133.206961 C48.6988748,151.706176 52.2657148,179.063661 82.4746291,197.356846 C112.683543,215.650031 152.524222,211.414643 165.888038,209.517261 C197.115707,205.083584 225.758402,187.639395 229.73219,186.041521 C241.504194,181.307957 323.094176,129.15102 341.091228,119.457682 C351.322833,113.946868 378.476222,94.2031175 384.152827,71.650334 C388.461181,54.5335216 374.40251,33.7114793 365.838609,28.3287424 C351.53091,19.3358105 323.550786,10.0694633 297.483013,10.2463968 C268.15488,10.4454598 244.878457,18.2361141 218.792759,31.9254921 Z" id="path-6"></path>
    </defs>
    <g id="Website" stroke="none" stroke-width="1" fill="none" fill-rule="evenodd">
        <g id="Home" transform="translate(-771.000000, -179.000000)">
            <g id="stadium" transform="translate(771.000000, 179.000000)">
                <ellipse id="Oval-9" fill="#FFFFFF" opacity="0.1" cx="297" cy="244" rx="297" ry="182"></ellipse>
                <path d="M113,266.228194 C115.438295,276.945795 117.847807,284.469008 120.228536,288.797833 C123.79963,295.291071 136.84635,317.754501 183.694805,335.427967 C230.543261,353.101432 296.25883,361.546696 343.084634,335.427967 C389.910438,309.309237 446.773067,272.5606 480.024589,252.504066 C513.27611,232.447532 537.168966,224.885531 540.601662,194.750894 C542.890126,174.661137 535.318118,156.410838 517.885638,140 L113,266.228194 Z" id="Path-20" fill="#000000" opacity="0.1" filter="url(#filter-1)"></path>
                <g id="Path-4" transform="translate(106.000000, 157.000000)">
                    <mask id="mask-3" fill="white">
                        <use xlink:href="#path-2"></use>
                    </mask>
                    <use id="Mask" fill="#6E84FF" opacity="0.75" xlink:href="#path-2"></use>
                    <path d="M0.397799428,102.651186 C22.0194831,126.399041 52.6998318,142.046257 92.404361,149.603125 C120.262933,154.90538 142.150121,155.686792 161.075967,152.627296 C176.002196,150.214366 187.217304,146.176915 205.465666,137.65956 C217.367546,132.104403 249.202357,113.371821 294.11188,85.9024002 C310.089588,76.129453 326.711482,65.8669032 343.120611,55.6686105 C349.051966,51.9822658 354.600713,48.5246747 359.67133,45.3578311 C362.982298,43.2899734 365.461759,41.7383776 367.439901,40.4986047 C371.991656,37.6458558 377.769633,32.3422226 384.805178,24.5761589 L383.28975,23.2077475 C376.369299,30.8467659 370.713436,36.03831 366.353509,38.7708335 C364.376226,40.0100681 361.897658,41.5611048 358.587663,43.6283552 C353.518273,46.7944323 347.970789,50.2512365 342.040751,53.9367624 C325.635468,64.1326652 309.017582,74.3927399 293.044423,84.1629044 C248.229305,111.574581 216.39876,130.304654 204.600295,135.811543 C186.508639,144.255755 175.449065,148.237214 160.749364,150.613524 C142.075241,153.632327 120.424275,152.859349 92.7870059,147.599214 C53.4940151,140.120673 23.213114,124.677178 1.90981815,101.27902 L0.397799428,102.651186 Z" fill="#FFFFFF" fill-rule="nonzero" mask="url(#mask-3)"></path>
                </g>
                <path d="M93.011704,132.686939 C111.729579,117.849799 237.484301,45.360354 278.496242,19.8119497 C299.247891,6.88470201 338.319225,-1.25509521 378.302753,1.55446407 C419.163311,4.42565051 461.052994,17.1572054 485.771197,35.5997397 C517.695677,59.4189604 527.206829,76.7316234 528.766958,98.2886527 C530.187954,117.923214 525.775819,140.388094 496.827811,158.896237 C467.879803,177.404381 331.05121,259.685491 312.116105,268.723603 C293.181001,277.761716 279.615915,285.22263 230.397592,285.974306 C178.179884,286.77179 135.76123,268.805407 121.424566,259.888002 C89.3406621,239.931813 70.5529803,222.276196 65.635179,201.087871 C63.6589528,192.573309 61.9003726,173.600683 70.3456647,158.896237 C75.6073716,149.734863 74.2938288,147.524079 93.011704,132.686939 Z" id="Path-2" fill="#95A5FA"></path>
                <polyline id="Path-9" stroke="#FFFFFF" stroke-width="3" points="348 70 348 121.420188 388.063123 145 389 95.098045"></polyline>
                <path d="M169,205.581233 C169.426013,202.511623 171.745259,198.932914 175.957736,194.845106 C187.360111,183.780187 205.931641,175.240338 213.82779,169.998641 C224.492408,162.919153 250.096529,147.863907 290.640153,124.832904 C302.727377,118.390513 316.782567,115.113545 332.805721,115.002001 C348.828875,114.890457 368.874606,119.443032 392.942913,128.659727 L404,136.028905 L249.733732,225 L182.74715,216.268057 L169,205.581233 Z" id="Path-14" fill="#FFFFFF" opacity="0.6"></path>
                <g id="Path-27" transform="translate(196.000000, 126.000000)">
                    <mask id="mask-5" fill="white">
                        <use xlink:href="#path-4"></use>
                    </mask>
                    <use id="Mask" fill="#66CFB0" xlink:href="#path-4"></use>
                    <polygon fill="#000000" opacity="0.1" mask="url(#mask-5)" points="118.396415 12.0949237 193.007186 59.7751483 216.216586 37.2356131 135.568638 -4.33374323"></polygon>
                    <polygon fill="#000000" opacity="0.1" mask="url(#mask-5)" points="83.7869473 28.6843121 161.975062 81.6878708 176.960617 73.0760295 99.1405876 18.135374"></polygon>
                    <polygon fill="#000000" opacity="0.1" mask="url(#mask-5)" points="55.8292135 50.0605115 134.017328 103.06407 149.002883 94.4522289 71.1828539 39.5115734"></polygon>
                    <polygon fill="#000000" opacity="0.1" mask="url(#mask-5)" points="23.7343033 67.4591008 101.922418 120.46266 116.907973 111.850818 39.0879436 56.9101627"></polygon>
                </g>
                <path d="M364.5,132 L364.5,146" id="Path-12" stroke="#FFFFFF" stroke-width="3"></path>
                <g id="Path-5" transform="translate(67.000000, 0.000000)">
                    <mask id="mask-7" fill="white">
                        <use xlink:href="#path-6"></use>
                    </mask>
                    <use id="Mask" fill="#FFFFFF" xlink:href="#path-6"></use>
                    <polygon fill="#E2E7EC" fill-rule="nonzero" mask="url(#mask-7)" points="51.1202169 250.121667 81.8746548 196.853374 80.098718 195.829553 49.3442802 249.097845"></polygon>
                    <polygon id="Path-6" fill="#E2E7EC" fill-rule="nonzero" mask="url(#mask-7)" points="286.312125 153.012606 342.011829 209.354069 343.47042 207.914223 287.770716 151.57276"></polygon>
                    <polygon id="Path-11" fill="#E2E7EC" fill-rule="nonzero" mask="url(#mask-7)" points="359.761621 29.3637732 424.004225 33.4613342 424.134829 31.4167146 359.892225 27.3191536"></polygon>
                    <polygon id="Path-10" fill="#E2E7EC" fill-rule="nonzero" mask="url(#mask-7)" points="109.737378 76.4867483 154.843887 74.4379678 154.750788 72.3913005 109.644279 74.440081"></polygon>
                </g>
                <path d="M179.5,170 L179.5,208" id="Path-7" stroke="#FFFFFF" stroke-width="3"></path>
                <path d="M222.5,194 L222.5,211.5" id="Path-8" stroke="#FFFFFF" stroke-width="3"></path>
                <path d="M130.150412,182.577376 L128.47303,174.581746 C124.806355,156.525534 128.189624,143.50556 138.56105,135.354448 C146.080117,129.445062 155.567089,122.703048 166.937158,115.10793 C170.802124,112.526162 174.869381,109.856106 179.163152,107.078201 C191.931596,98.8175067 229.562059,75.4185526 233.494954,72.8278429 C254.76555,58.8162968 261.707948,54.4323872 271.673485,49.0993213 C293.947863,37.1791678 314.802445,31.5501835 345.08107,30.1953036 C379.01881,28.6766891 417.418537,42.6394583 452.697896,65.2658386 L452.697896,62.6956973 C417.080885,39.8527645 379.374203,26.6068955 344.989954,28.14549 C314.409799,29.5138624 293.257267,35.2232685 270.71105,47.2888966 C260.669185,52.6628097 253.700477,57.0633324 232.372575,71.1126282 C228.467506,73.6850085 190.846765,97.0779171 178.054896,105.353766 C173.753066,108.136886 169.677513,110.812388 165.803819,113.399986 C154.39365,121.02189 144.866639,127.792359 137.299967,133.739157 C126.2491,142.424256 122.660317,156.235119 126.470494,174.997879 L128.149215,183 L130.150412,182.577376 Z" id="Path-15" fill="#FFFFFF" fill-rule="nonzero" opacity="0.2"></path>
                <path d="M127.009536,178 C129.495147,165.674224 135.306355,156.076711 144.45687,149.160776 C157.171076,139.551415 277.270971,68.9395068 294.095927,60.7630143 C306.809233,54.5846771 316.070927,52.3299879 338.57841,48.9952191 C359.585406,45.8827663 391.615309,50.4602966 413.700587,61.835059 C430.387271,70.4293388 441.719138,77.292347 447.663096,82.3907375 L449,80.8418676 C442.902772,75.6120106 431.460952,68.6824109 414.641446,60.0197225 C392.158905,48.4403549 359.694907,43.8007861 338.27707,46.97411 C315.576748,50.3374505 306.148107,52.6327816 293.197723,58.9263325 C276.261532,67.1568822 156.050591,137.834079 143.218499,147.532539 C133.659193,154.757436 127.58179,164.794583 125,177.597295 L127.009536,178 Z" id="Path-16" fill="#FFFFFF" fill-rule="nonzero" opacity="0.4"></path>
                <path d="M131.873009,185 C134.495068,179.049618 139.360473,173.152756 146.483882,167.321522 C151.801476,162.968531 175.358812,148.862637 216.053305,125.319687 C216.675064,124.959981 217.301945,124.597419 217.934281,124.231805 C224.116118,120.657494 270.008802,94.2343979 278.517849,89.2661435 C294.433385,79.9733943 306.703099,74.4376698 318.172052,71.2667766 C328.227918,68.4865685 337.505173,67.4308584 351.927975,67.0686349 C364.832726,66.7445368 385.62861,70.0627794 401.714435,76.1193863 C409.80781,79.16669 421.869712,86.0370155 437.863102,96.7208899 L439,95.0187075 C422.886447,84.2545618 410.710666,77.3193721 402.435618,74.2036653 C386.096783,68.0517953 365.038755,64.6917243 351.876591,65.0222873 C337.301184,65.3883433 327.871104,66.4614444 317.626659,69.29379 C305.968319,72.5170444 293.542811,78.1230582 277.485859,87.4983767 C268.983161,92.462925 223.096521,118.88254 216.909811,122.459669 C216.277329,122.825368 215.650301,123.188016 215.028392,123.547808 C174.108264,147.221294 150.640773,161.27339 145.187424,165.737509 C137.83218,171.758524 132.76482,177.900156 130,184.174513 L131.873009,185 Z" id="Path-17" fill="#FFFFFF" fill-rule="nonzero" opacity="0.6"></path>
                <path d="M141.660005,192 C144.804018,187.655603 149.563107,183.507241 155.94358,179.566173 C162.413514,175.569847 205.979053,150.603335 286.559346,104.713605 C306.975288,93.0783468 329.181336,87.534545 353.197849,88.0786854 C377.231377,88.6232114 402.449087,96.3158582 425.632453,108.961638 L426.61474,107.169832 C403.150645,94.3709236 377.6137,86.5891354 353.24434,86.0370005 C328.857963,85.48448 306.284484,91.1200118 285.54398,102.940242 C204.901731,148.865255 161.369169,173.812869 154.865727,177.829892 C148.272822,181.902173 143.315478,186.223348 140,190.804676 L141.660005,192 Z" id="Path-18" fill="#FFFFFF" fill-rule="nonzero" opacity="0.8"></path>
                <path d="" id="Path-19" stroke="#979797"></path>
                <g id="Group-2" transform="translate(338.000000, 280.000000)">
                    <polygon id="Path-3" fill="#FFFFFF" points="0.60614555 31.6824216 0.60614555 7.27860002 12.223132 0.229919291 23.9069679 18.2843608 23.9069679 31.3586484 12.6729951 38.6217224"></polygon>
                    <polygon id="Path-21" fill="#9EACFE" points="23.8262881 18.3014976 12.4218268 25.5235409 12.4218268 38.8473222 23.8262881 31.4072644"></polygon>
                    <polygon id="Path-22" fill="#EBEEFE" points="0.593677593 7.26948918 12.4644661 25.4690989 12.4644661 38.5349045 0.593677593 31.6827984"></polygon>
                    <polygon id="Path-23" fill="#CED6FF" points="3.59517777 11.7393417 3.59517777 33.3218516 8.73742106 36.2912787 8.73742106 19.6337414"></polygon>
                </g>
                <g id="Group-2" transform="translate(390.000000, 251.000000)">
                    <polygon id="Path-3" fill="#FFFFFF" points="0.60614555 31.6824216 0.60614555 7.27860002 12.223132 0.229919291 23.9069679 18.2843608 23.9069679 31.3586484 12.6729951 38.6217224"></polygon>
                    <polygon id="Path-21" fill="#9EACFE" points="23.8262881 18.3014976 12.4218268 25.5235409 12.4218268 38.8473222 23.8262881 31.4072644"></polygon>
                    <polygon id="Path-22" fill="#EBEEFE" points="0.593677593 7.26948918 12.4644661 25.4690989 12.4644661 38.5349045 0.593677593 31.6827984"></polygon>
                    <polygon id="Path-23" fill="#CED6FF" points="3.59517777 11.7393417 3.59517777 33.3218516 8.73742106 36.2912787 8.73742106 19.6337414"></polygon>
                </g>
                <g id="Group-2" transform="translate(435.000000, 224.000000)">
                    <polygon id="Path-3" fill="#FFFFFF" points="0.60614555 31.6824216 0.60614555 7.27860002 12.223132 0.229919291 23.9069679 18.2843608 23.9069679 31.3586484 12.6729951 38.6217224"></polygon>
                    <polygon id="Path-21" fill="#9EACFE" points="23.8262881 18.3014976 12.4218268 25.5235409 12.4218268 38.8473222 23.8262881 31.4072644"></polygon>
                    <polygon id="Path-22" fill="#EBEEFE" points="0.593677593 7.26948918 12.4644661 25.4690989 12.4644661 38.5349045 0.593677593 31.6827984"></polygon>
                    <polygon id="Path-23" fill="#CED6FF" points="3.59517777 11.7393417 3.59517777 33.3218516 8.73742106 36.2912787 8.73742106 19.6337414"></polygon>
                </g>
            </g>
        </g>
    </g>
</svg>