<?xml version="1.0" encoding="UTF-8"?>
<svg width="331px" height="374px" viewBox="0 0 331 374" version="1.1" xmlns="http://www.w3.org/2000/svg" xmlnsXlink="http://www.w3.org/1999/xlink">
    <g id="Brand" stroke="none" strokeWidth="1" fill="none" fillRule="evenodd">
        <g id="Group-10" transform="translate(-38.000000, -17.000000)">
            <rect id="Rectangle-2" x="0" y="0" width="407" height="407"></rect>
            <g id="Group-9" transform="translate(38.000000, 17.000000)" fill="#FFFFFF">
                <path d="M203.867068,281.930851 C230.720766,280.92461 254.782045,269.002045 271.742221,250.47184 L331,321.5 C314.99992,337.50008 295.33345,350.249953 272,359.75 C248.66655,369.250047 222.166815,374 192.5,374 C165.8332,374 140.750117,369.500045 117.25,360.5 C93.7498825,351.499955 73.33342,338.750083 56,322.25 C38.66658,305.749917 25.00005,286.083447 15,263.25 C4.99995,240.416553 0,215.00014 0,187 C0,158.666525 4.99995,133.000115 15,110 C25.00005,86.999885 38.66658,67.333415 56,51 C73.33342,34.666585 93.7498825,22.0833775 117.25,13.25 C140.750117,4.4166225 165.8332,0 192.5,0 C219.83347,0 245.666545,4.4166225 270,13.25 C294.333455,22.0833775 314.666585,33.999925 331,49 L272.135287,119.960202 C254.385197,100.332349 228.717888,88 200.170203,88 C146.598583,88 103.170203,131.428379 103.170203,185 C103.170203,219.36902 121.044887,249.563185 148.005092,266.793331 C144.684024,272.167775 141.644993,276.188292 138.887998,278.85488 C134.672258,282.932379 125.768973,289.015825 112.178142,297.105217 C124.352248,300.183071 138.130722,301.218875 153.513564,300.212629 C168.662219,299.221702 185.44672,293.127776 203.867068,281.930851 Z" id="Combined-Shape"></path>
                <circle id="Oval-8" cx="157" cy="185" r="12"></circle>
                <circle id="Oval-8" cx="196" cy="185" r="12"></circle>
                <circle id="Oval-8" cx="233" cy="185" r="12"></circle>
            </g>
        </g>
    </g>
</svg>
