<?xml version="1.0" encoding="UTF-8"?>
<svg width="286px" height="221px" viewBox="0 0 286 221" version="1.1" xmlns="http://www.w3.org/2000/svg" xmlns:xlink="http://www.w3.org/1999/xlink">
    <!-- Generator: Sketch 47.1 (45422) - http://www.bohemiancoding.com/sketch -->
    <title>venue-ill</title>
    <desc>Created with Sketch.</desc>
    <defs>
        <path d="M262.355953,124.856615 L262.355953,128.769454 L262.355953,128.769454 C262.355953,142.576573 251.163071,153.769454 237.355953,153.769454 L25,153.769454 L25,153.769454 C11.1928813,153.769454 5.24359806e-15,142.576573 3.55271368e-15,128.769454 L3.4183574e-15,124.845108 C8.55236762,124.522817 15.3867563,117.487859 15.3867563,108.856644 C15.3867563,100.225429 8.55236762,93.190471 6.57807142e-15,92.8681796 L1.26145137e-15,61.8451083 C8.55236762,61.5228169 15.3867563,54.4878589 15.3867563,45.8566439 C15.3867563,37.2254289 8.55236762,30.190471 4.19109192e-15,29.8681796 L0,25 L3.55271368e-15,25 C1.8618293e-15,11.1928813 11.1928813,2.53632657e-15 25,0 L237.355953,0 C251.163071,-1.47995115e-14 262.355953,11.1928813 262.355953,25 L262.355953,29.856673 C253.533559,29.8732974 246.386756,37.0303581 246.386756,45.8566439 C246.386756,54.6829298 253.533559,61.8399905 262.355953,61.8566149 L262.355953,92.856673 C253.533559,92.8732974 246.386756,100.030358 246.386756,108.856644 C246.386756,117.68293 253.533559,124.83999 262.355953,124.856615 Z" id="path-1"></path>
    </defs>
    <g id="Illustration" stroke="none" stroke-width="1" fill="none" fill-rule="evenodd">
        <g id="Venues" transform="translate(-88.000000, -106.000000)">
            <g id="venue-ill" transform="translate(48.000000, 63.000000)">
                <g transform="translate(183.545987, 153.972837) rotate(-20.000000) translate(-183.545987, -153.972837) translate(51.545987, 76.472837)">
                    <g id="Rectangle-5" transform="translate(132.132685, 77.260017) rotate(-360.000000) translate(-132.132685, -77.260017) translate(0.632685, 0.260017)">
                        <mask id="mask-2" fill="white">
                            <use xlink:href="#path-1"></use>
                        </mask>
                        <use id="Combined-Shape" fill="#CCDEEC" xlink:href="#path-1"></use>
                        <rect fill="#B2C9DC" mask="url(#mask-2)" x="222" y="0" width="40" height="154"></rect>
                        <rect fill="#B2C9DC" mask="url(#mask-2)" x="-1" y="0" width="40" height="154"></rect>
                    </g>
                    <g id="Group-2" transform="translate(91.000000, 37.000000)">
                        <g id="Group" fill-rule="nonzero" fill="#3D5AFE">
                            <path d="M40.5209636,74.9097744 C44.842548,74.9097744 49.0563162,74.111024 53.0008204,72.5734079 C53.7849608,72.2677403 54.1733173,71.3830488 53.8682389,70.5973941 C53.5631606,69.8117393 52.6801743,69.4226328 51.8960339,69.7283003 C48.3023495,71.1291626 44.4630919,71.8569218 40.5209636,71.8569218 C39.6795666,71.8569218 38.9974795,72.5403262 38.9974795,73.3833481 C38.9974795,74.2263701 39.6795666,74.9097744 40.5209636,74.9097744 Z M58.6948085,69.7178774 C58.8749527,69.605501 59.0540552,69.4914597 59.2320935,69.37577 C59.9380248,68.917054 60.1391492,67.9718157 59.6813174,67.264521 C59.2234855,66.5572264 58.2800691,66.3557136 57.5741378,66.8144296 C57.4118401,66.9198911 57.2485751,67.023848 57.0843636,67.1262854 C56.3700947,67.5718563 56.1515756,68.5132105 56.5962877,69.2288589 C57.0409998,69.9445073 57.9805396,70.1634483 58.6948085,69.7178774 Z M68.4601149,60.5771966 C67.9677853,61.2608343 67.0155437,61.4151494 66.3332237,60.921869 C65.6509037,60.4285886 65.4968861,59.474508 65.9892157,58.7908703 C67.1250475,57.21368 68.1130718,55.5343987 68.9390784,53.7740032 C69.2970525,53.0110844 70.2045237,52.6833722 70.965972,53.0420377 C71.7274203,53.4007031 72.0545007,54.3099268 71.6965266,55.0728456 C70.7900915,57.0046514 69.7060744,58.8470855 68.4601149,60.5771966 Z M71.9410764,54.53988 C71.5961649,55.3088158 70.6944148,55.6520153 69.9269612,55.3064377 C69.1595076,54.9608601 68.8169696,54.0573685 69.1618811,53.2884328 C70.7459798,49.7568891 71.6676664,45.9496147 71.8646857,42.0157549 C71.9068537,41.1737923 72.6222675,40.5254967 73.4626072,40.5677461 C74.302947,40.6099955 74.949993,41.3267909 74.907825,42.1687535 C74.6917146,46.4838032 73.6798886,50.6634226 71.9410764,54.53988 Z M74.641029,35.7597492 C74.6126035,35.5485908 74.5822434,35.3378309 74.5499552,35.1274892 C74.4220521,34.2942644 73.644206,33.7226883 72.8125872,33.8508384 C71.9809684,33.9789885 71.4104941,34.7583368 71.5383972,35.5915616 C71.5678239,35.7832624 71.5954946,35.9753518 71.621403,36.1678128 C71.7338695,37.0032698 72.5010078,37.5891934 73.3348545,37.4765097 C74.1687012,37.3638261 74.7534954,36.5952063 74.641029,35.7597492 Z M70.3200352,23.1204201 C70.7423795,23.849544 70.4948249,24.7836546 69.7671064,25.2068146 C69.0393879,25.6299746 68.1070777,25.3819419 67.6847333,24.652818 C66.7104794,22.9708923 65.5819732,21.3824473 64.3152649,19.908218 C63.7663136,19.2693335 63.8382204,18.3055429 64.4758735,17.7555314 C65.1135265,17.2055199 66.0754594,17.2775656 66.6244108,17.9164501 C68.0135519,19.5331701 69.2512859,21.2753603 70.3200352,23.1204201 Z M66.2067163,17.4392278 C66.7672439,18.0679409 66.712951,19.0328885 66.0854497,19.5944986 C65.4579485,20.1561087 64.4948608,20.1017109 63.9343333,19.4729978 C61.3425696,16.5659585 58.2331439,14.1593039 54.7692141,12.3876782 C54.0198085,12.004395 53.7224088,11.084996 54.1049533,10.3341432 C54.4874977,9.58329034 55.4051245,9.28531629 56.1545301,9.66859952 C59.9547046,11.6121975 63.3646863,14.2514784 66.2067163,17.4392278 Z M50.2438908,7.31039118 C50.0399169,7.2503396 49.835327,7.19217858 49.6301425,7.13591762 C48.8185873,6.91339157 47.9806466,7.3921646 47.7585494,8.20528709 C47.5364523,9.01840959 48.0143025,9.85796861 48.8258577,10.0804947 C49.012749,10.1317397 49.1990976,10.1847151 49.3848844,10.2394122 C50.1921522,10.4770784 51.0388672,10.0140612 51.2760753,9.20523434 C51.5132834,8.39640752 51.0511586,7.54805734 50.2438908,7.31039118 Z M36.9533098,6.09837835 C37.7902788,6.0120036 38.5386619,6.62179079 38.6248701,7.46037616 C38.7110784,8.29896154 38.1024666,9.04878988 37.2654976,9.13516464 C35.3236516,9.33556211 33.4175188,9.71505634 31.5651698,10.2666143 C30.758636,10.506769 29.9105025,10.0463652 29.6708108,9.23827376 C29.4311191,8.43018231 29.8906354,7.58041096 30.6971693,7.34025633 C32.7305781,6.73478572 34.8227682,6.31824911 36.9533098,6.09837835 Z M30.0888055,7.52759898 C30.8907351,7.27243503 31.7472801,7.71693164 32.0019522,8.52040995 C32.2566243,9.32388826 31.8129845,10.1820874 31.0110549,10.4372513 C27.2981809,11.6186413 23.8458418,13.4863714 20.8207465,15.933548 C20.1660953,16.4631336 19.2069092,16.360723 18.6783443,15.7048076 C18.1497795,15.0488921 18.2519926,14.0878536 18.9066438,13.558268 C22.224964,10.8738847 26.0133225,8.82436661 30.0888055,7.52759898 Z M14.3256919,18.0237595 C14.187648,18.1857494 14.0510971,18.3490097 13.9160583,18.5135184 C13.3815956,19.1646185 13.4751316,20.1265437 14.1249767,20.6620385 C14.7748218,21.1975334 15.7348929,21.1038168 16.2693555,20.4527167 C16.3925031,20.3026943 16.5170307,20.1538091 16.642921,20.006081 C17.1892689,19.3649601 17.1134419,18.4014711 16.4735567,17.8540682 C15.8336716,17.3066652 14.8720397,17.3826386 14.3256919,18.0237595 Z M7.80508823,29.6325419 C8.0678138,28.8316708 8.92877782,28.395829 9.7281052,28.659062 C10.5274326,28.9222949 10.9624343,29.7849217 10.6997087,30.5857927 C10.0960209,32.4260252 9.66295511,34.3240749 9.40806715,36.2614108 C9.29810521,37.0972024 8.53272642,37.6854315 7.69854577,37.5752572 C6.86436513,37.4650829 6.27726987,36.698226 6.38723181,35.8624343 C6.66694989,33.7363711 7.14234921,31.6527811 7.80508823,29.6325419 Z M6.30796246,36.5124604 C6.40208859,35.6747301 7.15619849,35.0720672 7.99231406,35.1663751 C8.82842963,35.260683 9.42993093,36.0162493 9.3358048,36.8539796 C9.2042291,38.0250141 9.13767026,39.2080871 9.13719366,40.399036 C9.13719112,43.1509741 9.48624988,45.8435576 10.1698204,48.4440539 C10.3841111,49.2592766 9.89823329,50.0941975 9.08458197,50.3089021 C8.27093064,50.5236066 7.43761899,50.0367905 7.22332829,49.2215678 C6.47315695,46.367703 6.09022266,43.4138091 6.09022556,40.3984227 C6.0907478,39.0931059 6.16369816,37.7964246 6.30796246,36.5124604 Z M9.41504838,55.2203684 C9.50632214,55.4125155 9.59936916,55.6037937 9.69417579,55.7941804 C10.0698156,56.5485247 10.98467,56.8549372 11.7375602,56.4785719 C12.4904504,56.1022066 12.7962723,55.1855855 12.4206325,54.4312412 C12.3342479,54.2577673 12.2494681,54.0834841 12.1663056,53.9084126 C11.8047173,53.1472066 10.8957021,52.8238186 10.1359634,53.1861053 C9.37622474,53.5483919 9.05346008,54.4591625 9.41504838,55.2203684 Z M17.3594428,65.9379202 C16.737034,65.3706498 16.6914492,64.40525 17.2576261,63.7816392 C17.8238031,63.1580285 18.7873422,63.1123556 19.4097509,63.679626 C20.8460526,64.9886876 22.4001212,66.1625613 24.0514269,67.1846093 C24.767256,67.6276598 24.989079,68.5682379 24.5468826,69.2854494 C24.1046861,70.0026609 23.1659209,70.2249123 22.4500918,69.7818619 C20.6388064,68.660797 18.9344698,67.3734178 17.3594428,65.9379202 Z M23.0128145,70.1227541 C22.2886696,69.6934841 22.0489556,68.7573227 22.4773982,68.0317794 C22.9058409,67.306236 23.8401978,67.066059 24.5643427,67.4953291 C27.9018637,69.4737977 31.5807134,70.8181156 35.4412337,71.4473783 C36.2717125,71.582746 36.8354231,72.3670194 36.7003164,73.1991021 C36.5652097,74.0311848 35.7824479,74.595984 34.951969,74.4606164 C30.7144345,73.7699005 26.6755977,72.2940368 23.0128145,70.1227541 Z" id="Oval"></path>
                            <path d="M40.4968941,68.8195489 C44.8742475,68.8195489 49.1128876,67.8247445 52.9590286,65.937524 C53.7139991,65.5670759 54.0256831,64.6548109 53.6551944,63.8999232 C53.2847057,63.1450354 52.3723407,62.8333855 51.6173702,63.2038337 C48.186531,64.8872743 44.4065348,65.7744354 40.4968941,65.7744354 C39.6559171,65.7744354 38.9741706,66.4561073 38.9741706,67.2969922 C38.9741706,68.137877 39.6559171,68.8195489 40.4968941,68.8195489 Z M58.3623698,62.4758952 C58.5287971,62.3404706 58.6936897,62.203166 58.8570143,62.0640104 C59.4971202,61.5186284 59.5738607,60.5576574 59.028419,59.9176216 C58.4829773,59.2775858 57.521901,59.2008537 56.881795,59.7462357 C56.7359437,59.8705037 56.5886941,59.9931171 56.4400763,60.1140499 C55.7877993,60.6448184 55.6893443,61.6038084 56.220171,62.256014 C56.7509976,62.9082195 57.7100927,63.0066637 58.3623698,62.4758952 Z M66.4940124,51.7552793 C66.159492,52.5267765 65.262819,52.8810459 64.4912373,52.5465621 C63.7196555,52.2120784 63.3653473,51.3155036 63.6998677,50.5440064 C64.4614472,48.7875923 65.0212702,46.9464094 65.3659859,45.0493707 C65.5163239,44.2220311 66.3089617,43.6731996 67.136392,43.8235211 C67.9638222,43.9738426 68.5127139,44.7663936 68.3623759,45.5937331 C67.9758572,47.7208217 67.3480138,49.7857144 66.4940124,51.7552793 Z M68.4617249,45.012545 C68.3286998,45.8428435 67.547698,46.4081071 66.7173085,46.2750965 C65.8869191,46.142086 65.3215936,45.3611698 65.4546187,44.5308713 C65.6660592,43.2111297 65.7734231,41.8690796 65.7741019,40.5137009 C65.7741051,37.9784872 65.4052184,35.5064391 64.6861079,33.1402298 C64.441596,32.3356713 64.8956749,31.4852534 65.7003216,31.2407682 C66.5049682,30.9962831 67.3554793,31.4503122 67.5999912,32.2548707 C68.406151,34.907513 68.8195526,37.6778722 68.8195489,40.5144651 C68.8187893,42.0315657 68.6985814,43.5341652 68.4617249,45.012545 Z M65.0254647,26.3320463 C64.9180442,26.1464922 64.8085206,25.96217 64.6969177,25.7791144 C64.2591807,25.0611202 63.3222117,24.833888 62.6041388,25.271577 C61.8860659,25.7092661 61.6588088,26.6461324 62.0965458,27.3641266 C62.1961454,27.5274939 62.2938864,27.6919867 62.3897478,27.857574 C62.8110568,28.5853274 63.7426206,28.833787 64.4704537,28.4125242 C65.1982868,27.9912613 65.4467737,27.0597996 65.0254647,26.3320463 Z M55.7512802,16.6349585 C56.4594885,17.0884321 56.6659514,18.0300984 56.2124281,18.7382291 C55.7589048,19.4463597 54.8171353,19.6528001 54.1089271,19.1993265 C52.4923996,18.164246 50.7627164,17.3160239 48.9508571,16.6732703 C48.1582841,16.3921065 47.74373,15.5217413 48.0249246,14.7292551 C48.3061192,13.936769 49.1765798,13.5222603 49.9691528,13.8034241 C52.0006994,14.5241114 53.9396826,15.4749725 55.7512802,16.6349585 Z M49.4092629,13.6114146 C50.20758,13.8758325 50.6403673,14.7372785 50.3759204,15.5355081 C50.1114735,16.3337377 49.249933,16.7664776 48.451616,16.5020597 C45.9162232,15.6622889 43.2487585,15.228062 40.5219645,15.2255639 C39.3465524,15.2255532 38.20311,15.3022987 37.0719849,15.4554111 C36.2386099,15.5682191 35.4715669,14.9841582 35.3587465,14.1508745 C35.2459261,13.3175908 35.8300511,12.550632 36.6634261,12.4378239 C37.9302283,12.2663459 39.2101752,12.1804385 40.5233733,12.1804511 C43.577056,12.183248 46.5668075,12.6699388 49.4092629,13.6114146 Z M30.4252407,14.0237514 C30.2244316,14.100164 30.0245455,14.1788589 29.8256167,14.2598182 C29.0466891,14.5768232 28.6722551,15.4651829 28.9892948,16.2440251 C29.3063345,17.0228673 30.1947915,17.3972604 30.9737191,17.0802554 C31.1511201,17.0080574 31.3293716,16.9378799 31.5084433,16.8697389 C32.2944271,16.5706536 32.6891098,15.691101 32.3899917,14.9052032 C32.0908735,14.1193055 31.2112245,13.724666 30.4252407,14.0237514 Z M19.3732154,21.6346804 C19.9336385,21.0077177 20.8962605,20.953727 21.5232918,21.5140887 C22.1503231,22.0744504 22.2043198,23.0369669 21.6438967,23.6639295 C20.3633189,25.0965514 19.2488065,26.6701215 18.3242423,28.3537167 C17.9194689,29.0907932 16.9937513,29.360214 16.256594,28.955485 C15.5194367,28.550756 15.2499863,27.6251397 15.6547597,26.8880632 C16.6906797,25.0016935 17.9390677,23.2391057 19.3732154,21.6346804 Z M15.334325,27.4885959 C15.7212211,26.7419825 16.6401785,26.4503396 17.3868737,26.8371933 C18.1335689,27.224047 18.4252437,28.1429037 18.0383476,28.889517 C16.2784771,32.2856301 15.308903,36.0466088 15.2255583,39.9492518 C15.2076044,40.789945 14.5114588,41.4569087 13.6706735,41.4389568 C12.8298881,41.421005 12.1628514,40.7249356 12.1808052,39.8842424 C12.2741489,35.5133949 13.3614491,31.2957564 15.334325,27.4885959 Z M12.7554472,46.2341172 C12.7987103,46.4444152 12.8443525,46.6540961 12.8923613,46.8631285 C13.0805894,47.6826804 13.8976293,48.1944861 14.717271,48.0062787 C15.5369127,47.8180712 16.0487746,47.0011208 15.8605465,46.1815689 C15.8177308,45.9951478 15.7770246,45.808143 15.738439,45.6205819 C15.5689973,44.7969417 14.7638722,44.266594 13.9401418,44.4360171 C13.1164114,44.6054402 12.5860055,45.4104771 12.7554472,46.2341172 Z M18.5018272,58.3429032 C17.9716097,57.6902024 18.07096,56.7313048 18.7237323,56.2011453 C19.3765046,55.6709859 20.3355073,55.7703253 20.8657249,56.423026 C22.0769586,57.9140617 23.4544033,59.2641704 24.9694416,60.4451685 C25.6326818,60.9621755 25.7511813,61.9188959 25.2341176,62.5820634 C24.717054,63.2452309 23.7602287,63.3637174 23.0969885,62.8467104 C21.4004388,61.5242211 19.8581316,60.0125216 18.5018272,58.3429032 Z M23.6279335,63.2506673 C22.952743,62.749364 22.8118242,61.7956872 23.3131825,61.1205707 C23.8145408,60.4454542 24.768322,60.3045509 25.4435125,60.8058542 C28.530465,63.0977995 32.0997251,64.6611269 35.9076702,65.3591799 C36.7348605,65.5108161 37.2824918,66.3042383 37.1308389,67.131338 C36.979186,67.9584376 36.1856768,68.5060088 35.3584866,68.3543726 C31.0888748,67.5716893 27.086949,65.8188553 23.6279335,63.2506673 Z" id="Oval"></path>
                            <path d="M40.4992058,81 C39.6582678,81 38.9765529,80.3183281 38.9765529,79.4774433 C38.9765529,78.6365584 39.6582678,77.9548866 40.4992058,77.9548866 C43.4658261,77.9548866 46.3862106,77.6103241 49.2195833,76.9348678 C50.0375953,76.7398594 50.8588206,77.2448617 51.0538413,78.0628221 C51.248862,78.8807824 50.7438277,79.7019557 49.9258157,79.8969641 C46.8615081,80.6274737 43.7041125,81 40.4992058,81 Z M52.358701,79.2357438 C51.5545194,79.481632 50.703257,79.0290869 50.4573534,78.224956 C50.2114497,77.4208252 50.6640234,76.5696167 51.468205,76.3237286 C55.59342,75.0623948 59.4585886,73.0945998 62.9051538,70.5180246 C63.5786712,70.014518 64.5328636,70.1523045 65.036402,70.8257794 C65.5399405,71.4992542 65.4021453,72.4533863 64.7286278,72.9568929 C61.0019741,75.7428561 56.8214332,77.8712102 52.358701,79.2357438 Z M71.6299408,66.4100332 C72.1700668,65.7618396 72.6899173,65.0969983 73.188657,64.416511 C73.6857525,63.7382672 73.538868,62.7854919 72.8605814,62.2884279 C72.1822947,61.7913638 71.2294592,61.938239 70.7323637,62.6164828 C70.2709818,63.2459985 69.7900517,63.8610641 69.2903486,64.4607472 C68.7520341,65.1067669 68.8393795,66.0668319 69.48544,66.6051124 C70.1315006,67.1433928 71.0916262,67.056053 71.6299408,66.4100332 Z M79.3395948,52.019224 C79.1007949,52.8254926 78.2535581,53.2855292 77.4472385,53.0467444 C76.6409188,52.8079596 76.1808532,51.9607763 76.4196531,51.1545077 C77.2481572,48.3571998 77.7481917,45.459039 77.9038624,42.5029633 C77.9480832,41.6632418 78.664703,41.0183589 79.5044775,41.0625769 C80.3442521,41.1067949 80.9891758,41.8233694 80.944955,42.6630908 C80.7766776,45.8585587 80.2358448,48.993183 79.3395948,52.019224 Z M80.9999306,40.109594 C81.0078774,40.9504413 80.3326351,41.6385245 79.4917346,41.6464708 C78.6508342,41.6544171 77.9627075,40.9792175 77.9547606,40.1383702 C77.9135516,35.7780848 77.1269553,31.5264937 75.6464982,27.5197528 C75.3550542,26.7309825 75.7582572,25.8553108 76.5470773,25.5638853 C77.3358974,25.2724597 78.2116245,25.6756373 78.5030685,26.4644075 C80.1045656,30.7987338 80.9553968,35.3975173 80.9999306,40.109594 Z M74.1973316,18.0241348 C73.7285897,17.322781 73.2380614,16.6361804 72.7265404,15.9653493 C72.2166565,15.296665 71.261204,15.1679058 70.5924775,15.6777575 C69.923751,16.1876092 69.7949837,17.1430013 70.3048676,17.8116856 C70.7780586,18.4322491 71.2318112,19.0673741 71.66539,19.7161153 C72.1326471,20.4152474 73.0782282,20.6032433 73.7774045,20.1360158 C74.4765809,19.6687883 74.6645886,18.7232669 74.1973316,18.0241348 Z M62.5405769,6.51673966 C63.2457092,6.97493036 63.4458714,7.9179538 62.9876517,8.62304147 C62.529432,9.32812915 61.586349,9.5282787 60.8812167,9.070088 C58.4209115,7.47139643 55.7804533,6.16616302 53.0102623,5.18486348 C52.217594,4.90407234 51.8026499,4.03390211 52.0834588,3.24128387 C52.3642677,2.44866563 53.2344929,2.03374778 54.0271613,2.31453892 C57.0239673,3.37611351 59.8799815,4.78790077 62.5405769,6.51673966 Z M51.644618,1.55311198 C52.453217,1.78406139 52.9214827,2.62674047 52.6905187,3.43528837 C52.4595547,4.24383627 51.6168223,4.71207235 50.8082233,4.48112293 C47.4957938,3.53503759 44.0481548,3.04832701 40.5356203,3.0451128 C39.6747088,3.04509689 38.8489303,3.0717183 38.0231821,3.12556849 C37.1840269,3.18029301 36.4593913,2.54442923 36.4046633,1.70532699 C36.3499353,0.866224752 36.9858393,0.141635001 37.8249946,0.086910484 C38.7170689,0.0287349191 39.6089578,-1.77615135e-05 40.5370416,8.23144308e-09 C44.333596,0.00347345343 48.0617504,0.529784994 51.644618,1.55311198 Z M28.4982987,1.80776201 C27.6914778,2.05770839 26.8934043,2.33281711 26.1050727,2.63260105 C25.3190561,2.93150465 24.9241883,3.81096596 25.2231108,4.59693287 C25.5220333,5.38289978 26.4015502,5.7777426 27.1875668,5.478839 C27.9161961,5.20175845 28.6538131,4.94749005 29.3995091,4.71647967 C30.20278,4.46763304 30.652217,3.61476436 30.4033547,2.81154415 C30.1544923,2.00832395 29.3015697,1.55891538 28.4982987,1.80776201 Z M14.1726356,9.72161441 C14.8114582,9.17476466 15.7726635,9.24929062 16.3195478,9.88807281 C16.8664322,10.526855 16.7919015,11.4879996 16.1530789,12.0348493 C13.9226135,13.9441893 11.9212631,16.109229 10.1936716,18.4825899 C9.69879314,19.1624528 8.74644223,19.3124377 8.06653635,18.8175905 C7.38663047,18.3227433 7.23663614,17.3704525 7.73151464,16.6905896 C9.59888082,14.1252064 11.7619205,11.7852531 14.1726356,9.72161441 Z M6.32191605,18.7581296 C6.77395193,18.0490621 7.71524855,17.8406737 8.42436088,18.292681 C9.13347321,18.7446883 9.34187485,19.6859254 8.88983896,20.3949929 C6.57938903,24.0191852 4.90688811,28.0167187 3.95724673,32.2321096 C3.77244342,33.0524385 2.95758079,33.5676432 2.1372001,33.3828515 C1.3168194,33.1980599 0.801582137,32.3832488 0.986385447,31.5629199 C2.01377911,27.0023921 3.82315264,22.6777121 6.32191605,18.7581296 Z M0.000131601491,41.0373347 C0.0111465043,41.8837374 0.0481845929,42.7269041 0.11103236,43.5660343 C0.173835664,44.4045709 0.904558975,45.0334302 1.74314856,44.9706308 C2.58173814,44.9078315 3.21063717,44.1771544 3.14783387,43.3386178 C3.08966591,42.5619713 3.05537889,41.7814324 3.04517972,40.9977121 C3.03423756,40.1568985 2.34370993,39.4841541 1.50284311,39.4950956 C0.661976293,39.5060371 -0.0108105677,40.1965211 0.000131601491,41.0373347 Z M3.51286931,57.0293121 C3.16931833,56.2617999 3.51304614,55.3611228 4.28060686,55.0175935 C5.04816758,54.6740643 5.94890159,55.0177704 6.29245257,55.7852826 C7.49226576,58.4657327 9.00489293,60.9946955 10.7955249,63.3214228 C11.3083849,63.9878274 11.1838783,64.9437841 10.5174315,65.4566117 C9.85098476,65.9694393 8.89496768,65.8449406 8.38210763,65.1785359 C6.44619317,62.6630302 4.81053774,59.9283763 3.51286931,57.0293121 Z M9.97714198,67.1236096 C9.42408852,66.4901604 9.48929461,65.5283383 10.1227838,64.9753198 C10.7562731,64.4223013 11.718156,64.4875033 12.2712094,65.1209525 C15.1039479,68.3654778 18.4760172,71.1049829 22.2333642,73.2077165 C22.9671915,73.6183902 23.2291383,74.546154 22.8184387,75.2799349 C22.4077391,76.0137159 21.4799167,76.2756461 20.7460893,75.8649724 C16.6837263,73.5915419 13.0388992,70.6304454 9.97714198,67.1236096 Z M29.4965119,79.4873488 C30.3081562,79.7159319 31.1277084,79.919181 31.9542189,80.0967012 C32.776404,80.2732923 33.5860812,79.7499772 33.7626836,78.9278441 C33.9392859,78.1057109 33.4159377,77.2960849 32.5937526,77.1194937 C31.8297786,76.9554053 31.0722725,76.7675437 30.3220947,76.5562714 C29.5126489,76.3283074 28.6716504,76.7996501 28.443672,77.6090447 C28.2156935,78.4184394 28.687066,79.2593848 29.4965119,79.4873488 Z" id="Oval"></path>
                        </g>
                        <g id="logo-icon" transform="translate(12.000000, 12.000000)">
                            <rect id="Rectangle-11" fill="#3D5AFE" x="0" y="0" width="57" height="57" rx="28.5"></rect>
                            <g transform="translate(6.129032, 17.161290)" id="Combined-Shape" fill="#FFFFFF">
                                <path d="M11.9516129,0 L32.1774194,0 L32.1774194,1.77635684e-15 C38.7781129,5.63829107e-16 44.1290323,5.35091936 44.1290323,11.9516129 L44.1290323,11.9516129 C44.1290323,18.5523064 38.7781129,23.9032258 32.1774194,23.9032258 L11.9516129,23.9032258 C5.35091936,23.9032258 8.08351822e-16,18.5523064 0,11.9516129 L0,11.9516129 L0,11.9516129 C-8.08351822e-16,5.35091936 5.35091936,1.21252773e-15 11.9516129,0 L11.9516129,0 Z M12.0425381,14.7540601 C13.5155585,14.7540601 14.7096774,13.5362646 14.7096774,12.0340378 C14.7096774,10.531811 13.5155585,9.31401557 12.0425381,9.31401557 C10.5695177,9.31401557 9.37539879,10.531811 9.37539879,12.0340378 C9.37539879,13.5362646 10.5695177,14.7540601 12.0425381,14.7540601 Z M32.0864942,14.7540601 C33.5595145,14.7540601 34.7536335,13.5362646 34.7536335,12.0340378 C34.7536335,10.531811 33.5595145,9.31401557 32.0864942,9.31401557 C30.6134738,9.31401557 29.4193548,10.531811 29.4193548,12.0340378 C29.4193548,13.5362646 30.6134738,14.7540601 32.0864942,14.7540601 Z M22.0645161,14.836485 C23.5375365,14.836485 24.7316554,13.6186895 24.7316554,12.1164627 C22.8510257,12.1164627 20.88345,12.1164627 19.3973768,12.1164627 C19.3973768,13.6186895 20.5914958,14.836485 22.0645161,14.836485 Z"></path>
                            </g>
                        </g>
                    </g>
                </g>
            </g>
        </g>
    </g>
</svg>