<?xml version="1.0" encoding="UTF-8"?>
<svg width="383px" height="409px" viewBox="0 0 383 409" version="1.1" xmlns="http://www.w3.org/2000/svg" xmlns:xlink="http://www.w3.org/1999/xlink">
    <!-- Generator: Sketch 47.1 (45422) - http://www.bohemiancoding.com/sketch -->
    <title>waitingLine</title>
    <desc>Created with Sketch.</desc>
    <defs></defs>
    <g id="Website" stroke="none" stroke-width="1" fill="none" fill-rule="evenodd">
        <g id="waitingLine" fill-rule="nonzero">
            <g id="woman-(3)" transform="translate(0.000000, 219.000000)">
                <path d="M34.9796482,184.848889 C34.9416757,184.87 34.89421,184.891852 34.8507607,184.913333 C34.89421,184.891852 34.9413106,184.87037 34.9796482,184.848889 C34.2486768,184.032963 33.4085343,183.18963 33.095626,181.991111 C32.1736965,178.457037 31.0786998,173.797778 31.0786998,173.797778 C31.0786998,173.797778 30.216285,171.892963 27.8714805,171.25037 C27.0868364,171.035185 25.0009024,171.675926 25.0009024,171.675926 C25.0009024,171.675926 22.6031555,178.29037 24.7445878,180.307407 C26.5048341,181.965556 26.3912816,187.474444 29.532049,189.353333 C32.7874642,191.301111 36.0724542,188.282222 36.1783391,187.727778 C36.4032534,186.542593 35.7526085,185.711111 34.9796482,184.848889 Z" id="Shape" fill="#232C63"></path>
                <path d="M34.9796482,184.848889 C34.679154,185.016667 34.1942738,185.213704 33.8583629,185.213704 C33.4366486,185.213704 32.7728594,183.952222 32.0831466,182.295185 C32.0798605,182.285926 29.9475562,177.027407 29.3440119,174.497407 C28.418066,170.615556 25.0009024,171.675556 25.0009024,171.675556 C25.0009024,171.675556 22.6031555,178.29 24.7445878,180.307037 C26.5048341,181.965185 26.3912816,187.474074 29.532049,189.352963 C32.7874642,191.300741 36.0724542,188.281852 36.1783391,187.727407 C36.4032534,186.542593 35.7526085,185.711111 34.9796482,184.848889 Z" id="Shape" fill="#232C63"></path>
                <path d="M2.23891948,87.7259259 L2.59637254,94.5951852 C2.59637254,94.5951852 4.85026197,96.1192593 5.10073469,96.3733333 C5.3508423,96.627037 10.9309803,94.5666667 10.9309803,93.9177778 C10.9309803,93.2688889 9.69176104,89.2607407 9.69176104,88.6677778 C9.69176104,88.0748148 9.2744282,85.0266667 9.2744282,85.0266667 L2.23891948,87.7259259 Z" id="Shape" fill="#FFD2A8"></path>
                <path d="M12.6967035,30.5811111 C11.1281455,29.1640741 2.42914731,29.2714815 1.31625974,43.4233333 C0.833935436,49.5562963 -0.205928015,59.4225926 0.0920103896,66.7985185 C0.556808905,78.3033333 1.58243265,88.4677778 1.58243265,88.4677778 C1.58243265,88.4677778 3.25833618,90.7107407 9.06484898,87.9451852 C8.11005863,71.1985185 7.48497217,70.952963 7.8701744,58.3277778 C8.31817737,43.6577778 17.3925195,34.8248148 12.6967035,30.5811111 Z" id="Shape" fill="#FFFFFF"></path>
                <path d="M6.23041781,83.3925926 C6.23041781,83.3925926 1.54482523,92.0155556 2.23855436,103.258148 C2.73365788,111.279259 9.51139147,133.686667 9.51139147,133.686667 C7.60473173,152.198519 10.3314523,163.013704 10.3314523,163.013704 C10.3314523,163.013704 10.4785959,165.311481 13.6938479,166.114815 C15.7089484,166.617778 16.5392327,165.676296 16.5392327,165.676296 L18.1139978,119.475926 C20.2273158,129.167407 24.0504935,141.808519 24.0504935,141.808519 C22.1438338,160.32037 24.8705544,171.135556 24.8705544,171.135556 C24.8705544,171.135556 25.017698,173.433333 28.2329499,174.236667 C30.2480505,174.73963 31.0783347,173.798148 31.0783347,173.798148 L33.8207555,93.3611111 L6.23041781,83.3925926 Z" id="Shape" fill="#6070E0"></path>
                <path d="M2.23891948,91.067037 C2.23891948,91.067037 5.99564527,81.697037 8.03959035,69.3940741 C9.61179963,59.9303704 3.30142041,48.7859259 3.30142041,43.8233333 C3.30142041,32.6581481 8.02242968,29.9814815 11.5903881,30.0518519 C11.5903881,30.0518519 25.8768267,34.3781481 36.9031035,44.2733333 C36.9031035,44.2733333 39.4249915,53.2585185 38.8681826,56.4703704 C38.2346983,60.1266667 31.9882152,65.2922222 31.9882152,69.23 C31.9882152,74.3677778 35.4546701,93.7766667 35.4546701,93.7766667 C30.6442063,102.863704 10.8601469,102.98037 2.23891948,91.067037 Z" id="Shape" fill="#FFFFFF"></path>
                <path d="M2.16224416,88.9103704 C2.35940928,89.0151852 2.61645417,89.1174074 2.93447421,89.1951852 C4.07912727,85.9788889 6.38303822,78.9011111 7.89062115,70.2618519 C7.75662189,67.6214815 7.71463302,65.0225926 7.7975154,61.112963 C6.53821447,54.1044444 3.30105529,47.3777778 3.30105529,43.8237037 C3.30105529,37.0437037 5.04304564,33.397037 7.20967124,31.5914815 C4.54757699,33.0114815 2.16041855,36.6559259 2.16041855,44.5951852 C2.16041855,49.5577778 8.47079777,60.7022222 6.89931874,70.1659259 C5.54070501,78.3385185 3.42811725,85.2133333 2.16224416,88.9103704 Z" id="Shape" fill="#E2E7EC"></path>
                <g id="Group" transform="translate(8.397774, 0.740741)">
                    <path d="M25.2104816,16.4685185 C25.2104816,16.4685185 25.5650137,27.1037037 22.7787785,29.2407407 C19.9925432,31.3774074 5.83426197,29.9966667 1.92345529,22.7996296 C-1.98735139,15.6025926 0.170511317,1.99814815 8.87717699,0.514444444 C19.0476111,-1.21962963 25.8253447,5.76777778 25.2104816,16.4685185 Z" id="Shape" fill="#FEC377"></path>
                    <path d="M6.1610449,24.1192593 L4.06671317,34.9407407 C4.06671317,34.9407407 8.02535065,41.9285185 15.1587117,37.6388889 C15.1587117,37.6388889 15.8444082,28.1833333 16.5118486,26.7440741 C17.1800193,25.3051852 6.1610449,24.1192593 6.1610449,24.1192593 Z" id="Shape" fill="#FEC377"></path>
                    <path d="M23.5123058,102.826667 C23.5123058,102.826667 23.6791659,108.68 23.7164082,109.427778 C23.7540156,110.181481 23.013551,110.695185 23.6028557,112.184074 C23.694866,112.416667 25.4098375,113.632593 26.0254308,113.834444 C26.6914108,114.052593 30.8209247,111.184444 31.4292156,110.729259 C32.0378716,110.274074 31.5310842,106.625185 31.4872698,105.752222 C31.4737603,105.485185 31.3711614,101.194074 30.8603577,101.008519 C30.3491889,100.822593 23.5123058,102.826667 23.5123058,102.826667 Z" id="Shape" fill="#FFD3AB"></path>
                </g>
                <path d="M37.579672,44.7996296 C36.3871881,42.9644444 32.0353158,41.1088889 29.8091755,48.7859259 C27.5830353,56.462963 30.9830382,105.343333 30.9830382,105.343333 C30.9830382,105.343333 36.250633,109.29 40.1238323,103.277037 C40.1238323,103.277037 38.4906479,84.3751852 38.4906479,72.8055556 C38.4902827,61.2362963 39.8255288,48.2548148 37.579672,44.7996296 Z" id="Shape" fill="#FFFFFF"></path>
                <path d="M29.8088104,48.7859259 C29.9647169,48.2481481 30.1319421,47.7618519 30.3072,47.3144444 C29.862118,48.2107407 29.4371176,49.3007407 29.0530108,50.6244444 C27.324895,56.5851852 28.2223614,85.5448148 29.0526456,99.0181481 C29.565275,98.8211111 30.0592831,98.6018519 30.5332096,98.3614815 C29.6916067,84.5692593 28.1080787,54.6514815 29.8088104,48.7859259 Z" id="Shape" fill="#E2E7EC"></path>
                <path d="M20.4401811,176.727407 C20.4022085,176.748519 20.3543777,176.77037 20.3112935,176.791852 C20.3547429,176.77037 20.4025737,176.748519 20.4401811,176.727407 C19.7092096,175.911481 18.8690672,175.068148 18.5561588,173.86963 C17.6342293,170.335556 16.5388675,165.676296 16.5388675,165.676296 C16.5388675,165.676296 15.6764527,163.771481 13.3316482,163.128889 C12.5470041,162.913704 10.4610701,163.554444 10.4610701,163.554444 C10.4610701,163.554444 8.06332319,170.168889 10.2047555,172.185926 C11.9650019,173.843704 11.8510842,179.352963 14.9922167,181.231852 C18.2476319,183.179259 21.5326219,180.160741 21.6385069,179.606296 C21.8641514,178.421111 21.2131414,177.58963 20.4401811,176.727407 Z" id="Shape" fill="#232C63"></path>
                <g id="Group" transform="translate(9.128015, 163.333333)" fill="#232C63">
                    <path d="M11.3121662,13.3940741 C11.0113069,13.5618519 9.10537737,12.4974074 8.41529944,10.8403704 C8.41201336,10.8311111 6.27970909,5.57259259 5.67616475,3.04259259 C4.75021892,-0.83962963 1.33269017,0.220740741 1.33269017,0.220740741 C1.33269017,0.220740741 -1.06505677,6.83518519 1.07637551,8.85222222 C2.83662189,10.51 2.72270427,16.0192593 5.86383673,17.8981481 C9.11925195,19.8455556 12.4042419,16.827037 12.5101269,16.2725926 C12.7361365,15.0877778 12.0851265,14.2562963 11.3121662,13.3940741 Z" id="Shape"></path>
                    <path d="M17.5382026,14.7448148 C17.5382026,18.5437037 16.8291384,25.9877778 16.8291384,25.9877778 L16.1368698,25.9877778 L16.1368698,13.8792593 C16.1365046,13.8796296 17.5382026,13.4937037 17.5382026,14.7448148 Z" id="Shape"></path>
                    <path d="M2.13522523,6.62333333 C2.13522523,10.4222222 1.42616104,17.8662963 1.42616104,17.8662963 L0.733892393,17.8662963 L0.733892393,5.75777778 C0.733527273,5.75777778 2.13522523,5.37185185 2.13522523,6.62333333 Z" id="Shape"></path>
                </g>
                <path d="M31.6077596,4.27296296 C30.5708171,3.16185185 28.0617083,0.583703704 23.9657855,0.395925926 C12.4648519,-0.131851852 9.07872356,7.52555556 7.36010093,14.9403704 C5.24167124,24.0833333 2.79864935,50.3625926 3.10462041,52.7911111 C3.91993469,59.2666667 6.70324898,64.232963 12.0617588,65.3844444 C24.312285,68.0166667 29.9526679,61.0581481 30.5244468,58.8814815 C31.8078456,53.9981481 31.9608312,35.4322222 31.6552252,24.0151852 C32.7199169,19.7344444 33.9835993,15.2240741 34.1592223,13.4555556 C34.482354,10.1914815 33.831344,6.65555556 31.6077596,4.27296296 Z" id="Shape" fill="#FFB676"></path>
            </g>
            <g id="man-(3)" transform="translate(61.000000, 184.000000)">
                <g id="Group" transform="translate(4.464191, 167.871094)" fill="#232C63">
                    <path d="M18.630185,12.4484587 L18.630185,20.4624464 C18.630185,20.4624464 20.4649675,23.0351081 23.9053707,22.0650211 C27.3454019,21.0953056 39.4069019,14.8346794 38.5155517,12.8718504 C36.347815,8.09792329 31.1016466,11.3350128 24.4351214,11.8549675 C20.7655564,12.141314 18.630185,12.4484587 18.630185,12.4484587 Z" id="Shape"></path>
                    <path d="M0.052454244,2.1444418 L0.052454244,10.1584295 C0.052454244,10.1584295 1.88723674,12.7310912 5.32763992,11.7610043 C8.76767109,10.7912887 21.1357122,4.36056308 19.938193,2.5678335 C16.9073793,-1.96914279 12.5242878,1.03099592 5.8577626,1.55095064 C2.18819761,1.83729713 0.052454244,2.1444418 0.052454244,2.1444418 Z" id="Shape"></path>
                </g>
                <g id="Group" transform="translate(0.372016, 33.054264)">
                    <path d="M1.88426061,58.8143062 L2.25255637,65.7802138 C2.25255637,65.7802138 4.57467971,67.3259649 4.83285875,67.5837139 C5.0910378,67.8414629 10.8401718,65.7519877 10.8401718,65.0935022 C10.8401718,64.4350167 9.56378515,60.3711992 9.56378515,59.7699087 C9.56378515,59.1686182 7.83093501,56.275813 7.83093501,56.275813 L1.88426061,58.8143062 Z" id="Shape" fill="#876C52"></path>
                    <path d="M11.5194728,0.329799848 C9.37442905,0.0427105659 2.08068501,-0.461645508 0.934131963,13.8891046 C0.4371187,20.1085058 -0.00409217507,30.1128059 0.302820955,37.5930973 C0.781605438,49.2593955 1.88463263,58.8143062 1.88463263,58.8143062 C1.88463263,58.8143062 2.42368369,60.4599629 8.02884748,56.077116 C8.02884748,56.077116 9.44660013,34.7801423 10.2226253,26.0244763 C11.3691784,13.0872602 15.9565066,0.924033808 11.5194728,0.329799848 Z" id="Shape" fill="#826C54"></path>
                </g>
                <path d="M11.82713,33.3874064 C9.71742772,32.6431284 2.0687805,32.2672754 0.883537798,47.4050142 C0.444559019,53.0075262 0.0323653846,61.5778655 0.145458223,68.8059789 C2.78379509,71.0711244 6.63825199,71.7567219 9.65455703,70.4950889 C9.95291379,66.448727 10.2490385,62.6307738 10.4867566,59.9504073 C11.6719993,46.5756864 16.4144582,35.0059512 11.82713,33.3874064 Z" id="Shape" fill="#5865D5"></path>
                <path d="M4.26330239,86.814239 L3.35149138,170.40253 C3.35149138,170.40253 3.17031963,172.704444 9.31788263,172.704444 C15.4650736,172.704444 15.7898435,169.768557 15.7898435,169.768557 L18.2391963,108.334793 L18.2998349,108.368219 L20.8697208,180.881475 C20.8697208,180.881475 20.6885491,183.183389 26.8357401,183.183389 C32.9833031,183.183389 33.3077009,180.247502 33.3077009,180.247502 L34.1904947,92.2797059 L4.26330239,86.814239 Z" id="Shape" fill="#E2E7EC"></path>
                <path d="M3.85668899,89.5759413 C3.85668899,89.5759413 2.73357294,77.328408 2.92627719,65.7330465 C3.0877321,56.0028368 3.35111936,52.3813522 3.35111936,47.3493047 C3.35111936,36.0269194 8.21559947,33.3127558 11.8918607,33.3840639 C11.8918607,33.3840639 26.6117865,37.7709961 37.9724085,47.8053793 L35.951246,93.8202574 C31.8218694,99.2459849 11.7177573,97.642296 3.85668899,89.5759413 Z" id="Shape" fill="#6070E0"></path>
                <path d="M30.8985259,85.7784149 C30.830819,85.7583595 30.761624,85.7397897 30.6946611,85.7189915 C30.129941,78.1042547 29.4963979,69.9643637 29.2225942,63.4040208 L28.0883176,96.8798195 C29.4208786,96.7609727 30.6511353,96.5444487 31.7485822,96.2387896 C31.4762666,93.0904638 31.1808859,89.5142896 30.8985259,85.7784149 Z" id="Shape" fill="#5B67D3"></path>
                <g id="Group" transform="translate(7.068302, 0.742792)" fill="#826C54">
                    <path d="M25.6240842,15.5020784 C25.6240842,15.5020784 26.2929688,27.5553715 23.3425106,29.7150406 C20.3916804,31.8747096 6.38676923,30.4574616 2.2369317,23.1725247 C-1.91253382,15.8875877 0.363459549,2.1255006 9.58871021,0.63063079 C20.3641512,-1.11493147 26.2669277,4.67662127 25.6240842,15.5020784 Z" id="Shape"></path>
                    <path d="M9.88595093,26.5949409 L7.43622613,39.0526845 C7.43622613,39.0526845 11.5332374,43.4630146 19.1565875,40.3050325 C19.1565875,40.3050325 19.8630458,30.7166962 20.5509032,29.257109 C21.2387606,27.7967791 9.88595093,26.5949409 9.88595093,26.5949409 Z" id="Shape"></path>
                </g>
                <path d="M14.2407692,39.4976171 C14.1161439,38.8112769 14.5041565,36.3050952 15.1525802,36.4985926 C15.1525802,36.4985926 15.2932023,39.5964085 26.4741406,38.0484291 L27.6489668,40.3518285 C27.6489668,40.3518285 23.9306678,42.9798282 20.3611751,42.7016524 C17.8243985,42.5040696 14.5045285,40.9486622 14.2407692,39.4976171 Z" id="Shape" fill="#5B63D7"></path>
                <g id="Group" transform="translate(29.389257, 46.053132)">
                    <path d="M3.43817109,61.8798107 C3.43817109,61.8798107 3.61004244,67.8150937 3.64798806,68.5734848 C3.68667772,69.3374469 2.92367308,69.8585158 3.53080305,71.3682414 C3.62566711,71.604078 5.39237069,72.8374849 6.02702984,73.0421242 C6.7133992,73.2638477 10.9677732,70.3547011 11.59462,69.893427 C12.2214668,69.4321529 11.6995285,65.7319323 11.6545146,64.8465237 C11.64075,64.5757758 11.5347255,60.2241263 11.008695,60.0361998 C10.4834085,59.8467877 3.43817109,61.8798107 3.43817109,61.8798107 Z" id="Shape" fill="#876C52"></path>
                    <path d="M9.28030902,2.28594377 C8.05154045,0.424877282 3.10856499,-2.65882558 0.815458886,5.12675349 C-1.47801923,12.9115898 3.43891512,61.880182 3.43891512,61.880182 C3.43891512,61.880182 7.17172281,66.3250521 11.1630816,60.2282116 C11.1630816,60.2282116 10.2192772,42.4186485 10.2192772,30.6866131 C10.2185332,18.953835 11.594248,5.79006715 9.28030902,2.28594377 Z" id="Shape" fill="#826C54"></path>
                </g>
                <path d="M38.7633143,48.3988705 C37.258882,46.2945395 31.9505869,43.3196557 29.5946101,51.3165592 C28.3509609,55.5374773 29.6433442,71.543169 30.6950332,85.7186202 C33.6421432,86.6289123 37.1855948,86.8978032 39.8380683,85.7843573 C39.7703614,82.9234922 39.7272076,80.1105372 39.7272076,77.5739009 C39.7272076,65.521722 41.4544775,52.163714 38.7633143,48.3988705 Z" id="Shape" fill="#5B67D3"></path>
                <path d="M14.6737958,28.904654 C13.0302294,28.5451425 9.27547281,25.7399868 7.44403846,20.9304057 C5.89236008,16.8550749 6.44963992,9.35287114 7.9358435,6.60008232 C9.91980438,2.92437388 12.4186353,0.906206789 15.988872,0.180498565 C20.0869993,-0.652914564 30.7787367,1.65197041 35.5818342,2.08650399 C36.0513183,6.60045371 33.4044251,9.74617974 31.041008,11.1389156 C29.7958707,11.8727945 29.8412566,12.0815192 28.8059363,13.0894886 C27.3163846,14.539048 27.4596107,19.2762069 27.4949523,21.3526832 C26.8219755,19.3746269 25.8171605,15.2970677 23.9734496,15.363919 C22.1297387,15.4311418 20.5985212,17.4177402 21.0486605,19.2037846 C21.177006,19.712226 22.2104662,22.3587955 23.1018163,24.4553272 C23.6479357,25.7399868 22.9716107,28.3211905 22.580994,29.3443871 L14.6737958,28.904654 Z" id="Shape" fill="#2B313A"></path>
            </g>
            <g id="man-(2)" transform="translate(127.000000, 145.000000)">
                <g id="Group" transform="translate(4.077586, 167.543860)" fill="#232C63">
                    <path d="M18.7113017,12.4308648 L18.7113017,20.4240413 C18.7113017,20.4240413 20.538431,22.9898347 23.9643448,22.0227507 C27.3902586,21.0556668 39.4002328,14.811322 38.5128017,12.8538018 C36.3539052,8.09214602 31.1301466,11.321072 24.4918362,11.8396425 C20.8375776,12.1246895 18.7113017,12.4308648 18.7113017,12.4308648 Z" id="Shape"></path>
                    <path d="M0.212405172,2.15434715 L0.212405172,10.1475237 C0.212405172,10.1475237 2.03953448,12.713317 5.46544828,11.7462331 C8.89136207,10.7791492 21.2067845,4.36540716 20.0139052,2.5772842 C16.99575,-1.9478827 12.63125,1.04455442 5.99293966,1.5631249 C2.33868103,1.84817187 0.212405172,2.15434715 0.212405172,2.15434715 Z" id="Shape"></path>
                </g>
                <path d="M2.03916379,91.7558395 L2.40614655,98.702979 C2.40614655,98.702979 4.71850862,100.244605 4.97539655,100.501481 C5.23228448,100.758357 10.9568448,98.6744372 10.9568448,98.0179766 C10.9568448,97.3615161 9.68537931,93.3078443 9.68537931,92.7084672 C9.68537931,92.1090902 9.25723276,89.0262091 9.25723276,89.0262091 L2.03916379,91.7558395 Z" id="Shape" fill="#FFD3AB"></path>
                <path d="M11.6333534,33.4246293 C9.49743966,33.1380997 2.23451724,32.6350974 1.0927931,46.9486066 C0.597922414,53.1518068 0.158655172,63.1299332 0.464103448,70.5900831 C0.940810345,82.2258558 1.36599138,92.5064509 1.36599138,92.5064509 C1.36599138,92.5064509 5.56034483,96.3091775 11.1414483,91.9382103 C11.1414483,91.9382103 9.56935345,67.7855768 10.3418707,59.0525384 C11.4839655,46.1486959 16.0516034,34.0177049 11.6333534,33.4246293 Z" id="Shape" fill="#E2E7EC"></path>
                <g id="Group" transform="translate(2.224138, 48.187393)">
                    <path d="M0.904482759,41.7855127 C0.904482759,41.7855127 0.28987931,29.0670063 0.481525862,17.5016612 C0.629431034,8.55252096 0.864077586,4.78389613 0.900034483,0.316554107 L0.900034483,0.315812762 C-0.716172414,13.9658186 0.443715517,45.1241577 0.444827586,45.1463981 C1.09205172,45.4592455 1.95761207,45.7587486 2.9955431,45.8343658 L2.93882759,44.6048459 C2.21375862,43.7671266 1.53576724,42.8378513 0.904482759,41.7855127 Z" id="Shape" fill="#F6F9FC"></path>
                    <path d="M1.81341379,38.5273036 L0.905594828,121.896313 C0.905594828,121.896313 0.725068966,124.191886 6.84626724,124.191886 C12.9674655,124.191886 13.2910776,121.263575 13.2910776,121.263575 L15.7302155,59.9910806 L16.8396897,60.6012071 L19.3781724,132.347417 C19.3781724,132.347417 19.1976466,134.64299 25.3188448,134.64299 C31.4400431,134.64299 31.7636552,131.714679 31.7636552,131.714679 L32.642931,43.9776685 L1.81341379,38.5273036 Z" id="Shape" fill="#6070E0"></path>
                </g>
                <path d="M3.12862069,89.972906 C3.12862069,89.972906 2.51401724,77.2543995 2.70566379,65.6890545 C2.8665431,55.9844842 3.12862069,52.3726537 3.12862069,47.3533807 C3.12862069,36.0608504 7.97242241,33.3534603 11.6329828,33.4246293 C11.6329828,33.4246293 26.2904224,37.8000446 37.6035,47.8081955 L38.2978017,92.2251106 C35.996931,100.147489 24.7368621,102.79483 14.9117328,99.2048692 L13.5216466,94.0395513 L12.1159914,97.9905469 C8.41057759,96.1075318 5.45840517,93.8590339 3.12862069,89.972906 Z" id="Shape" fill="#FFFFFF"></path>
                <g id="Group" transform="translate(6.301724, 1.112017)" fill="#FFD3AB">
                    <path d="M26.1084138,15.6368091 C26.1084138,15.6368091 26.7893707,27.9249651 23.7856724,30.1271289 C20.7819741,32.3292928 6.52710345,30.8840417 2.30346552,23.4572524 C-1.92017241,16.030463 0.396637931,1.99977682 9.78657759,0.475572504 C20.7549138,-1.30439567 26.762681,4.6000427 26.1084138,15.6368091 Z" id="Shape"></path>
                    <path d="M10.3726379,26.2821456 L7.93312931,38.7070796 C7.93312931,38.7070796 12.012569,43.106218 19.6039224,39.9558745 C19.6039224,39.9558745 20.3071207,30.3929009 20.9921552,28.9369003 C21.6775603,27.4808997 10.3726379,26.2821456 10.3726379,26.2821456 Z" id="Shape"></path>
                </g>
                <path d="M33.0340086,10.7120575 C37.0908362,-1.46119003 16.2058103,-1.945288 11.0932586,2.76929242 C8.84576724,4.84172101 2.90731897,12.3860134 7.87975,23.456511 C10.0275259,28.2378125 16.2669741,32.5820913 16.2669741,32.5820913 C16.2669741,32.5820913 23.0795086,26.7276937 23.3341724,25.5819457 C23.3341724,25.5819457 20.2226034,20.2053447 23.3341724,18.1136411 C26.8909397,15.7224344 27.7175776,24.2831102 27.7175776,24.2831102 C27.7175776,24.2831102 28.2295,16.114235 28.2157845,13.6259121 C28.9564224,7.980203 32.1754914,13.2882297 33.0340086,10.7120575 Z" id="Shape" fill="#8E6D60"></path>
                <path d="M32.4809397,107.777777 C32.4809397,107.777777 32.6518276,113.697784 32.6900086,114.453955 C32.728931,115.216057 31.9686466,115.73574 32.5732414,117.24141 C32.6677672,117.476787 34.4266897,118.706678 35.0587155,118.910918 C35.7418966,119.131839 39.9785086,116.230587 40.60275,115.770583 C41.2266207,115.310579 40.7069138,111.619795 40.662431,110.737224 C40.6487155,110.467375 40.5434397,106.127174 40.0192845,105.939243 C39.4955,105.750571 32.4809397,107.777777 32.4809397,107.777777 Z" id="Shape" fill="#FFD4AE"></path>
                <path d="M38.2978017,48.3401102 C37.0741552,46.4841542 32.1525086,43.4086865 29.8686897,51.1731583 C27.5848707,58.93763 31.52975,109.574055 31.52975,109.574055 C31.52975,109.574055 37.5119397,113.43683 41.4861034,107.355952 C41.4861034,107.355952 39.2319397,88.3675245 39.2319397,76.6661427 C39.2323103,64.9647609 40.6020086,51.8355496 38.2978017,48.3401102 Z" id="Shape" fill="#E2E7EC"></path>
                <g id="Group" transform="translate(28.913793, 56.712855)">
                    <path d="M0.253181034,3.34568778 C0.0893362069,11.2006036 -0.196836207,31.3807425 0.854068966,43.2163076 C1.21178448,43.109554 1.55912069,42.9890855 1.90237931,42.8623156 C1.1647069,31.8618751 0.137525862,14.2968289 0.253181034,3.34568778 Z" id="Shape" fill="#F6F9FC"></path>
                    <path d="M0.330335362,0.0805396678 L0.330335362,0.079694535 C0.330335362,0.079694535 0.329913793,0.0885684288 0.329913793,0.0995551545 C0.329913793,0.0936392253 0.330335362,0.0868781633 0.330335362,0.0805396678 Z" id="Shape" fill="#1D1D1F"></path>
                </g>
                <path d="M13.9727759,39.5225586 C13.8485948,38.837927 14.2352241,36.3384839 14.8805948,36.5316042 C14.8805948,36.5316042 15.0207155,39.6215281 26.1543793,38.0773075 L27.3242759,40.3747341 C27.3242759,40.3747341 23.6218276,42.9957576 20.0672845,42.7181241 C17.5410345,42.5209265 14.2352241,40.9696631 13.9727759,39.5225586 Z" id="Shape" fill="#FFFFFF"></path>
            </g>
            <g id="food-stall" transform="translate(170.000000, 0.000000)">
                <polygon id="Shape" fill="#FFFFFF" points="0.370252639 139.987541 0.370252639 220.68318 131.474976 296.15625 212.154762 249.711195 212.154762 169.015556 81.0500381 93.542486"></polygon>
                <g id="Group" transform="translate(0.000000, 104.634480)">
                    <polygon id="Shape" fill="#2E2E30" points="20.3953073 34.8533394 131.223775 98.6815395 191.67556 63.8659474 80.8470932 0.0383252906"></polygon>
                    <polygon id="Shape" fill="#FFFFFF" points="0.244518869 35.4359497 0.244518869 116.088758 131.223775 191.52177 131.223775 110.868962"></polygon>
                </g>
                <polygon id="Shape" fill="#E2E7EC" points="212.154762 168.968048 212.154762 249.693839 131.439687 296.15625 131.439687 215.430458"></polygon>
                <polygon id="Shape" fill="#93A3FD" points="20.3638951 114.521562 20.3638951 139.407512 60.7035805 162.682584 85.5283595 148.359285 85.5283595 123.473335 45.1880937 100.197683"></polygon>
                <polygon id="Shape" fill="#7889F3" points="20.3638951 114.617275 20.3638951 139.453768 60.7214327 162.682584 60.7214327 137.846091"></polygon>
                <polygon id="Shape" fill="#7889F3" points="85.5283595 123.490871 85.5283595 148.365691 60.7214327 162.682584 60.7214327 137.807764"></polygon>
                <path d="M105.892249,164.010478 L105.892249,142.873808 L105.892249,142.873808 C105.895719,140.271998 104.18588,137.670189 100.760998,135.695447 C93.9129684,131.747117 82.7062085,131.747117 75.8581791,135.695447 C72.4327188,137.670189 70.7194104,140.272576 70.718254,142.873808 L70.718254,142.873808 L70.718254,164.010478 L70.7188322,164.010478 C70.7147846,166.612287 72.4228888,169.213519 75.8443015,171.186529 C82.6842356,175.130239 93.8915737,175.130239 100.74712,171.186529 C104.175472,169.214097 105.891093,166.612287 105.892249,164.010478 L105.892249,164.010478 Z" id="Shape" fill="#E2E7EC"></path>
                <path d="M75.858498,135.705331 C69.010722,139.666841 69.0037834,146.145571 75.8440426,150.101867 C82.6837236,154.058741 93.8894906,154.058741 100.74594,150.101867 C107.602389,146.144992 107.608171,139.666841 100.760395,135.705331 C93.9131973,131.743822 82.7074303,131.743822 75.858498,135.705331 Z" id="Shape" fill="#FFFFFF"></path>
                <polygon id="Shape" fill="#91A0FF" points="101.07897 161.081386 101.07897 185.922211 131.393193 203.35323 156.246613 189.055903 156.246613 164.215079 125.93181 146.784059"></polygon>
                <polygon id="Shape" fill="#7889F3" points="101.07897 160.833919 101.07897 185.602894 131.439687 202.983497 131.439687 178.214521"></polygon>
                <polygon id="Shape" fill="#7889F3" points="156.246613 164.161517 156.246613 189.036337 131.439687 203.35323 131.439687 178.47841"></polygon>
                <g id="Group" transform="translate(7.775305, 54.720506)" fill="#6F7785">
                    <path d="M4.65103552,1.35875158 L4.65103552,1.35643767 L4.65045636,1.35643767 C4.64929805,1.02612818 4.43269346,0.696397156 3.99948429,0.444760324 C3.129591,-0.0590918156 1.7054448,-0.060827242 0.833234881,0.442446422 C0.39770908,0.694083254 0.178787866,1.02497123 0.178787866,1.35643767 L0.178787866,85.769893 C0.178787866,86.1013594 0.39597161,86.4316689 0.830918254,86.6833058 C1.70196986,87.1854225 3.12611606,87.186001 3.99716766,86.6856197 C4.43385178,86.4339828 4.65161468,86.1025164 4.65103552,85.769893 C4.65103552,85.769893 4.65103552,1.35933005 4.65103552,1.35875158 Z" id="Shape"></path>
                    <path d="M125.49902,70.3477368 L125.49902,70.3454229 L125.498441,70.3454229 C125.497283,70.0151134 125.280678,69.6853824 124.847469,69.4337456 C123.977576,68.9298934 122.55343,68.928158 121.68122,69.4314317 C121.245694,69.6830685 121.026773,70.0139565 121.026773,70.3454229 L121.026773,154.7583 C121.026773,155.089766 121.243957,155.420076 121.678903,155.671134 C122.549955,156.173251 123.974101,156.173829 124.845153,155.673448 C125.281837,155.421811 125.4996,155.090345 125.498441,154.757721 C125.49902,154.7583 125.49902,70.3483153 125.49902,70.3477368 Z" id="Shape"></path>
                </g>
                <path d="M204.009204,84.8509287 L204.009204,84.8486176 L204.008628,84.8486176 C204.007478,84.5187129 203.792288,84.1893859 203.361909,83.9380574 C202.497699,83.4348227 201.082856,83.4330894 200.216344,83.9357464 C199.783663,84.1870749 199.566172,84.5175574 199.566172,84.8486176 L199.566172,169.158632 C199.566172,169.489693 199.781937,169.819597 200.214042,170.070348 C201.079404,170.571849 202.494246,170.572427 203.359608,170.072659 C203.793439,169.821331 204.009779,169.49027 204.008628,169.158054 C204.009204,169.158632 204.009204,84.8515065 204.009204,84.8509287 Z" id="Shape" fill="#6F7785"></path>
                <polygon id="Shape" fill="#5D74E8" points="0.370252639 58.031928 131.474976 133.473666 212.154762 87.0484701 212.154762 75.4417377 81.0500381 0 0.370252639 46.4257737"></polygon>
                <polygon id="Shape" fill="#6A81F8" points="0.370252639 46.4807935 131.474976 122.011938 212.154762 75.5311447 81.0500381 0"></polygon>
                <polygon id="Shape" fill="#7A8EF6" points="81.0853278 0 81.0853278 11.6463041 0.370252639 46.5863764"></polygon>
                <path d="M0.370252639,46.2558057 C0.186432274,42.8486928 27.0630345,31.2506667 81.0000594,11.4617275 L162.170656,58.1642113 L131.393761,121.642205 C44.2285758,74.7917185 0.554073004,49.6629187 0.370252639,46.2558057 Z" id="Shape" fill="#95A5FA"></path>
                <polygon id="Shape" fill="#FFFFFF" points="25.1771794 15.6810968 25.1771794 60.7941855 113.385757 111.65941 118.851097 108.548662 118.851097 63.3348714 30.8180921 12.570927"></polygon>
                <polygon id="Shape" fill="#E2E7EC" points="113.297307 112.029143 118.851097 108.911281 118.851097 63.5941011 113.297307 66.7125431"></polygon>
                <polygon id="Shape" fill="#F6F9FC" points="25.1771794 15.6872027 30.8180921 12.570927 118.851097 63.4345308 113.385757 66.5519663"></polygon>
                <path d="M162.249129,58.4178371 C194.711601,64.1196657 211.346812,69.8255081 212.154762,75.5353641 C213.366686,84.1001481 131.666975,131.265746 131.439687,122.011938 C131.288161,115.842733 141.557975,94.6446993 162.249129,58.4178371 Z" id="Shape" fill="#7A8EF6"></path>
                <polygon id="Shape" fill="#6A80F8" points="131.439687 121.864276 131.439687 133.473666 212.154762 87.0355295 212.154762 75.4255618"></polygon>
                <path d="M47.3638041,41.7408612 L47.3533592,45.2662459 L38.7328175,40.3019995 L38.7177304,45.6360901 L45.8870083,49.7645697 L45.8777239,53.0271857 L38.708446,48.8987061 L38.6840745,57.4670521 L35.1740007,55.4459318 L35.2326083,34.7549157 L47.3638041,41.7408612 M57.1042735,64.6602029 C57.9526333,65.1486982 58.7017662,65.3802125 59.3557344,65.3570611 C60.0091222,65.3362248 60.5632833,65.1261255 61.0129952,64.722133 C61.4656085,64.3227708 61.8073895,63.7740818 62.0365975,63.0778023 C62.2681266,62.3826805 62.3870826,61.6105802 62.3894037,60.7557134 C62.3917248,59.8626468 62.2698674,58.9261713 62.0261526,57.948602 C61.7824377,56.9739265 61.4360145,56.0351359 60.9903645,55.134545 C60.5418132,54.2351118 59.9928746,53.4086056 59.3418078,52.65329 C58.690741,51.9008684 57.9561149,51.2873554 57.1431519,50.8196964 C56.2947921,50.3312011 55.5392762,50.096214 54.8777645,50.1112625 C54.2162528,50.1297836 53.6644128,50.3393041 53.2205036,50.7334573 C52.7789156,51.1333983 52.442357,51.6780358 52.2108279,52.3702637 C51.9792988,53.0653856 51.8603428,53.8374859 51.8580217,54.6923526 C51.8557006,55.5854192 51.9717552,56.5190009 52.2073463,57.4919399 C52.4429373,58.464879 52.7835577,59.4007757 53.2321091,60.300209 C53.6777591,61.2013786 54.2295991,62.0325151 54.8800856,62.79767 C55.5317326,63.5616673 56.2721615,64.181547 57.1042735,64.6602029 M57.20292,47.2613208 C58.510276,48.0143213 59.6975154,49.0057815 60.7733423,50.2380166 C61.8497495,51.4696729 62.7642603,52.7997228 63.5249988,54.2310603 C64.2845767,55.661819 64.8758753,57.1313563 65.2954129,58.6356208 C65.7172717,60.1445156 65.923849,61.5480713 65.9197871,62.8503395 C65.9163055,64.2278499 65.6934805,65.4201488 65.2478305,66.416818 C64.8045016,67.4181176 64.1911527,68.1751695 63.4089441,68.6862374 C62.6267355,69.2001993 61.6907545,69.4288197 60.605063,69.3778866 C59.5170504,69.3257958 58.3390953,68.9328002 57.0677163,68.2012149 C55.7441127,67.4383751 54.5452678,66.4532816 53.4723423,65.2418827 C52.3959351,64.0287475 51.4750412,62.708537 50.7067592,61.2853025 C49.9384772,59.8591741 49.3448575,58.3942671 48.9229988,56.8853723 C48.5040414,55.3782139 48.2945627,53.9630824 48.2986246,52.6422931 C48.3021062,51.2647827 48.5324748,50.0736414 48.9845077,49.0682903 C49.4388618,48.0635181 50.0609149,47.3053086 50.8512473,46.7867164 C51.6415797,46.2681243 52.5804621,46.0342948 53.6684747,46.0863855 C54.7541662,46.1396338 55.9321213,46.5291567 57.20292,47.2613208 M76.3281512,75.7312191 C77.1741899,76.217978 77.9256439,76.4512287 78.579612,76.4280773 C79.2329999,76.407241 79.7842596,76.1954053 80.2368729,75.7931492 C80.6865848,75.3920505 81.0289461,74.8433615 81.2604752,74.1488185 C81.4920043,73.4536967 81.608059,72.67986 81.6103801,71.8244144 C81.6127011,70.9313478 81.4937451,69.9960299 81.2500303,69.0184605 C81.0063154,68.0437851 80.6598922,67.1049944 80.2142422,66.2044036 C79.7656909,65.3049704 79.2167522,64.4784642 78.5633644,63.7214122 C77.9122976,62.9689906 77.1805729,62.3572139 76.3676098,61.8889762 C75.5192501,61.4004809 74.7637341,61.1654938 74.1022224,61.1805423 C73.4407108,61.1990634 72.8865497,61.4068475 72.4449616,61.8027371 C72.0010524,62.2009418 71.6644939,62.746158 71.4323845,63.4372284 C71.2031765,64.1335078 71.0848007,64.9061869 71.0824796,65.7616324 C71.0801585,66.654699 71.1962132,67.5882806 71.4318042,68.5612197 C71.6673952,69.5341587 72.0080157,70.4700555 72.4565671,71.3694887 C72.902217,72.2706583 73.4511557,73.1006373 74.1045435,73.8669498 C74.7561906,74.6326835 75.4966194,75.2519844 76.3281512,75.7312191 M76.427378,58.3317582 C77.7318326,59.0830223 78.9219734,60.0762188 79.9983805,61.3084539 C81.0718863,62.5389527 81.9892986,63.8701602 82.750037,65.3014977 C83.5107755,66.7328351 84.1009135,68.2017937 84.5204512,69.7060581 C84.9394086,71.2132166 85.1488873,72.6185087 85.1448254,73.9207769 C85.1413437,75.2982872 84.9161977,76.4894286 84.4728688,77.4872554 C84.0272188,78.4868186 83.4127093,79.2438705 82.631081,79.7543597 C81.8488724,80.2683215 80.9152125,80.4986783 79.8271999,80.4465876 C78.7426689,80.3956544 77.5612322,80.0015012 76.2898532,79.2699159 C74.9685706,78.5093913 73.7697258,77.5237189 72.6968002,76.3123201 C71.6203931,75.0991849 70.6994992,73.7789743 69.9312172,72.3563187 C69.1629352,70.9301903 68.5664141,69.4635469 68.1474567,67.9563885 C67.7284993,66.44923 67.5190206,65.0340986 67.5230826,63.7133092 C67.5265642,62.3357989 67.7546116,61.1435 68.2089657,60.1393065 C68.6598382,59.1327978 69.2830518,58.3745884 70.0728039,57.8554174 C70.8660377,57.3385616 71.80492,57.1047322 72.8900313,57.1550865 C73.9780439,57.2100712 75.1565792,57.5995941 76.427378,58.3317582 M91.3299596,84.2526835 L94.3810372,86.0092986 C95.2462248,86.5076332 96.0121857,86.7744535 96.6847226,86.8126534 C97.3549384,86.8456442 97.914322,86.686478 98.366355,86.3339974 C98.8154866,85.9803593 99.1630703,85.4571369 99.4033035,84.7579635 C99.6406354,84.0570538 99.7624928,83.2224446 99.7648139,82.2506631 C99.7677152,81.2592029 99.6516605,80.2787397 99.4183906,79.3069582 C99.1833799,78.3340191 98.8369567,77.4137496 98.3797012,76.5478859 C97.9253472,75.6837586 97.3630622,74.8931371 96.6922662,74.177179 C96.0249518,73.4594845 95.2671147,72.8587048 94.4193352,72.3702095 L91.3682577,70.6135944 L91.3299596,84.2526835 M94.4303604,68.8448248 C95.9059957,69.6944824 97.1959435,70.7108304 98.3054262,71.8944475 C99.414909,73.0763283 100.341606,74.3484996 101.084936,75.7132767 C101.825945,77.0728447 102.383588,78.488555 102.753222,79.9575135 C103.122276,81.426472 103.304482,82.8670701 103.30042,84.2856742 C103.296358,85.8599718 103.084558,87.1628188 102.666181,88.1971092 C102.245483,89.2302419 101.6449,89.9728242 100.863271,90.4271711 C100.081063,90.884412 99.1427608,91.0418417 98.0466243,90.908721 C96.9533892,90.7744427 95.728432,90.3160442 94.3717528,89.5346833 L87.8106014,85.7563691 L87.869209,65.065353 L94.4303604,68.8448248" id="Shape" fill="#5F6CE4"></path>
            </g>
        </g>
    </g>
</svg>